solid OpenSCAD_Model
  facet normal 0 0 -1
    outer loop
      vertex -13.04 7.85 0
      vertex -13.0229 8.28466 0
      vertex -13.0229 7.41534 0
    endloop
  endfacet
  facet normal 0 0 -1
    outer loop
      vertex -13.0229 7.41534 0
      vertex -13.0229 8.28466 0
      vertex -12.9718 8.71665 0
    endloop
  endfacet
  facet normal 0 0 -1
    outer loop
      vertex -13.0229 7.41534 0
      vertex -12.9718 8.71665 0
      vertex -12.8869 9.14329 0
    endloop
  endfacet
  facet normal 0 0 -1
    outer loop
      vertex -13.0229 7.41534 0
      vertex -12.8869 9.14329 0
      vertex -12.7689 9.56195 0
    endloop
  endfacet
  facet normal 0 0 -1
    outer loop
      vertex -13.0229 7.41534 0
      vertex -12.7689 9.56195 0
      vertex -12.6183 9.97007 0
    endloop
  endfacet
  facet normal 0 0 -1
    outer loop
      vertex -13.0229 7.41534 0
      vertex -12.6183 9.97007 0
      vertex -12.4362 10.3651 0
    endloop
  endfacet
  facet normal 0 0 -1
    outer loop
      vertex -13.0229 7.41534 0
      vertex -12.4362 10.3651 0
      vertex -12.2236 10.7446 0
    endloop
  endfacet
  facet normal 0 0 -1
    outer loop
      vertex -13.0229 7.41534 0
      vertex -12.2236 10.7446 0
      vertex -11.982 11.1063 0
    endloop
  endfacet
  facet normal 0 0 -1
    outer loop
      vertex -13.0229 7.41534 0
      vertex -11.982 11.1063 0
      vertex -11.7126 11.4479 0
    endloop
  endfacet
  facet normal 0 0 -1
    outer loop
      vertex -13.0229 7.41534 0
      vertex -11.7126 11.4479 0
      vertex -11.4174 11.7674 0
    endloop
  endfacet
  facet normal 0 0 -1
    outer loop
      vertex -13.0229 7.41534 0
      vertex -11.4174 11.7674 0
      vertex -11.0979 12.0626 0
    endloop
  endfacet
  facet normal 0 0 -1
    outer loop
      vertex -13.0229 7.41534 0
      vertex -11.0979 12.0626 0
      vertex -10.7563 12.332 0
    endloop
  endfacet
  facet normal 0 0 -1
    outer loop
      vertex -13.0229 7.41534 0
      vertex -10.7563 12.332 0
      vertex -10.3946 12.5736 0
    endloop
  endfacet
  facet normal 0 0 -1
    outer loop
      vertex -13.0229 7.41534 0
      vertex -10.3946 12.5736 0
      vertex -10.0151 12.7862 0
    endloop
  endfacet
  facet normal 0 0 -1
    outer loop
      vertex -13.0229 7.41534 0
      vertex -10.0151 12.7862 0
      vertex -9.62007 12.9683 0
    endloop
  endfacet
  facet normal 0 0 -1
    outer loop
      vertex -13.0229 7.41534 0
      vertex -9.62007 12.9683 0
      vertex -9.21195 13.1189 0
    endloop
  endfacet
  facet normal 0 0 -1
    outer loop
      vertex -13.0229 7.41534 0
      vertex -9.21195 13.1189 0
      vertex -8.79329 13.2369 0
    endloop
  endfacet
  facet normal 0 0 -1
    outer loop
      vertex -13.0229 7.41534 0
      vertex -8.79329 13.2369 0
      vertex -8.36665 13.3218 0
    endloop
  endfacet
  facet normal 0 0 -1
    outer loop
      vertex -13.0229 7.41534 0
      vertex -8.36665 13.3218 0
      vertex -7.93466 13.3729 0
    endloop
  endfacet
  facet normal 0 0 -1
    outer loop
      vertex -13.0229 7.41534 0
      vertex -7.93466 13.3729 0
      vertex -7.5 13.39 0
    endloop
  endfacet
  facet normal 0 0 -1
    outer loop
      vertex -13.0229 7.41534 0
      vertex -7.5 13.39 0
      vertex -7.06534 13.3729 0
    endloop
  endfacet
  facet normal 0 0 -1
    outer loop
      vertex -13.0229 7.41534 0
      vertex -7.06534 13.3729 0
      vertex -6.63335 13.3218 0
    endloop
  endfacet
  facet normal 0 0 -1
    outer loop
      vertex -13.0229 7.41534 0
      vertex -6.63335 13.3218 0
      vertex -6.20671 13.2369 0
    endloop
  endfacet
  facet normal 0 0 -1
    outer loop
      vertex -13.0229 7.41534 0
      vertex -6.20671 13.2369 0
      vertex -5.78805 13.1189 0
    endloop
  endfacet
  facet normal 0 0 -1
    outer loop
      vertex -13.0229 7.41534 0
      vertex -5.78805 13.1189 0
      vertex -5.37993 12.9683 0
    endloop
  endfacet
  facet normal 0 0 -1
    outer loop
      vertex -13.0229 7.41534 0
      vertex -5.37993 12.9683 0
      vertex -4.98489 12.7862 0
    endloop
  endfacet
  facet normal 0 0 -1
    outer loop
      vertex -8.65314 10.1132 0
      vertex -4.98489 12.7862 0
      vertex -4.60536 12.5736 0
    endloop
  endfacet
  facet normal 0 0 -1
    outer loop
      vertex -8.2849 10.2657 0
      vertex -4.60536 12.5736 0
      vertex -4.5 12.5032 0
    endloop
  endfacet
  facet normal 0 0 -1
    outer loop
      vertex -4.5 12.5032 0
      vertex -4.5 14.179 0
      vertex -1.5 14.179 0
    endloop
  endfacet
  facet normal 0 0 -1
    outer loop
      vertex -8.2849 10.2657 0
      vertex -4.5 12.5032 0
      vertex -8.09295 10.3198 0
    endloop
  endfacet
  facet normal 0 0 -1
    outer loop
      vertex -4.5 3.19677 0
      vertex -1.5 14.179 0
      vertex -1.5 1.479 0
    endloop
  endfacet
  facet normal 0 0 -1
    outer loop
      vertex -5.23684 6.69686 0
      vertex -1.5 14.179 0
      vertex -4.5 3.19677 0
    endloop
  endfacet
  facet normal 0 0 -1
    outer loop
      vertex -6.20671 2.46307 0
      vertex -13.0229 7.41534 0
      vertex -5.78805 2.58115 0
    endloop
  endfacet
  facet normal 0 0 -1
    outer loop
      vertex -13.0229 7.41534 0
      vertex -4.5 3.19677 0
      vertex -4.60536 3.12637 0
    endloop
  endfacet
  facet normal 0 0 -1
    outer loop
      vertex -13.0229 7.41534 0
      vertex -4.98489 2.91382 0
      vertex -5.37993 2.73171 0
    endloop
  endfacet
  facet normal 0 0 -1
    outer loop
      vertex -13.0229 7.41534 0
      vertex -5.37993 2.73171 0
      vertex -5.78805 2.58115 0
    endloop
  endfacet
  facet normal 0 0 -1
    outer loop
      vertex -8.47202 5.50335 0
      vertex -4.5 3.19677 0
      vertex -8.65314 5.58684 0
    endloop
  endfacet
  facet normal 0 0 -1
    outer loop
      vertex -13.0229 7.41534 0
      vertex -6.20671 2.46307 0
      vertex -6.63335 2.37821 0
    endloop
  endfacet
  facet normal 0 0 -1
    outer loop
      vertex -13.0229 7.41534 0
      vertex -6.63335 2.37821 0
      vertex -7.06534 2.32708 0
    endloop
  endfacet
  facet normal 0 0 -1
    outer loop
      vertex -13.0229 7.41534 0
      vertex -7.06534 2.32708 0
      vertex -7.5 2.31 0
    endloop
  endfacet
  facet normal 0 0 -1
    outer loop
      vertex -13.0229 7.41534 0
      vertex -7.5 2.31 0
      vertex -7.93466 2.32708 0
    endloop
  endfacet
  facet normal 0 0 -1
    outer loop
      vertex -13.0229 7.41534 0
      vertex -7.93466 2.32708 0
      vertex -8.36665 2.37821 0
    endloop
  endfacet
  facet normal 0 0 -1
    outer loop
      vertex -13.0229 7.41534 0
      vertex -8.36665 2.37821 0
      vertex -8.79329 2.46307 0
    endloop
  endfacet
  facet normal 0 0 -1
    outer loop
      vertex -13.0229 7.41534 0
      vertex -8.79329 2.46307 0
      vertex -9.21195 2.58115 0
    endloop
  endfacet
  facet normal 0 0 -1
    outer loop
      vertex -13.0229 7.41534 0
      vertex -9.21195 2.58115 0
      vertex -9.62007 2.73171 0
    endloop
  endfacet
  facet normal 0 0 -1
    outer loop
      vertex -13.0229 7.41534 0
      vertex -9.62007 2.73171 0
      vertex -10.0151 2.91382 0
    endloop
  endfacet
  facet normal 0 0 -1
    outer loop
      vertex -13.0229 7.41534 0
      vertex -10.0151 2.91382 0
      vertex -10.3946 3.12637 0
    endloop
  endfacet
  facet normal 0 0 -1
    outer loop
      vertex -13.0229 7.41534 0
      vertex -10.3946 3.12637 0
      vertex -10.7563 3.36805 0
    endloop
  endfacet
  facet normal 0 0 -1
    outer loop
      vertex -13.0229 7.41534 0
      vertex -10.7563 3.36805 0
      vertex -11.0979 3.63735 0
    endloop
  endfacet
  facet normal 0 0 -1
    outer loop
      vertex -13.0229 7.41534 0
      vertex -11.0979 3.63735 0
      vertex -11.4174 3.93263 0
    endloop
  endfacet
  facet normal 0 0 -1
    outer loop
      vertex -13.0229 7.41534 0
      vertex -11.4174 3.93263 0
      vertex -11.7126 4.25206 0
    endloop
  endfacet
  facet normal 0 0 -1
    outer loop
      vertex -13.0229 7.41534 0
      vertex -11.7126 4.25206 0
      vertex -11.982 4.59367 0
    endloop
  endfacet
  facet normal 0 0 -1
    outer loop
      vertex -13.0229 7.41534 0
      vertex -11.982 4.59367 0
      vertex -12.2236 4.95536 0
    endloop
  endfacet
  facet normal 0 0 -1
    outer loop
      vertex -13.0229 7.41534 0
      vertex -12.2236 4.95536 0
      vertex -12.4362 5.33489 0
    endloop
  endfacet
  facet normal 0 0 -1
    outer loop
      vertex -13.0229 7.41534 0
      vertex -12.4362 5.33489 0
      vertex -12.6183 5.72993 0
    endloop
  endfacet
  facet normal 0 0 -1
    outer loop
      vertex -13.0229 7.41534 0
      vertex -12.6183 5.72993 0
      vertex -12.7689 6.13805 0
    endloop
  endfacet
  facet normal 0 0 -1
    outer loop
      vertex -13.0229 7.41534 0
      vertex -12.7689 6.13805 0
      vertex -12.8869 6.55671 0
    endloop
  endfacet
  facet normal 0 0 -1
    outer loop
      vertex -13.0229 7.41534 0
      vertex -12.8869 6.55671 0
      vertex -12.9718 6.98335 0
    endloop
  endfacet
  facet normal 0 0 -1
    outer loop
      vertex -8.09295 10.3198 0
      vertex -1.5 14.179 0
      vertex -7.89734 10.3587 0
    endloop
  endfacet
  facet normal 0 0 -1
    outer loop
      vertex -13.0229 7.41534 0
      vertex -10.04 7.85 0
      vertex -10.0322 7.65071 0
    endloop
  endfacet
  facet normal 0 0 -1
    outer loop
      vertex -13.0229 7.41534 0
      vertex -10.0322 7.65071 0
      vertex -10.0087 7.45266 0
    endloop
  endfacet
  facet normal 0 0 -1
    outer loop
      vertex -13.0229 7.41534 0
      vertex -10.0087 7.45266 0
      vertex -9.96982 7.25705 0
    endloop
  endfacet
  facet normal 0 0 -1
    outer loop
      vertex -13.0229 7.41534 0
      vertex -9.96982 7.25705 0
      vertex -9.91568 7.0651 0
    endloop
  endfacet
  facet normal 0 0 -1
    outer loop
      vertex -13.0229 7.41534 0
      vertex -9.91568 7.0651 0
      vertex -9.84665 6.87798 0
    endloop
  endfacet
  facet normal 0 0 -1
    outer loop
      vertex -13.0229 7.41534 0
      vertex -9.84665 6.87798 0
      vertex -9.76316 6.69686 0
    endloop
  endfacet
  facet normal 0 0 -1
    outer loop
      vertex -13.0229 7.41534 0
      vertex -9.76316 6.69686 0
      vertex -9.66571 6.52285 0
    endloop
  endfacet
  facet normal 0 0 -1
    outer loop
      vertex -13.0229 7.41534 0
      vertex -9.66571 6.52285 0
      vertex -9.5549 6.35702 0
    endloop
  endfacet
  facet normal 0 0 -1
    outer loop
      vertex -13.0229 7.41534 0
      vertex -9.5549 6.35702 0
      vertex -9.43143 6.2004 0
    endloop
  endfacet
  facet normal 0 0 -1
    outer loop
      vertex -13.0229 7.41534 0
      vertex -9.43143 6.2004 0
      vertex -9.29605 6.05395 0
    endloop
  endfacet
  facet normal 0 0 -1
    outer loop
      vertex -13.0229 7.41534 0
      vertex -9.29605 6.05395 0
      vertex -9.1496 5.91857 0
    endloop
  endfacet
  facet normal 0 0 -1
    outer loop
      vertex -13.0229 7.41534 0
      vertex -9.1496 5.91857 0
      vertex -8.99297 5.7951 0
    endloop
  endfacet
  facet normal 0 0 -1
    outer loop
      vertex -13.0229 7.41534 0
      vertex -8.99297 5.7951 0
      vertex -8.82715 5.68429 0
    endloop
  endfacet
  facet normal 0 0 -1
    outer loop
      vertex -13.0229 7.41534 0
      vertex -8.82715 5.68429 0
      vertex -4.5 3.19677 0
    endloop
  endfacet
  facet normal 0 0 -1
    outer loop
      vertex -8.82715 5.68429 0
      vertex -8.65314 5.58684 0
      vertex -4.5 3.19677 0
    endloop
  endfacet
  facet normal 0 0 -1
    outer loop
      vertex -8.2849 5.43432 0
      vertex -4.5 3.19677 0
      vertex -8.47202 5.50335 0
    endloop
  endfacet
  facet normal 0 0 -1
    outer loop
      vertex -8.09295 5.38018 0
      vertex -4.5 3.19677 0
      vertex -8.2849 5.43432 0
    endloop
  endfacet
  facet normal 0 0 -1
    outer loop
      vertex -7.89734 5.34127 0
      vertex -4.5 3.19677 0
      vertex -8.09295 5.38018 0
    endloop
  endfacet
  facet normal 0 0 -1
    outer loop
      vertex -7.69929 5.31783 0
      vertex -4.5 3.19677 0
      vertex -7.89734 5.34127 0
    endloop
  endfacet
  facet normal 0 0 -1
    outer loop
      vertex -7.5 5.31 0
      vertex -4.5 3.19677 0
      vertex -7.69929 5.31783 0
    endloop
  endfacet
  facet normal 0 0 -1
    outer loop
      vertex -7.30071 5.31783 0
      vertex -4.5 3.19677 0
      vertex -7.5 5.31 0
    endloop
  endfacet
  facet normal 0 0 -1
    outer loop
      vertex -7.10266 5.34127 0
      vertex -4.5 3.19677 0
      vertex -7.30071 5.31783 0
    endloop
  endfacet
  facet normal 0 0 -1
    outer loop
      vertex -6.90705 5.38018 0
      vertex -4.5 3.19677 0
      vertex -7.10266 5.34127 0
    endloop
  endfacet
  facet normal 0 0 -1
    outer loop
      vertex -6.90705 10.3198 0
      vertex -1.5 14.179 0
      vertex -6.7151 10.2657 0
    endloop
  endfacet
  facet normal 0 0 -1
    outer loop
      vertex -5.08432 7.0651 0
      vertex -1.5 14.179 0
      vertex -5.15335 6.87798 0
    endloop
  endfacet
  facet normal 0 0 -1
    outer loop
      vertex -6.90705 5.38018 0
      vertex -6.7151 5.43432 0
      vertex -4.5 3.19677 0
    endloop
  endfacet
  facet normal 0 0 -1
    outer loop
      vertex -5.03018 8.44295 0
      vertex -1.5 14.179 0
      vertex -4.99127 8.24734 0
    endloop
  endfacet
  facet normal 0 0 -1
    outer loop
      vertex -6.7151 5.43432 0
      vertex -6.52798 5.50335 0
      vertex -4.5 3.19677 0
    endloop
  endfacet
  facet normal 0 0 -1
    outer loop
      vertex -4.99127 8.24734 0
      vertex -1.5 14.179 0
      vertex -4.96783 8.04929 0
    endloop
  endfacet
  facet normal 0 0 -1
    outer loop
      vertex -6.52798 5.50335 0
      vertex -6.34686 5.58684 0
      vertex -4.5 3.19677 0
    endloop
  endfacet
  facet normal 0 0 -1
    outer loop
      vertex -6.34686 5.58684 0
      vertex -6.17285 5.68429 0
      vertex -4.5 3.19677 0
    endloop
  endfacet
  facet normal 0 0 -1
    outer loop
      vertex -4.96783 8.04929 0
      vertex -1.5 14.179 0
      vertex -4.96 7.85 0
    endloop
  endfacet
  facet normal 0 0 -1
    outer loop
      vertex -6.17285 5.68429 0
      vertex -6.00702 5.7951 0
      vertex -4.5 3.19677 0
    endloop
  endfacet
  facet normal 0 0 -1
    outer loop
      vertex -4.96 7.85 0
      vertex -1.5 14.179 0
      vertex -4.96783 7.65071 0
    endloop
  endfacet
  facet normal 0 0 -1
    outer loop
      vertex -6.00702 5.7951 0
      vertex -5.8504 5.91857 0
      vertex -4.5 3.19677 0
    endloop
  endfacet
  facet normal 0 0 -1
    outer loop
      vertex -4.96783 7.65071 0
      vertex -1.5 14.179 0
      vertex -4.99127 7.45266 0
    endloop
  endfacet
  facet normal 0 0 -1
    outer loop
      vertex -5.8504 5.91857 0
      vertex -5.70395 6.05395 0
      vertex -4.5 3.19677 0
    endloop
  endfacet
  facet normal 0 0 -1
    outer loop
      vertex -4.99127 7.45266 0
      vertex -1.5 14.179 0
      vertex -5.03018 7.25705 0
    endloop
  endfacet
  facet normal 0 0 -1
    outer loop
      vertex -5.70395 6.05395 0
      vertex -5.56857 6.2004 0
      vertex -4.5 3.19677 0
    endloop
  endfacet
  facet normal 0 0 -1
    outer loop
      vertex -5.56857 6.2004 0
      vertex -5.4451 6.35702 0
      vertex -4.5 3.19677 0
    endloop
  endfacet
  facet normal 0 0 -1
    outer loop
      vertex -5.03018 7.25705 0
      vertex -1.5 14.179 0
      vertex -5.08432 7.0651 0
    endloop
  endfacet
  facet normal 0 0 -1
    outer loop
      vertex -5.4451 6.35702 0
      vertex -5.33429 6.52285 0
      vertex -4.5 3.19677 0
    endloop
  endfacet
  facet normal 0 0 -1
    outer loop
      vertex -5.15335 6.87798 0
      vertex -1.5 14.179 0
      vertex -5.23684 6.69686 0
    endloop
  endfacet
  facet normal 0 0 -1
    outer loop
      vertex -5.33429 6.52285 0
      vertex -5.23684 6.69686 0
      vertex -4.5 3.19677 0
    endloop
  endfacet
  facet normal 0 0 -1
    outer loop
      vertex -5.08432 8.6349 0
      vertex -1.5 14.179 0
      vertex -5.03018 8.44295 0
    endloop
  endfacet
  facet normal 0 0 -1
    outer loop
      vertex -5.15335 8.82202 0
      vertex -1.5 14.179 0
      vertex -5.08432 8.6349 0
    endloop
  endfacet
  facet normal 0 0 -1
    outer loop
      vertex -5.23684 9.00314 0
      vertex -1.5 14.179 0
      vertex -5.15335 8.82202 0
    endloop
  endfacet
  facet normal 0 0 -1
    outer loop
      vertex -5.33429 9.17715 0
      vertex -1.5 14.179 0
      vertex -5.23684 9.00314 0
    endloop
  endfacet
  facet normal 0 0 -1
    outer loop
      vertex -5.4451 9.34297 0
      vertex -1.5 14.179 0
      vertex -5.33429 9.17715 0
    endloop
  endfacet
  facet normal 0 0 -1
    outer loop
      vertex -5.56857 9.4996 0
      vertex -1.5 14.179 0
      vertex -5.4451 9.34297 0
    endloop
  endfacet
  facet normal 0 0 -1
    outer loop
      vertex -5.70395 9.64605 0
      vertex -1.5 14.179 0
      vertex -5.56857 9.4996 0
    endloop
  endfacet
  facet normal 0 0 -1
    outer loop
      vertex -5.8504 9.78143 0
      vertex -1.5 14.179 0
      vertex -5.70395 9.64605 0
    endloop
  endfacet
  facet normal 0 0 -1
    outer loop
      vertex -6.00702 9.9049 0
      vertex -1.5 14.179 0
      vertex -5.8504 9.78143 0
    endloop
  endfacet
  facet normal 0 0 -1
    outer loop
      vertex -6.17285 10.0157 0
      vertex -1.5 14.179 0
      vertex -6.00702 9.9049 0
    endloop
  endfacet
  facet normal 0 0 -1
    outer loop
      vertex -6.34686 10.1132 0
      vertex -1.5 14.179 0
      vertex -6.17285 10.0157 0
    endloop
  endfacet
  facet normal 0 0 -1
    outer loop
      vertex -6.52798 10.1967 0
      vertex -1.5 14.179 0
      vertex -6.34686 10.1132 0
    endloop
  endfacet
  facet normal 0 0 -1
    outer loop
      vertex -6.7151 10.2657 0
      vertex -1.5 14.179 0
      vertex -6.52798 10.1967 0
    endloop
  endfacet
  facet normal 0 0 -1
    outer loop
      vertex -9.5549 9.34297 0
      vertex -13.0229 7.41534 0
      vertex -9.43143 9.4996 0
    endloop
  endfacet
  facet normal 0 0 -1
    outer loop
      vertex -7.10266 10.3587 0
      vertex -1.5 14.179 0
      vertex -6.90705 10.3198 0
    endloop
  endfacet
  facet normal 0 0 -1
    outer loop
      vertex -7.30071 10.3822 0
      vertex -1.5 14.179 0
      vertex -7.10266 10.3587 0
    endloop
  endfacet
  facet normal 0 0 -1
    outer loop
      vertex -7.5 10.39 0
      vertex -1.5 14.179 0
      vertex -7.30071 10.3822 0
    endloop
  endfacet
  facet normal 0 0 -1
    outer loop
      vertex -7.69929 10.3822 0
      vertex -1.5 14.179 0
      vertex -7.5 10.39 0
    endloop
  endfacet
  facet normal 0 0 -1
    outer loop
      vertex -7.89734 10.3587 0
      vertex -1.5 14.179 0
      vertex -7.69929 10.3822 0
    endloop
  endfacet
  facet normal 0 0 -1
    outer loop
      vertex -4.5 12.5032 0
      vertex -1.5 14.179 0
      vertex -8.09295 10.3198 0
    endloop
  endfacet
  facet normal 0 0 -1
    outer loop
      vertex -8.47202 10.1967 0
      vertex -4.60536 12.5736 0
      vertex -8.2849 10.2657 0
    endloop
  endfacet
  facet normal 0 0 -1
    outer loop
      vertex -8.65314 10.1132 0
      vertex -4.60536 12.5736 0
      vertex -8.47202 10.1967 0
    endloop
  endfacet
  facet normal 0 0 -1
    outer loop
      vertex -8.82715 10.0157 0
      vertex -4.98489 12.7862 0
      vertex -8.65314 10.1132 0
    endloop
  endfacet
  facet normal 0 0 -1
    outer loop
      vertex -9.1496 9.78143 0
      vertex -13.0229 7.41534 0
      vertex -8.99297 9.9049 0
    endloop
  endfacet
  facet normal 0 0 -1
    outer loop
      vertex -13.0229 7.41534 0
      vertex -4.98489 12.7862 0
      vertex -8.82715 10.0157 0
    endloop
  endfacet
  facet normal 0 0 -1
    outer loop
      vertex -13.0229 7.41534 0
      vertex -8.82715 10.0157 0
      vertex -8.99297 9.9049 0
    endloop
  endfacet
  facet normal 0 0 -1
    outer loop
      vertex -9.29605 9.64605 0
      vertex -13.0229 7.41534 0
      vertex -9.1496 9.78143 0
    endloop
  endfacet
  facet normal 0 0 -1
    outer loop
      vertex -9.43143 9.4996 0
      vertex -13.0229 7.41534 0
      vertex -9.29605 9.64605 0
    endloop
  endfacet
  facet normal 0 0 -1
    outer loop
      vertex -9.66571 9.17715 0
      vertex -13.0229 7.41534 0
      vertex -9.5549 9.34297 0
    endloop
  endfacet
  facet normal 0 0 -1
    outer loop
      vertex -9.76316 9.00314 0
      vertex -13.0229 7.41534 0
      vertex -9.66571 9.17715 0
    endloop
  endfacet
  facet normal 0 0 -1
    outer loop
      vertex -9.84665 8.82202 0
      vertex -13.0229 7.41534 0
      vertex -9.76316 9.00314 0
    endloop
  endfacet
  facet normal 0 0 -1
    outer loop
      vertex -13.0229 7.41534 0
      vertex -9.84665 8.82202 0
      vertex -9.91568 8.6349 0
    endloop
  endfacet
  facet normal 0 0 -1
    outer loop
      vertex -13.0229 7.41534 0
      vertex -9.91568 8.6349 0
      vertex -9.96982 8.44295 0
    endloop
  endfacet
  facet normal 0 0 -1
    outer loop
      vertex -13.0229 7.41534 0
      vertex -9.96982 8.44295 0
      vertex -10.0087 8.24734 0
    endloop
  endfacet
  facet normal 0 0 -1
    outer loop
      vertex -13.0229 7.41534 0
      vertex -10.0087 8.24734 0
      vertex -10.0322 8.04929 0
    endloop
  endfacet
  facet normal 0 0 -1
    outer loop
      vertex -13.0229 7.41534 0
      vertex -10.0322 8.04929 0
      vertex -10.04 7.85 0
    endloop
  endfacet
  facet normal 0 0 -1
    outer loop
      vertex -4.5 3.19677 0
      vertex -1.5 1.479 0
      vertex -4.5 1.479 0
    endloop
  endfacet
  facet normal 0 0 -1
    outer loop
      vertex -4.98489 2.91382 0
      vertex -13.0229 7.41534 0
      vertex -4.60536 3.12637 0
    endloop
  endfacet
  facet normal -0.999229 0.0392599 0
    outer loop
      vertex -13.04 7.85 0
      vertex -13.04 7.85 2.032
      vertex -13.0229 8.28466 0
    endloop
  endfacet
  facet normal -0.999229 0.0392599 0
    outer loop
      vertex -13.0229 8.28466 0
      vertex -13.04 7.85 2.032
      vertex -13.0229 8.28466 2.032
    endloop
  endfacet
  facet normal -0.999229 -0.0392599 0
    outer loop
      vertex -13.04 7.85 0
      vertex -13.0229 7.41534 0
      vertex -13.04 7.85 2.032
    endloop
  endfacet
  facet normal -0.999229 -0.0392599 0
    outer loop
      vertex -13.04 7.85 2.032
      vertex -13.0229 7.41534 0
      vertex -13.0229 7.41534 2.032
    endloop
  endfacet
  facet normal -0.993068 -0.117538 0
    outer loop
      vertex -13.0229 7.41534 0
      vertex -12.9718 6.98335 0
      vertex -13.0229 7.41534 2.032
    endloop
  endfacet
  facet normal -0.993068 -0.117538 0
    outer loop
      vertex -13.0229 7.41534 2.032
      vertex -12.9718 6.98335 0
      vertex -12.9718 6.98335 2.032
    endloop
  endfacet
  facet normal -0.980785 -0.19509 0
    outer loop
      vertex -12.9718 6.98335 0
      vertex -12.8869 6.55671 0
      vertex -12.9718 6.98335 2.032
    endloop
  endfacet
  facet normal -0.980785 -0.19509 0
    outer loop
      vertex -12.9718 6.98335 2.032
      vertex -12.8869 6.55671 0
      vertex -12.8869 6.55671 2.032
    endloop
  endfacet
  facet normal -0.962455 -0.27144 0
    outer loop
      vertex -12.8869 6.55671 0
      vertex -12.7689 6.13805 0
      vertex -12.8869 6.55671 2.032
    endloop
  endfacet
  facet normal -0.962455 -0.27144 0
    outer loop
      vertex -12.8869 6.55671 2.032
      vertex -12.7689 6.13805 0
      vertex -12.7689 6.13805 2.032
    endloop
  endfacet
  facet normal -0.938192 -0.346116 0
    outer loop
      vertex -12.7689 6.13805 0
      vertex -12.6183 5.72993 0
      vertex -12.7689 6.13805 2.032
    endloop
  endfacet
  facet normal -0.938192 -0.346116 0
    outer loop
      vertex -12.7689 6.13805 2.032
      vertex -12.6183 5.72993 0
      vertex -12.6183 5.72993 2.032
    endloop
  endfacet
  facet normal -0.908143 -0.418661 0
    outer loop
      vertex -12.6183 5.72993 0
      vertex -12.4362 5.33489 0
      vertex -12.6183 5.72993 2.032
    endloop
  endfacet
  facet normal -0.908143 -0.418661 0
    outer loop
      vertex -12.6183 5.72993 2.032
      vertex -12.4362 5.33489 0
      vertex -12.4362 5.33489 2.032
    endloop
  endfacet
  facet normal -0.872497 -0.48862 0
    outer loop
      vertex -12.4362 5.33489 0
      vertex -12.2236 4.95536 0
      vertex -12.4362 5.33489 2.032
    endloop
  endfacet
  facet normal -0.872497 -0.48862 0
    outer loop
      vertex -12.4362 5.33489 2.032
      vertex -12.2236 4.95536 0
      vertex -12.2236 4.95536 2.032
    endloop
  endfacet
  facet normal -0.831469 -0.555572 0
    outer loop
      vertex -12.2236 4.95536 0
      vertex -11.982 4.59367 0
      vertex -12.2236 4.95536 2.032
    endloop
  endfacet
  facet normal -0.831469 -0.555572 0
    outer loop
      vertex -12.2236 4.95536 2.032
      vertex -11.982 4.59367 0
      vertex -11.982 4.59367 2.032
    endloop
  endfacet
  facet normal -0.785317 -0.619094 0
    outer loop
      vertex -11.982 4.59367 0
      vertex -11.7126 4.25206 0
      vertex -11.982 4.59367 2.032
    endloop
  endfacet
  facet normal -0.785317 -0.619094 0
    outer loop
      vertex -11.982 4.59367 2.032
      vertex -11.7126 4.25206 0
      vertex -11.7126 4.25206 2.032
    endloop
  endfacet
  facet normal -0.734324 -0.678799 0
    outer loop
      vertex -11.7126 4.25206 0
      vertex -11.4174 3.93263 0
      vertex -11.7126 4.25206 2.032
    endloop
  endfacet
  facet normal -0.734324 -0.678799 0
    outer loop
      vertex -11.7126 4.25206 2.032
      vertex -11.4174 3.93263 0
      vertex -11.4174 3.93263 2.032
    endloop
  endfacet
  facet normal -0.678799 -0.734324 0
    outer loop
      vertex -11.4174 3.93263 2.032
      vertex -11.4174 3.93263 0
      vertex -11.0979 3.63735 0
    endloop
  endfacet
  facet normal -0.678799 -0.734324 0
    outer loop
      vertex -11.0979 3.63735 2.032
      vertex -11.4174 3.93263 2.032
      vertex -11.0979 3.63735 0
    endloop
  endfacet
  facet normal -0.619094 -0.785317 0
    outer loop
      vertex -11.0979 3.63735 2.032
      vertex -11.0979 3.63735 0
      vertex -10.7563 3.36805 0
    endloop
  endfacet
  facet normal -0.619094 -0.785317 0
    outer loop
      vertex -10.7563 3.36805 2.032
      vertex -11.0979 3.63735 2.032
      vertex -10.7563 3.36805 0
    endloop
  endfacet
  facet normal -0.555572 -0.831469 0
    outer loop
      vertex -10.7563 3.36805 2.032
      vertex -10.7563 3.36805 0
      vertex -10.3946 3.12637 0
    endloop
  endfacet
  facet normal -0.555572 -0.831469 0
    outer loop
      vertex -10.3946 3.12637 2.032
      vertex -10.7563 3.36805 2.032
      vertex -10.3946 3.12637 0
    endloop
  endfacet
  facet normal -0.48862 -0.872497 0
    outer loop
      vertex -10.3946 3.12637 2.032
      vertex -10.3946 3.12637 0
      vertex -10.0151 2.91382 0
    endloop
  endfacet
  facet normal -0.48862 -0.872497 0
    outer loop
      vertex -10.0151 2.91382 2.032
      vertex -10.3946 3.12637 2.032
      vertex -10.0151 2.91382 0
    endloop
  endfacet
  facet normal -0.418661 -0.908143 0
    outer loop
      vertex -10.0151 2.91382 2.032
      vertex -10.0151 2.91382 0
      vertex -9.62007 2.73171 0
    endloop
  endfacet
  facet normal -0.418661 -0.908143 0
    outer loop
      vertex -9.62007 2.73171 2.032
      vertex -10.0151 2.91382 2.032
      vertex -9.62007 2.73171 0
    endloop
  endfacet
  facet normal -0.346116 -0.938192 0
    outer loop
      vertex -9.62007 2.73171 2.032
      vertex -9.62007 2.73171 0
      vertex -9.21195 2.58115 0
    endloop
  endfacet
  facet normal -0.346116 -0.938192 0
    outer loop
      vertex -9.21195 2.58115 2.032
      vertex -9.62007 2.73171 2.032
      vertex -9.21195 2.58115 0
    endloop
  endfacet
  facet normal -0.27144 -0.962455 0
    outer loop
      vertex -9.21195 2.58115 2.032
      vertex -9.21195 2.58115 0
      vertex -8.79329 2.46307 0
    endloop
  endfacet
  facet normal -0.27144 -0.962455 0
    outer loop
      vertex -8.79329 2.46307 2.032
      vertex -9.21195 2.58115 2.032
      vertex -8.79329 2.46307 0
    endloop
  endfacet
  facet normal -0.19509 -0.980785 0
    outer loop
      vertex -8.79329 2.46307 2.032
      vertex -8.79329 2.46307 0
      vertex -8.36665 2.37821 0
    endloop
  endfacet
  facet normal -0.19509 -0.980785 0
    outer loop
      vertex -8.36665 2.37821 2.032
      vertex -8.79329 2.46307 2.032
      vertex -8.36665 2.37821 0
    endloop
  endfacet
  facet normal -0.117538 -0.993068 0
    outer loop
      vertex -8.36665 2.37821 2.032
      vertex -8.36665 2.37821 0
      vertex -7.93466 2.32708 0
    endloop
  endfacet
  facet normal -0.117538 -0.993068 0
    outer loop
      vertex -7.93466 2.32708 2.032
      vertex -8.36665 2.37821 2.032
      vertex -7.93466 2.32708 0
    endloop
  endfacet
  facet normal -0.0392599 -0.999229 0
    outer loop
      vertex -7.93466 2.32708 2.032
      vertex -7.93466 2.32708 0
      vertex -7.5 2.31 0
    endloop
  endfacet
  facet normal -0.0392599 -0.999229 0
    outer loop
      vertex -7.5 2.31 2.032
      vertex -7.93466 2.32708 2.032
      vertex -7.5 2.31 0
    endloop
  endfacet
  facet normal 0.0392599 -0.999229 0
    outer loop
      vertex -7.5 2.31 2.032
      vertex -7.5 2.31 0
      vertex -7.06534 2.32708 0
    endloop
  endfacet
  facet normal 0.0392599 -0.999229 0
    outer loop
      vertex -7.06534 2.32708 2.032
      vertex -7.5 2.31 2.032
      vertex -7.06534 2.32708 0
    endloop
  endfacet
  facet normal 0.117538 -0.993068 0
    outer loop
      vertex -7.06534 2.32708 2.032
      vertex -7.06534 2.32708 0
      vertex -6.63335 2.37821 0
    endloop
  endfacet
  facet normal 0.117538 -0.993068 0
    outer loop
      vertex -6.63335 2.37821 2.032
      vertex -7.06534 2.32708 2.032
      vertex -6.63335 2.37821 0
    endloop
  endfacet
  facet normal 0.19509 -0.980785 0
    outer loop
      vertex -6.63335 2.37821 2.032
      vertex -6.63335 2.37821 0
      vertex -6.20671 2.46307 0
    endloop
  endfacet
  facet normal 0.19509 -0.980785 0
    outer loop
      vertex -6.20671 2.46307 2.032
      vertex -6.63335 2.37821 2.032
      vertex -6.20671 2.46307 0
    endloop
  endfacet
  facet normal 0.27144 -0.962455 0
    outer loop
      vertex -6.20671 2.46307 2.032
      vertex -6.20671 2.46307 0
      vertex -5.78805 2.58115 0
    endloop
  endfacet
  facet normal 0.27144 -0.962455 0
    outer loop
      vertex -5.78805 2.58115 2.032
      vertex -6.20671 2.46307 2.032
      vertex -5.78805 2.58115 0
    endloop
  endfacet
  facet normal 0.346116 -0.938192 0
    outer loop
      vertex -5.78805 2.58115 2.032
      vertex -5.78805 2.58115 0
      vertex -5.37993 2.73171 0
    endloop
  endfacet
  facet normal 0.346116 -0.938192 0
    outer loop
      vertex -5.37993 2.73171 2.032
      vertex -5.78805 2.58115 2.032
      vertex -5.37993 2.73171 0
    endloop
  endfacet
  facet normal 0.418661 -0.908143 0
    outer loop
      vertex -5.37993 2.73171 2.032
      vertex -5.37993 2.73171 0
      vertex -4.98489 2.91382 0
    endloop
  endfacet
  facet normal 0.418661 -0.908143 0
    outer loop
      vertex -4.98489 2.91382 2.032
      vertex -5.37993 2.73171 2.032
      vertex -4.98489 2.91382 0
    endloop
  endfacet
  facet normal 0.48862 -0.872497 0
    outer loop
      vertex -4.98489 2.91382 2.032
      vertex -4.98489 2.91382 0
      vertex -4.60536 3.12637 0
    endloop
  endfacet
  facet normal 0.48862 -0.872497 0
    outer loop
      vertex -4.60536 3.12637 2.032
      vertex -4.98489 2.91382 2.032
      vertex -4.60536 3.12637 0
    endloop
  endfacet
  facet normal 0.555572 -0.831469 0
    outer loop
      vertex -4.60536 3.12637 2.032
      vertex -4.60536 3.12637 0
      vertex -4.5 3.19677 0
    endloop
  endfacet
  facet normal 0.555572 -0.831469 0
    outer loop
      vertex -4.5 3.19677 2.032
      vertex -4.60536 3.12637 2.032
      vertex -4.5 3.19677 0
    endloop
  endfacet
  facet normal -1 0 0
    outer loop
      vertex -4.5 1.479 0
      vertex -4.5 1.479 3.048
      vertex -4.5 3.19677 0
    endloop
  endfacet
  facet normal -1 0 0
    outer loop
      vertex -4.5 3.19677 2.032
      vertex -4.5 1.479 3.048
      vertex -4.5 14.179 3.048
    endloop
  endfacet
  facet normal -1 0 0
    outer loop
      vertex -4.5 12.5032 0
      vertex -4.5 14.179 3.048
      vertex -4.5 14.179 0
    endloop
  endfacet
  facet normal -1 0 0
    outer loop
      vertex -4.5 12.5032 2.032
      vertex -4.5 14.179 3.048
      vertex -4.5 12.5032 0
    endloop
  endfacet
  facet normal -1 0 0
    outer loop
      vertex -4.5 3.19677 0
      vertex -4.5 1.479 3.048
      vertex -4.5 3.19677 2.032
    endloop
  endfacet
  facet normal -1 0 0
    outer loop
      vertex -4.5 3.19677 2.032
      vertex -4.5 14.179 3.048
      vertex -4.5 12.5032 2.032
    endloop
  endfacet
  facet normal 0 -1 0
    outer loop
      vertex -3 1.479 0.01
      vertex -4.5 1.479 0
      vertex -1.5 1.479 0
    endloop
  endfacet
  facet normal 0 -1 0
    outer loop
      vertex -3 1.479 0.01
      vertex -3 1.479 3.048
      vertex -4.5 1.479 3.048
    endloop
  endfacet
  facet normal 0 -1 0
    outer loop
      vertex -4.5 1.479 3.048
      vertex -4.5 1.479 0
      vertex -3 1.479 0.01
    endloop
  endfacet
  facet normal 0 -1 0
    outer loop
      vertex -1.5 1.479 0.01
      vertex -3 1.479 0.01
      vertex -1.5 1.479 0
    endloop
  endfacet
  facet normal 1 0 0
    outer loop
      vertex -1.5 1.479 0.01
      vertex -1.5 1.479 0
      vertex -1.5 14.179 0
    endloop
  endfacet
  facet normal 1 0 0
    outer loop
      vertex -1.5 14.179 0.01
      vertex -1.5 1.479 0.01
      vertex -1.5 14.179 0
    endloop
  endfacet
  facet normal 0 1 0
    outer loop
      vertex -1.5 14.179 0.01
      vertex -1.5 14.179 0
      vertex -3 14.179 0.01
    endloop
  endfacet
  facet normal 0 1 0
    outer loop
      vertex -4.5 14.179 0
      vertex -4.5 14.179 3.048
      vertex -3 14.179 0.01
    endloop
  endfacet
  facet normal 0 1 0
    outer loop
      vertex -4.5 14.179 0
      vertex -3 14.179 0.01
      vertex -1.5 14.179 0
    endloop
  endfacet
  facet normal 0 1 0
    outer loop
      vertex -3 14.179 0.01
      vertex -4.5 14.179 3.048
      vertex -3 14.179 3.048
    endloop
  endfacet
  facet normal 0.555572 0.831469 0
    outer loop
      vertex -4.60536 12.5736 0
      vertex -4.60536 12.5736 2.032
      vertex -4.5 12.5032 0
    endloop
  endfacet
  facet normal 0.555572 0.831469 0
    outer loop
      vertex -4.5 12.5032 0
      vertex -4.60536 12.5736 2.032
      vertex -4.5 12.5032 2.032
    endloop
  endfacet
  facet normal 0.48862 0.872497 0
    outer loop
      vertex -4.98489 12.7862 0
      vertex -4.98489 12.7862 2.032
      vertex -4.60536 12.5736 0
    endloop
  endfacet
  facet normal 0.48862 0.872497 0
    outer loop
      vertex -4.60536 12.5736 0
      vertex -4.98489 12.7862 2.032
      vertex -4.60536 12.5736 2.032
    endloop
  endfacet
  facet normal 0.418661 0.908143 0
    outer loop
      vertex -5.37993 12.9683 0
      vertex -5.37993 12.9683 2.032
      vertex -4.98489 12.7862 0
    endloop
  endfacet
  facet normal 0.418661 0.908143 0
    outer loop
      vertex -4.98489 12.7862 0
      vertex -5.37993 12.9683 2.032
      vertex -4.98489 12.7862 2.032
    endloop
  endfacet
  facet normal 0.346116 0.938192 0
    outer loop
      vertex -5.78805 13.1189 0
      vertex -5.78805 13.1189 2.032
      vertex -5.37993 12.9683 0
    endloop
  endfacet
  facet normal 0.346116 0.938192 0
    outer loop
      vertex -5.37993 12.9683 0
      vertex -5.78805 13.1189 2.032
      vertex -5.37993 12.9683 2.032
    endloop
  endfacet
  facet normal 0.27144 0.962455 0
    outer loop
      vertex -6.20671 13.2369 0
      vertex -6.20671 13.2369 2.032
      vertex -5.78805 13.1189 0
    endloop
  endfacet
  facet normal 0.27144 0.962455 0
    outer loop
      vertex -5.78805 13.1189 0
      vertex -6.20671 13.2369 2.032
      vertex -5.78805 13.1189 2.032
    endloop
  endfacet
  facet normal 0.19509 0.980785 0
    outer loop
      vertex -6.63335 13.3218 0
      vertex -6.63335 13.3218 2.032
      vertex -6.20671 13.2369 0
    endloop
  endfacet
  facet normal 0.19509 0.980785 0
    outer loop
      vertex -6.20671 13.2369 0
      vertex -6.63335 13.3218 2.032
      vertex -6.20671 13.2369 2.032
    endloop
  endfacet
  facet normal 0.117538 0.993068 0
    outer loop
      vertex -7.06534 13.3729 0
      vertex -7.06534 13.3729 2.032
      vertex -6.63335 13.3218 0
    endloop
  endfacet
  facet normal 0.117538 0.993068 0
    outer loop
      vertex -6.63335 13.3218 0
      vertex -7.06534 13.3729 2.032
      vertex -6.63335 13.3218 2.032
    endloop
  endfacet
  facet normal 0.0392599 0.999229 0
    outer loop
      vertex -7.5 13.39 0
      vertex -7.5 13.39 2.032
      vertex -7.06534 13.3729 0
    endloop
  endfacet
  facet normal 0.0392599 0.999229 0
    outer loop
      vertex -7.06534 13.3729 0
      vertex -7.5 13.39 2.032
      vertex -7.06534 13.3729 2.032
    endloop
  endfacet
  facet normal -0.0392599 0.999229 0
    outer loop
      vertex -7.93466 13.3729 0
      vertex -7.93466 13.3729 2.032
      vertex -7.5 13.39 0
    endloop
  endfacet
  facet normal -0.0392599 0.999229 0
    outer loop
      vertex -7.5 13.39 0
      vertex -7.93466 13.3729 2.032
      vertex -7.5 13.39 2.032
    endloop
  endfacet
  facet normal -0.117538 0.993068 0
    outer loop
      vertex -8.36665 13.3218 0
      vertex -8.36665 13.3218 2.032
      vertex -7.93466 13.3729 0
    endloop
  endfacet
  facet normal -0.117538 0.993068 0
    outer loop
      vertex -7.93466 13.3729 0
      vertex -8.36665 13.3218 2.032
      vertex -7.93466 13.3729 2.032
    endloop
  endfacet
  facet normal -0.19509 0.980785 0
    outer loop
      vertex -8.79329 13.2369 0
      vertex -8.79329 13.2369 2.032
      vertex -8.36665 13.3218 0
    endloop
  endfacet
  facet normal -0.19509 0.980785 0
    outer loop
      vertex -8.36665 13.3218 0
      vertex -8.79329 13.2369 2.032
      vertex -8.36665 13.3218 2.032
    endloop
  endfacet
  facet normal -0.27144 0.962455 0
    outer loop
      vertex -9.21195 13.1189 0
      vertex -9.21195 13.1189 2.032
      vertex -8.79329 13.2369 0
    endloop
  endfacet
  facet normal -0.27144 0.962455 0
    outer loop
      vertex -8.79329 13.2369 0
      vertex -9.21195 13.1189 2.032
      vertex -8.79329 13.2369 2.032
    endloop
  endfacet
  facet normal -0.346116 0.938192 0
    outer loop
      vertex -9.62007 12.9683 0
      vertex -9.62007 12.9683 2.032
      vertex -9.21195 13.1189 0
    endloop
  endfacet
  facet normal -0.346116 0.938192 0
    outer loop
      vertex -9.21195 13.1189 0
      vertex -9.62007 12.9683 2.032
      vertex -9.21195 13.1189 2.032
    endloop
  endfacet
  facet normal -0.418661 0.908143 0
    outer loop
      vertex -10.0151 12.7862 0
      vertex -10.0151 12.7862 2.032
      vertex -9.62007 12.9683 0
    endloop
  endfacet
  facet normal -0.418661 0.908143 0
    outer loop
      vertex -9.62007 12.9683 0
      vertex -10.0151 12.7862 2.032
      vertex -9.62007 12.9683 2.032
    endloop
  endfacet
  facet normal -0.48862 0.872497 0
    outer loop
      vertex -10.3946 12.5736 0
      vertex -10.3946 12.5736 2.032
      vertex -10.0151 12.7862 0
    endloop
  endfacet
  facet normal -0.48862 0.872497 0
    outer loop
      vertex -10.0151 12.7862 0
      vertex -10.3946 12.5736 2.032
      vertex -10.0151 12.7862 2.032
    endloop
  endfacet
  facet normal -0.555572 0.831469 0
    outer loop
      vertex -10.7563 12.332 0
      vertex -10.7563 12.332 2.032
      vertex -10.3946 12.5736 0
    endloop
  endfacet
  facet normal -0.555572 0.831469 0
    outer loop
      vertex -10.3946 12.5736 0
      vertex -10.7563 12.332 2.032
      vertex -10.3946 12.5736 2.032
    endloop
  endfacet
  facet normal -0.619094 0.785317 0
    outer loop
      vertex -11.0979 12.0626 0
      vertex -11.0979 12.0626 2.032
      vertex -10.7563 12.332 0
    endloop
  endfacet
  facet normal -0.619094 0.785317 0
    outer loop
      vertex -10.7563 12.332 0
      vertex -11.0979 12.0626 2.032
      vertex -10.7563 12.332 2.032
    endloop
  endfacet
  facet normal -0.678799 0.734324 0
    outer loop
      vertex -11.4174 11.7674 0
      vertex -11.4174 11.7674 2.032
      vertex -11.0979 12.0626 0
    endloop
  endfacet
  facet normal -0.678799 0.734324 0
    outer loop
      vertex -11.0979 12.0626 0
      vertex -11.4174 11.7674 2.032
      vertex -11.0979 12.0626 2.032
    endloop
  endfacet
  facet normal -0.734324 0.678799 0
    outer loop
      vertex -11.7126 11.4479 0
      vertex -11.7126 11.4479 2.032
      vertex -11.4174 11.7674 0
    endloop
  endfacet
  facet normal -0.734324 0.678799 0
    outer loop
      vertex -11.4174 11.7674 0
      vertex -11.7126 11.4479 2.032
      vertex -11.4174 11.7674 2.032
    endloop
  endfacet
  facet normal -0.785317 0.619094 0
    outer loop
      vertex -11.982 11.1063 0
      vertex -11.982 11.1063 2.032
      vertex -11.7126 11.4479 0
    endloop
  endfacet
  facet normal -0.785317 0.619094 0
    outer loop
      vertex -11.7126 11.4479 0
      vertex -11.982 11.1063 2.032
      vertex -11.7126 11.4479 2.032
    endloop
  endfacet
  facet normal -0.831469 0.555572 0
    outer loop
      vertex -12.2236 10.7446 0
      vertex -12.2236 10.7446 2.032
      vertex -11.982 11.1063 0
    endloop
  endfacet
  facet normal -0.831469 0.555572 0
    outer loop
      vertex -11.982 11.1063 0
      vertex -12.2236 10.7446 2.032
      vertex -11.982 11.1063 2.032
    endloop
  endfacet
  facet normal -0.872497 0.48862 0
    outer loop
      vertex -12.4362 10.3651 0
      vertex -12.4362 10.3651 2.032
      vertex -12.2236 10.7446 0
    endloop
  endfacet
  facet normal -0.872497 0.48862 0
    outer loop
      vertex -12.2236 10.7446 0
      vertex -12.4362 10.3651 2.032
      vertex -12.2236 10.7446 2.032
    endloop
  endfacet
  facet normal -0.908143 0.418661 0
    outer loop
      vertex -12.6183 9.97007 0
      vertex -12.6183 9.97007 2.032
      vertex -12.4362 10.3651 0
    endloop
  endfacet
  facet normal -0.908143 0.418661 0
    outer loop
      vertex -12.4362 10.3651 0
      vertex -12.6183 9.97007 2.032
      vertex -12.4362 10.3651 2.032
    endloop
  endfacet
  facet normal -0.938192 0.346116 0
    outer loop
      vertex -12.7689 9.56195 0
      vertex -12.7689 9.56195 2.032
      vertex -12.6183 9.97007 0
    endloop
  endfacet
  facet normal -0.938192 0.346116 0
    outer loop
      vertex -12.6183 9.97007 0
      vertex -12.7689 9.56195 2.032
      vertex -12.6183 9.97007 2.032
    endloop
  endfacet
  facet normal -0.962455 0.27144 0
    outer loop
      vertex -12.8869 9.14329 0
      vertex -12.8869 9.14329 2.032
      vertex -12.7689 9.56195 0
    endloop
  endfacet
  facet normal -0.962455 0.27144 0
    outer loop
      vertex -12.7689 9.56195 0
      vertex -12.8869 9.14329 2.032
      vertex -12.7689 9.56195 2.032
    endloop
  endfacet
  facet normal -0.980785 0.19509 0
    outer loop
      vertex -12.9718 8.71665 0
      vertex -12.9718 8.71665 2.032
      vertex -12.8869 9.14329 0
    endloop
  endfacet
  facet normal -0.980785 0.19509 0
    outer loop
      vertex -12.8869 9.14329 0
      vertex -12.9718 8.71665 2.032
      vertex -12.8869 9.14329 2.032
    endloop
  endfacet
  facet normal -0.993068 0.117538 0
    outer loop
      vertex -13.0229 8.28466 0
      vertex -13.0229 8.28466 2.032
      vertex -12.9718 8.71665 0
    endloop
  endfacet
  facet normal -0.993068 0.117538 0
    outer loop
      vertex -12.9718 8.71665 0
      vertex -13.0229 8.28466 2.032
      vertex -12.9718 8.71665 2.032
    endloop
  endfacet
  facet normal 0.999229 -0.03926 0
    outer loop
      vertex -10.0322 8.04929 0
      vertex -10.0322 8.04929 2.032
      vertex -10.04 7.85 2.032
    endloop
  endfacet
  facet normal 0.999229 -0.03926 0
    outer loop
      vertex -10.04 7.85 0
      vertex -10.0322 8.04929 0
      vertex -10.04 7.85 2.032
    endloop
  endfacet
  facet normal 0.999229 0.03926 0
    outer loop
      vertex -10.04 7.85 2.032
      vertex -10.0322 7.65071 2.032
      vertex -10.0322 7.65071 0
    endloop
  endfacet
  facet normal 0.999229 0.03926 0
    outer loop
      vertex -10.04 7.85 0
      vertex -10.04 7.85 2.032
      vertex -10.0322 7.65071 0
    endloop
  endfacet
  facet normal 0.993068 -0.117539 0
    outer loop
      vertex -10.0087 8.24734 0
      vertex -10.0087 8.24734 2.032
      vertex -10.0322 8.04929 2.032
    endloop
  endfacet
  facet normal 0.993068 -0.117539 0
    outer loop
      vertex -10.0322 8.04929 0
      vertex -10.0087 8.24734 0
      vertex -10.0322 8.04929 2.032
    endloop
  endfacet
  facet normal 0.980786 -0.195087 0
    outer loop
      vertex -9.96982 8.44295 0
      vertex -9.96982 8.44295 2.032
      vertex -10.0087 8.24734 2.032
    endloop
  endfacet
  facet normal 0.980786 -0.195087 0
    outer loop
      vertex -10.0087 8.24734 0
      vertex -9.96982 8.44295 0
      vertex -10.0087 8.24734 2.032
    endloop
  endfacet
  facet normal 0.962455 -0.27144 0
    outer loop
      vertex -9.91568 8.6349 0
      vertex -9.91568 8.6349 2.032
      vertex -9.96982 8.44295 2.032
    endloop
  endfacet
  facet normal 0.962455 -0.27144 0
    outer loop
      vertex -9.96982 8.44295 0
      vertex -9.91568 8.6349 0
      vertex -9.96982 8.44295 2.032
    endloop
  endfacet
  facet normal 0.938191 -0.346119 0
    outer loop
      vertex -9.84665 8.82202 0
      vertex -9.84665 8.82202 2.032
      vertex -9.91568 8.6349 2.032
    endloop
  endfacet
  facet normal 0.938191 -0.346119 0
    outer loop
      vertex -9.91568 8.6349 0
      vertex -9.84665 8.82202 0
      vertex -9.91568 8.6349 2.032
    endloop
  endfacet
  facet normal 0.908144 -0.418658 0
    outer loop
      vertex -9.76316 9.00314 0
      vertex -9.76316 9.00314 2.032
      vertex -9.84665 8.82202 2.032
    endloop
  endfacet
  facet normal 0.908144 -0.418658 0
    outer loop
      vertex -9.84665 8.82202 0
      vertex -9.76316 9.00314 0
      vertex -9.84665 8.82202 2.032
    endloop
  endfacet
  facet normal 0.872494 -0.488624 0
    outer loop
      vertex -9.66571 9.17715 0
      vertex -9.66571 9.17715 2.032
      vertex -9.76316 9.00314 2.032
    endloop
  endfacet
  facet normal 0.872494 -0.488624 0
    outer loop
      vertex -9.76316 9.00314 0
      vertex -9.66571 9.17715 0
      vertex -9.76316 9.00314 2.032
    endloop
  endfacet
  facet normal 0.831471 -0.555569 0
    outer loop
      vertex -9.5549 9.34297 0
      vertex -9.5549 9.34297 2.032
      vertex -9.66571 9.17715 2.032
    endloop
  endfacet
  facet normal 0.831471 -0.555569 0
    outer loop
      vertex -9.66571 9.17715 0
      vertex -9.5549 9.34297 0
      vertex -9.66571 9.17715 2.032
    endloop
  endfacet
  facet normal 0.785316 -0.619095 0
    outer loop
      vertex -9.43143 9.4996 0
      vertex -9.43143 9.4996 2.032
      vertex -9.5549 9.34297 2.032
    endloop
  endfacet
  facet normal 0.785316 -0.619095 0
    outer loop
      vertex -9.5549 9.34297 0
      vertex -9.43143 9.4996 0
      vertex -9.5549 9.34297 2.032
    endloop
  endfacet
  facet normal 0.734322 -0.678801 0
    outer loop
      vertex -9.29605 9.64605 0
      vertex -9.29605 9.64605 2.032
      vertex -9.43143 9.4996 2.032
    endloop
  endfacet
  facet normal 0.734322 -0.678801 0
    outer loop
      vertex -9.43143 9.4996 0
      vertex -9.29605 9.64605 0
      vertex -9.43143 9.4996 2.032
    endloop
  endfacet
  facet normal 0.678801 -0.734322 0
    outer loop
      vertex -9.1496 9.78143 0
      vertex -9.1496 9.78143 2.032
      vertex -9.29605 9.64605 2.032
    endloop
  endfacet
  facet normal 0.678801 -0.734322 0
    outer loop
      vertex -9.29605 9.64605 0
      vertex -9.1496 9.78143 0
      vertex -9.29605 9.64605 2.032
    endloop
  endfacet
  facet normal 0.619095 -0.785316 0
    outer loop
      vertex -8.99297 9.9049 0
      vertex -8.99297 9.9049 2.032
      vertex -9.1496 9.78143 2.032
    endloop
  endfacet
  facet normal 0.619095 -0.785316 0
    outer loop
      vertex -9.1496 9.78143 0
      vertex -8.99297 9.9049 0
      vertex -9.1496 9.78143 2.032
    endloop
  endfacet
  facet normal 0.555569 -0.831471 0
    outer loop
      vertex -8.82715 10.0157 0
      vertex -8.82715 10.0157 2.032
      vertex -8.99297 9.9049 2.032
    endloop
  endfacet
  facet normal 0.555569 -0.831471 0
    outer loop
      vertex -8.99297 9.9049 0
      vertex -8.82715 10.0157 0
      vertex -8.99297 9.9049 2.032
    endloop
  endfacet
  facet normal 0.488624 -0.872494 0
    outer loop
      vertex -8.65314 10.1132 0
      vertex -8.65314 10.1132 2.032
      vertex -8.82715 10.0157 2.032
    endloop
  endfacet
  facet normal 0.488624 -0.872494 0
    outer loop
      vertex -8.82715 10.0157 0
      vertex -8.65314 10.1132 0
      vertex -8.82715 10.0157 2.032
    endloop
  endfacet
  facet normal 0.418658 -0.908144 0
    outer loop
      vertex -8.47202 10.1967 0
      vertex -8.47202 10.1967 2.032
      vertex -8.65314 10.1132 2.032
    endloop
  endfacet
  facet normal 0.418658 -0.908144 0
    outer loop
      vertex -8.65314 10.1132 0
      vertex -8.47202 10.1967 0
      vertex -8.65314 10.1132 2.032
    endloop
  endfacet
  facet normal 0.346119 -0.938191 0
    outer loop
      vertex -8.2849 10.2657 0
      vertex -8.2849 10.2657 2.032
      vertex -8.47202 10.1967 2.032
    endloop
  endfacet
  facet normal 0.346119 -0.938191 0
    outer loop
      vertex -8.47202 10.1967 0
      vertex -8.2849 10.2657 0
      vertex -8.47202 10.1967 2.032
    endloop
  endfacet
  facet normal 0.27144 -0.962455 0
    outer loop
      vertex -8.09295 10.3198 0
      vertex -8.09295 10.3198 2.032
      vertex -8.2849 10.2657 2.032
    endloop
  endfacet
  facet normal 0.27144 -0.962455 0
    outer loop
      vertex -8.2849 10.2657 0
      vertex -8.09295 10.3198 0
      vertex -8.2849 10.2657 2.032
    endloop
  endfacet
  facet normal 0.195087 -0.980786 0
    outer loop
      vertex -7.89734 10.3587 0
      vertex -7.89734 10.3587 2.032
      vertex -8.09295 10.3198 2.032
    endloop
  endfacet
  facet normal 0.195087 -0.980786 0
    outer loop
      vertex -8.09295 10.3198 0
      vertex -7.89734 10.3587 0
      vertex -8.09295 10.3198 2.032
    endloop
  endfacet
  facet normal 0.117539 -0.993068 0
    outer loop
      vertex -7.69929 10.3822 0
      vertex -7.69929 10.3822 2.032
      vertex -7.89734 10.3587 2.032
    endloop
  endfacet
  facet normal 0.117539 -0.993068 0
    outer loop
      vertex -7.89734 10.3587 0
      vertex -7.69929 10.3822 0
      vertex -7.89734 10.3587 2.032
    endloop
  endfacet
  facet normal 0.03926 -0.999229 0
    outer loop
      vertex -7.5 10.39 0
      vertex -7.5 10.39 2.032
      vertex -7.69929 10.3822 2.032
    endloop
  endfacet
  facet normal 0.03926 -0.999229 0
    outer loop
      vertex -7.69929 10.3822 0
      vertex -7.5 10.39 0
      vertex -7.69929 10.3822 2.032
    endloop
  endfacet
  facet normal -0.03926 -0.999229 0
    outer loop
      vertex -7.30071 10.3822 0
      vertex -7.30071 10.3822 2.032
      vertex -7.5 10.39 2.032
    endloop
  endfacet
  facet normal -0.03926 -0.999229 0
    outer loop
      vertex -7.5 10.39 0
      vertex -7.30071 10.3822 0
      vertex -7.5 10.39 2.032
    endloop
  endfacet
  facet normal -0.117539 -0.993068 0
    outer loop
      vertex -7.10266 10.3587 0
      vertex -7.10266 10.3587 2.032
      vertex -7.30071 10.3822 2.032
    endloop
  endfacet
  facet normal -0.117539 -0.993068 0
    outer loop
      vertex -7.30071 10.3822 0
      vertex -7.10266 10.3587 0
      vertex -7.30071 10.3822 2.032
    endloop
  endfacet
  facet normal -0.195087 -0.980786 0
    outer loop
      vertex -6.90705 10.3198 0
      vertex -6.90705 10.3198 2.032
      vertex -7.10266 10.3587 2.032
    endloop
  endfacet
  facet normal -0.195087 -0.980786 0
    outer loop
      vertex -7.10266 10.3587 0
      vertex -6.90705 10.3198 0
      vertex -7.10266 10.3587 2.032
    endloop
  endfacet
  facet normal -0.27144 -0.962455 0
    outer loop
      vertex -6.7151 10.2657 0
      vertex -6.7151 10.2657 2.032
      vertex -6.90705 10.3198 2.032
    endloop
  endfacet
  facet normal -0.27144 -0.962455 0
    outer loop
      vertex -6.90705 10.3198 0
      vertex -6.7151 10.2657 0
      vertex -6.90705 10.3198 2.032
    endloop
  endfacet
  facet normal -0.346119 -0.938191 0
    outer loop
      vertex -6.52798 10.1967 0
      vertex -6.52798 10.1967 2.032
      vertex -6.7151 10.2657 2.032
    endloop
  endfacet
  facet normal -0.346119 -0.938191 0
    outer loop
      vertex -6.7151 10.2657 0
      vertex -6.52798 10.1967 0
      vertex -6.7151 10.2657 2.032
    endloop
  endfacet
  facet normal -0.418658 -0.908144 0
    outer loop
      vertex -6.34686 10.1132 0
      vertex -6.34686 10.1132 2.032
      vertex -6.52798 10.1967 2.032
    endloop
  endfacet
  facet normal -0.418658 -0.908144 0
    outer loop
      vertex -6.52798 10.1967 0
      vertex -6.34686 10.1132 0
      vertex -6.52798 10.1967 2.032
    endloop
  endfacet
  facet normal -0.488624 -0.872494 0
    outer loop
      vertex -6.17285 10.0157 0
      vertex -6.17285 10.0157 2.032
      vertex -6.34686 10.1132 2.032
    endloop
  endfacet
  facet normal -0.488624 -0.872494 0
    outer loop
      vertex -6.34686 10.1132 0
      vertex -6.17285 10.0157 0
      vertex -6.34686 10.1132 2.032
    endloop
  endfacet
  facet normal -0.555569 -0.831471 0
    outer loop
      vertex -6.00702 9.9049 0
      vertex -6.00702 9.9049 2.032
      vertex -6.17285 10.0157 2.032
    endloop
  endfacet
  facet normal -0.555569 -0.831471 0
    outer loop
      vertex -6.17285 10.0157 0
      vertex -6.00702 9.9049 0
      vertex -6.17285 10.0157 2.032
    endloop
  endfacet
  facet normal -0.619095 -0.785316 0
    outer loop
      vertex -5.8504 9.78143 0
      vertex -5.8504 9.78143 2.032
      vertex -6.00702 9.9049 2.032
    endloop
  endfacet
  facet normal -0.619095 -0.785316 0
    outer loop
      vertex -6.00702 9.9049 0
      vertex -5.8504 9.78143 0
      vertex -6.00702 9.9049 2.032
    endloop
  endfacet
  facet normal -0.678801 -0.734322 0
    outer loop
      vertex -5.70395 9.64605 0
      vertex -5.70395 9.64605 2.032
      vertex -5.8504 9.78143 2.032
    endloop
  endfacet
  facet normal -0.678801 -0.734322 0
    outer loop
      vertex -5.8504 9.78143 0
      vertex -5.70395 9.64605 0
      vertex -5.8504 9.78143 2.032
    endloop
  endfacet
  facet normal -0.734322 -0.678801 0
    outer loop
      vertex -5.56857 9.4996 2.032
      vertex -5.70395 9.64605 2.032
      vertex -5.56857 9.4996 0
    endloop
  endfacet
  facet normal -0.734322 -0.678801 0
    outer loop
      vertex -5.56857 9.4996 0
      vertex -5.70395 9.64605 2.032
      vertex -5.70395 9.64605 0
    endloop
  endfacet
  facet normal -0.785316 -0.619095 0
    outer loop
      vertex -5.4451 9.34297 2.032
      vertex -5.56857 9.4996 2.032
      vertex -5.4451 9.34297 0
    endloop
  endfacet
  facet normal -0.785316 -0.619095 0
    outer loop
      vertex -5.4451 9.34297 0
      vertex -5.56857 9.4996 2.032
      vertex -5.56857 9.4996 0
    endloop
  endfacet
  facet normal -0.831471 -0.555569 0
    outer loop
      vertex -5.33429 9.17715 2.032
      vertex -5.4451 9.34297 2.032
      vertex -5.33429 9.17715 0
    endloop
  endfacet
  facet normal -0.831471 -0.555569 0
    outer loop
      vertex -5.33429 9.17715 0
      vertex -5.4451 9.34297 2.032
      vertex -5.4451 9.34297 0
    endloop
  endfacet
  facet normal -0.872494 -0.488624 0
    outer loop
      vertex -5.23684 9.00314 2.032
      vertex -5.33429 9.17715 2.032
      vertex -5.23684 9.00314 0
    endloop
  endfacet
  facet normal -0.872494 -0.488624 0
    outer loop
      vertex -5.23684 9.00314 0
      vertex -5.33429 9.17715 2.032
      vertex -5.33429 9.17715 0
    endloop
  endfacet
  facet normal -0.908144 -0.418658 0
    outer loop
      vertex -5.15335 8.82202 2.032
      vertex -5.23684 9.00314 2.032
      vertex -5.15335 8.82202 0
    endloop
  endfacet
  facet normal -0.908144 -0.418658 0
    outer loop
      vertex -5.15335 8.82202 0
      vertex -5.23684 9.00314 2.032
      vertex -5.23684 9.00314 0
    endloop
  endfacet
  facet normal -0.938191 -0.346119 0
    outer loop
      vertex -5.08432 8.6349 2.032
      vertex -5.15335 8.82202 2.032
      vertex -5.08432 8.6349 0
    endloop
  endfacet
  facet normal -0.938191 -0.346119 0
    outer loop
      vertex -5.08432 8.6349 0
      vertex -5.15335 8.82202 2.032
      vertex -5.15335 8.82202 0
    endloop
  endfacet
  facet normal -0.962455 -0.27144 0
    outer loop
      vertex -5.03018 8.44295 2.032
      vertex -5.08432 8.6349 2.032
      vertex -5.03018 8.44295 0
    endloop
  endfacet
  facet normal -0.962455 -0.27144 0
    outer loop
      vertex -5.03018 8.44295 0
      vertex -5.08432 8.6349 2.032
      vertex -5.08432 8.6349 0
    endloop
  endfacet
  facet normal -0.980786 -0.195087 0
    outer loop
      vertex -4.99127 8.24734 2.032
      vertex -5.03018 8.44295 2.032
      vertex -4.99127 8.24734 0
    endloop
  endfacet
  facet normal -0.980786 -0.195087 0
    outer loop
      vertex -4.99127 8.24734 0
      vertex -5.03018 8.44295 2.032
      vertex -5.03018 8.44295 0
    endloop
  endfacet
  facet normal -0.993068 -0.117539 0
    outer loop
      vertex -4.96783 8.04929 2.032
      vertex -4.99127 8.24734 2.032
      vertex -4.96783 8.04929 0
    endloop
  endfacet
  facet normal -0.993068 -0.117539 0
    outer loop
      vertex -4.96783 8.04929 0
      vertex -4.99127 8.24734 2.032
      vertex -4.99127 8.24734 0
    endloop
  endfacet
  facet normal -0.999229 -0.03926 0
    outer loop
      vertex -4.96 7.85 2.032
      vertex -4.96783 8.04929 2.032
      vertex -4.96 7.85 0
    endloop
  endfacet
  facet normal -0.999229 -0.03926 0
    outer loop
      vertex -4.96 7.85 0
      vertex -4.96783 8.04929 2.032
      vertex -4.96783 8.04929 0
    endloop
  endfacet
  facet normal -0.999229 0.03926 0
    outer loop
      vertex -4.96 7.85 2.032
      vertex -4.96 7.85 0
      vertex -4.96783 7.65071 2.032
    endloop
  endfacet
  facet normal -0.999229 0.03926 0
    outer loop
      vertex -4.96783 7.65071 2.032
      vertex -4.96 7.85 0
      vertex -4.96783 7.65071 0
    endloop
  endfacet
  facet normal -0.993068 0.117539 0
    outer loop
      vertex -4.96783 7.65071 2.032
      vertex -4.96783 7.65071 0
      vertex -4.99127 7.45266 2.032
    endloop
  endfacet
  facet normal -0.993068 0.117539 0
    outer loop
      vertex -4.99127 7.45266 2.032
      vertex -4.96783 7.65071 0
      vertex -4.99127 7.45266 0
    endloop
  endfacet
  facet normal -0.980786 0.195087 0
    outer loop
      vertex -4.99127 7.45266 2.032
      vertex -4.99127 7.45266 0
      vertex -5.03018 7.25705 2.032
    endloop
  endfacet
  facet normal -0.980786 0.195087 0
    outer loop
      vertex -5.03018 7.25705 2.032
      vertex -4.99127 7.45266 0
      vertex -5.03018 7.25705 0
    endloop
  endfacet
  facet normal -0.962455 0.27144 0
    outer loop
      vertex -5.03018 7.25705 2.032
      vertex -5.03018 7.25705 0
      vertex -5.08432 7.0651 2.032
    endloop
  endfacet
  facet normal -0.962455 0.27144 0
    outer loop
      vertex -5.08432 7.0651 2.032
      vertex -5.03018 7.25705 0
      vertex -5.08432 7.0651 0
    endloop
  endfacet
  facet normal -0.938191 0.346119 0
    outer loop
      vertex -5.08432 7.0651 2.032
      vertex -5.08432 7.0651 0
      vertex -5.15335 6.87798 2.032
    endloop
  endfacet
  facet normal -0.938191 0.346119 0
    outer loop
      vertex -5.15335 6.87798 2.032
      vertex -5.08432 7.0651 0
      vertex -5.15335 6.87798 0
    endloop
  endfacet
  facet normal -0.908144 0.418658 0
    outer loop
      vertex -5.15335 6.87798 2.032
      vertex -5.15335 6.87798 0
      vertex -5.23684 6.69686 2.032
    endloop
  endfacet
  facet normal -0.908144 0.418658 0
    outer loop
      vertex -5.23684 6.69686 2.032
      vertex -5.15335 6.87798 0
      vertex -5.23684 6.69686 0
    endloop
  endfacet
  facet normal -0.872494 0.488624 0
    outer loop
      vertex -5.23684 6.69686 2.032
      vertex -5.23684 6.69686 0
      vertex -5.33429 6.52285 2.032
    endloop
  endfacet
  facet normal -0.872494 0.488624 0
    outer loop
      vertex -5.33429 6.52285 2.032
      vertex -5.23684 6.69686 0
      vertex -5.33429 6.52285 0
    endloop
  endfacet
  facet normal -0.831471 0.555569 0
    outer loop
      vertex -5.33429 6.52285 2.032
      vertex -5.33429 6.52285 0
      vertex -5.4451 6.35702 2.032
    endloop
  endfacet
  facet normal -0.831471 0.555569 0
    outer loop
      vertex -5.4451 6.35702 2.032
      vertex -5.33429 6.52285 0
      vertex -5.4451 6.35702 0
    endloop
  endfacet
  facet normal -0.785316 0.619095 0
    outer loop
      vertex -5.4451 6.35702 2.032
      vertex -5.4451 6.35702 0
      vertex -5.56857 6.2004 2.032
    endloop
  endfacet
  facet normal -0.785316 0.619095 0
    outer loop
      vertex -5.56857 6.2004 2.032
      vertex -5.4451 6.35702 0
      vertex -5.56857 6.2004 0
    endloop
  endfacet
  facet normal -0.734322 0.678801 0
    outer loop
      vertex -5.56857 6.2004 2.032
      vertex -5.56857 6.2004 0
      vertex -5.70395 6.05395 2.032
    endloop
  endfacet
  facet normal -0.734322 0.678801 0
    outer loop
      vertex -5.70395 6.05395 2.032
      vertex -5.56857 6.2004 0
      vertex -5.70395 6.05395 0
    endloop
  endfacet
  facet normal -0.678801 0.734322 0
    outer loop
      vertex -5.70395 6.05395 2.032
      vertex -5.70395 6.05395 0
      vertex -5.8504 5.91857 2.032
    endloop
  endfacet
  facet normal -0.678801 0.734322 0
    outer loop
      vertex -5.8504 5.91857 2.032
      vertex -5.70395 6.05395 0
      vertex -5.8504 5.91857 0
    endloop
  endfacet
  facet normal -0.619095 0.785316 0
    outer loop
      vertex -5.8504 5.91857 2.032
      vertex -5.8504 5.91857 0
      vertex -6.00702 5.7951 2.032
    endloop
  endfacet
  facet normal -0.619095 0.785316 0
    outer loop
      vertex -6.00702 5.7951 2.032
      vertex -5.8504 5.91857 0
      vertex -6.00702 5.7951 0
    endloop
  endfacet
  facet normal -0.555569 0.831471 0
    outer loop
      vertex -6.00702 5.7951 2.032
      vertex -6.00702 5.7951 0
      vertex -6.17285 5.68429 2.032
    endloop
  endfacet
  facet normal -0.555569 0.831471 0
    outer loop
      vertex -6.17285 5.68429 2.032
      vertex -6.00702 5.7951 0
      vertex -6.17285 5.68429 0
    endloop
  endfacet
  facet normal -0.488624 0.872494 0
    outer loop
      vertex -6.17285 5.68429 2.032
      vertex -6.17285 5.68429 0
      vertex -6.34686 5.58684 2.032
    endloop
  endfacet
  facet normal -0.488624 0.872494 0
    outer loop
      vertex -6.34686 5.58684 2.032
      vertex -6.17285 5.68429 0
      vertex -6.34686 5.58684 0
    endloop
  endfacet
  facet normal -0.418658 0.908144 0
    outer loop
      vertex -6.34686 5.58684 2.032
      vertex -6.34686 5.58684 0
      vertex -6.52798 5.50335 2.032
    endloop
  endfacet
  facet normal -0.418658 0.908144 0
    outer loop
      vertex -6.52798 5.50335 2.032
      vertex -6.34686 5.58684 0
      vertex -6.52798 5.50335 0
    endloop
  endfacet
  facet normal -0.346119 0.938191 0
    outer loop
      vertex -6.52798 5.50335 2.032
      vertex -6.52798 5.50335 0
      vertex -6.7151 5.43432 2.032
    endloop
  endfacet
  facet normal -0.346119 0.938191 0
    outer loop
      vertex -6.7151 5.43432 2.032
      vertex -6.52798 5.50335 0
      vertex -6.7151 5.43432 0
    endloop
  endfacet
  facet normal -0.27144 0.962455 0
    outer loop
      vertex -6.7151 5.43432 2.032
      vertex -6.7151 5.43432 0
      vertex -6.90705 5.38018 2.032
    endloop
  endfacet
  facet normal -0.27144 0.962455 0
    outer loop
      vertex -6.90705 5.38018 2.032
      vertex -6.7151 5.43432 0
      vertex -6.90705 5.38018 0
    endloop
  endfacet
  facet normal -0.195087 0.980786 0
    outer loop
      vertex -6.90705 5.38018 2.032
      vertex -6.90705 5.38018 0
      vertex -7.10266 5.34127 2.032
    endloop
  endfacet
  facet normal -0.195087 0.980786 0
    outer loop
      vertex -7.10266 5.34127 2.032
      vertex -6.90705 5.38018 0
      vertex -7.10266 5.34127 0
    endloop
  endfacet
  facet normal -0.117539 0.993068 0
    outer loop
      vertex -7.10266 5.34127 2.032
      vertex -7.10266 5.34127 0
      vertex -7.30071 5.31783 2.032
    endloop
  endfacet
  facet normal -0.117539 0.993068 0
    outer loop
      vertex -7.30071 5.31783 2.032
      vertex -7.10266 5.34127 0
      vertex -7.30071 5.31783 0
    endloop
  endfacet
  facet normal -0.03926 0.999229 0
    outer loop
      vertex -7.30071 5.31783 2.032
      vertex -7.30071 5.31783 0
      vertex -7.5 5.31 2.032
    endloop
  endfacet
  facet normal -0.03926 0.999229 0
    outer loop
      vertex -7.5 5.31 2.032
      vertex -7.30071 5.31783 0
      vertex -7.5 5.31 0
    endloop
  endfacet
  facet normal 0.03926 0.999229 0
    outer loop
      vertex -7.5 5.31 2.032
      vertex -7.5 5.31 0
      vertex -7.69929 5.31783 2.032
    endloop
  endfacet
  facet normal 0.03926 0.999229 0
    outer loop
      vertex -7.69929 5.31783 2.032
      vertex -7.5 5.31 0
      vertex -7.69929 5.31783 0
    endloop
  endfacet
  facet normal 0.117539 0.993068 0
    outer loop
      vertex -7.69929 5.31783 2.032
      vertex -7.69929 5.31783 0
      vertex -7.89734 5.34127 2.032
    endloop
  endfacet
  facet normal 0.117539 0.993068 0
    outer loop
      vertex -7.89734 5.34127 2.032
      vertex -7.69929 5.31783 0
      vertex -7.89734 5.34127 0
    endloop
  endfacet
  facet normal 0.195087 0.980786 0
    outer loop
      vertex -7.89734 5.34127 2.032
      vertex -7.89734 5.34127 0
      vertex -8.09295 5.38018 2.032
    endloop
  endfacet
  facet normal 0.195087 0.980786 0
    outer loop
      vertex -8.09295 5.38018 2.032
      vertex -7.89734 5.34127 0
      vertex -8.09295 5.38018 0
    endloop
  endfacet
  facet normal 0.27144 0.962455 0
    outer loop
      vertex -8.09295 5.38018 2.032
      vertex -8.09295 5.38018 0
      vertex -8.2849 5.43432 2.032
    endloop
  endfacet
  facet normal 0.27144 0.962455 0
    outer loop
      vertex -8.2849 5.43432 2.032
      vertex -8.09295 5.38018 0
      vertex -8.2849 5.43432 0
    endloop
  endfacet
  facet normal 0.346119 0.938191 0
    outer loop
      vertex -8.2849 5.43432 2.032
      vertex -8.2849 5.43432 0
      vertex -8.47202 5.50335 2.032
    endloop
  endfacet
  facet normal 0.346119 0.938191 0
    outer loop
      vertex -8.47202 5.50335 2.032
      vertex -8.2849 5.43432 0
      vertex -8.47202 5.50335 0
    endloop
  endfacet
  facet normal 0.418658 0.908144 0
    outer loop
      vertex -8.47202 5.50335 2.032
      vertex -8.47202 5.50335 0
      vertex -8.65314 5.58684 2.032
    endloop
  endfacet
  facet normal 0.418658 0.908144 0
    outer loop
      vertex -8.65314 5.58684 2.032
      vertex -8.47202 5.50335 0
      vertex -8.65314 5.58684 0
    endloop
  endfacet
  facet normal 0.488624 0.872494 0
    outer loop
      vertex -8.65314 5.58684 2.032
      vertex -8.65314 5.58684 0
      vertex -8.82715 5.68429 2.032
    endloop
  endfacet
  facet normal 0.488624 0.872494 0
    outer loop
      vertex -8.82715 5.68429 2.032
      vertex -8.65314 5.58684 0
      vertex -8.82715 5.68429 0
    endloop
  endfacet
  facet normal 0.555569 0.831471 0
    outer loop
      vertex -8.82715 5.68429 2.032
      vertex -8.82715 5.68429 0
      vertex -8.99297 5.7951 2.032
    endloop
  endfacet
  facet normal 0.555569 0.831471 0
    outer loop
      vertex -8.99297 5.7951 2.032
      vertex -8.82715 5.68429 0
      vertex -8.99297 5.7951 0
    endloop
  endfacet
  facet normal 0.619095 0.785316 0
    outer loop
      vertex -8.99297 5.7951 2.032
      vertex -8.99297 5.7951 0
      vertex -9.1496 5.91857 2.032
    endloop
  endfacet
  facet normal 0.619095 0.785316 0
    outer loop
      vertex -9.1496 5.91857 2.032
      vertex -8.99297 5.7951 0
      vertex -9.1496 5.91857 0
    endloop
  endfacet
  facet normal 0.678801 0.734322 0
    outer loop
      vertex -9.1496 5.91857 2.032
      vertex -9.1496 5.91857 0
      vertex -9.29605 6.05395 2.032
    endloop
  endfacet
  facet normal 0.678801 0.734322 0
    outer loop
      vertex -9.29605 6.05395 2.032
      vertex -9.1496 5.91857 0
      vertex -9.29605 6.05395 0
    endloop
  endfacet
  facet normal 0.734322 0.678801 0
    outer loop
      vertex -9.43143 6.2004 2.032
      vertex -9.29605 6.05395 2.032
      vertex -9.29605 6.05395 0
    endloop
  endfacet
  facet normal 0.734322 0.678801 0
    outer loop
      vertex -9.43143 6.2004 0
      vertex -9.43143 6.2004 2.032
      vertex -9.29605 6.05395 0
    endloop
  endfacet
  facet normal 0.785316 0.619095 0
    outer loop
      vertex -9.5549 6.35702 2.032
      vertex -9.43143 6.2004 2.032
      vertex -9.43143 6.2004 0
    endloop
  endfacet
  facet normal 0.785316 0.619095 0
    outer loop
      vertex -9.5549 6.35702 0
      vertex -9.5549 6.35702 2.032
      vertex -9.43143 6.2004 0
    endloop
  endfacet
  facet normal 0.831471 0.555569 0
    outer loop
      vertex -9.66571 6.52285 2.032
      vertex -9.5549 6.35702 2.032
      vertex -9.5549 6.35702 0
    endloop
  endfacet
  facet normal 0.831471 0.555569 0
    outer loop
      vertex -9.66571 6.52285 0
      vertex -9.66571 6.52285 2.032
      vertex -9.5549 6.35702 0
    endloop
  endfacet
  facet normal 0.872494 0.488624 0
    outer loop
      vertex -9.76316 6.69686 2.032
      vertex -9.66571 6.52285 2.032
      vertex -9.66571 6.52285 0
    endloop
  endfacet
  facet normal 0.872494 0.488624 0
    outer loop
      vertex -9.76316 6.69686 0
      vertex -9.76316 6.69686 2.032
      vertex -9.66571 6.52285 0
    endloop
  endfacet
  facet normal 0.908144 0.418658 0
    outer loop
      vertex -9.84665 6.87798 2.032
      vertex -9.76316 6.69686 2.032
      vertex -9.76316 6.69686 0
    endloop
  endfacet
  facet normal 0.908144 0.418658 0
    outer loop
      vertex -9.84665 6.87798 0
      vertex -9.84665 6.87798 2.032
      vertex -9.76316 6.69686 0
    endloop
  endfacet
  facet normal 0.938191 0.346119 0
    outer loop
      vertex -9.91568 7.0651 2.032
      vertex -9.84665 6.87798 2.032
      vertex -9.84665 6.87798 0
    endloop
  endfacet
  facet normal 0.938191 0.346119 0
    outer loop
      vertex -9.91568 7.0651 0
      vertex -9.91568 7.0651 2.032
      vertex -9.84665 6.87798 0
    endloop
  endfacet
  facet normal 0.962455 0.27144 0
    outer loop
      vertex -9.96982 7.25705 2.032
      vertex -9.91568 7.0651 2.032
      vertex -9.91568 7.0651 0
    endloop
  endfacet
  facet normal 0.962455 0.27144 0
    outer loop
      vertex -9.96982 7.25705 0
      vertex -9.96982 7.25705 2.032
      vertex -9.91568 7.0651 0
    endloop
  endfacet
  facet normal 0.980786 0.195087 0
    outer loop
      vertex -10.0087 7.45266 2.032
      vertex -9.96982 7.25705 2.032
      vertex -9.96982 7.25705 0
    endloop
  endfacet
  facet normal 0.980786 0.195087 0
    outer loop
      vertex -10.0087 7.45266 0
      vertex -10.0087 7.45266 2.032
      vertex -9.96982 7.25705 0
    endloop
  endfacet
  facet normal 0.993068 0.117539 0
    outer loop
      vertex -10.0322 7.65071 2.032
      vertex -10.0087 7.45266 2.032
      vertex -10.0087 7.45266 0
    endloop
  endfacet
  facet normal 0.993068 0.117539 0
    outer loop
      vertex -10.0322 7.65071 0
      vertex -10.0322 7.65071 2.032
      vertex -10.0087 7.45266 0
    endloop
  endfacet
  facet normal 0 0 1
    outer loop
      vertex -13.0229 8.28466 2.032
      vertex -13.04 7.85 2.032
      vertex -13.0229 7.41534 2.032
    endloop
  endfacet
  facet normal 0 0 1
    outer loop
      vertex -12.8869 6.55671 2.032
      vertex -13.0229 8.28466 2.032
      vertex -12.9718 6.98335 2.032
    endloop
  endfacet
  facet normal 0 0 1
    outer loop
      vertex -12.9718 6.98335 2.032
      vertex -13.0229 8.28466 2.032
      vertex -13.0229 7.41534 2.032
    endloop
  endfacet
  facet normal 0 0 1
    outer loop
      vertex -12.7689 6.13805 2.032
      vertex -13.0229 8.28466 2.032
      vertex -12.8869 6.55671 2.032
    endloop
  endfacet
  facet normal 0 0 1
    outer loop
      vertex -12.6183 5.72993 2.032
      vertex -13.0229 8.28466 2.032
      vertex -12.7689 6.13805 2.032
    endloop
  endfacet
  facet normal 0 0 1
    outer loop
      vertex -12.4362 5.33489 2.032
      vertex -13.0229 8.28466 2.032
      vertex -12.6183 5.72993 2.032
    endloop
  endfacet
  facet normal 0 0 1
    outer loop
      vertex -12.2236 4.95536 2.032
      vertex -13.0229 8.28466 2.032
      vertex -12.4362 5.33489 2.032
    endloop
  endfacet
  facet normal 0 0 1
    outer loop
      vertex -11.982 4.59367 2.032
      vertex -13.0229 8.28466 2.032
      vertex -12.2236 4.95536 2.032
    endloop
  endfacet
  facet normal 0 0 1
    outer loop
      vertex -11.7126 4.25206 2.032
      vertex -13.0229 8.28466 2.032
      vertex -11.982 4.59367 2.032
    endloop
  endfacet
  facet normal 0 0 1
    outer loop
      vertex -11.4174 3.93263 2.032
      vertex -13.0229 8.28466 2.032
      vertex -11.7126 4.25206 2.032
    endloop
  endfacet
  facet normal 0 0 1
    outer loop
      vertex -11.0979 3.63735 2.032
      vertex -13.0229 8.28466 2.032
      vertex -11.4174 3.93263 2.032
    endloop
  endfacet
  facet normal 0 0 1
    outer loop
      vertex -10.7563 3.36805 2.032
      vertex -13.0229 8.28466 2.032
      vertex -11.0979 3.63735 2.032
    endloop
  endfacet
  facet normal 0 0 1
    outer loop
      vertex -10.3946 3.12637 2.032
      vertex -13.0229 8.28466 2.032
      vertex -10.7563 3.36805 2.032
    endloop
  endfacet
  facet normal 0 0 1
    outer loop
      vertex -10.0151 2.91382 2.032
      vertex -13.0229 8.28466 2.032
      vertex -10.3946 3.12637 2.032
    endloop
  endfacet
  facet normal 0 0 1
    outer loop
      vertex -9.62007 2.73171 2.032
      vertex -13.0229 8.28466 2.032
      vertex -10.0151 2.91382 2.032
    endloop
  endfacet
  facet normal 0 0 1
    outer loop
      vertex -9.21195 2.58115 2.032
      vertex -13.0229 8.28466 2.032
      vertex -9.62007 2.73171 2.032
    endloop
  endfacet
  facet normal 0 0 1
    outer loop
      vertex -8.79329 2.46307 2.032
      vertex -13.0229 8.28466 2.032
      vertex -9.21195 2.58115 2.032
    endloop
  endfacet
  facet normal 0 0 1
    outer loop
      vertex -8.36665 2.37821 2.032
      vertex -13.0229 8.28466 2.032
      vertex -8.79329 2.46307 2.032
    endloop
  endfacet
  facet normal 0 0 1
    outer loop
      vertex -7.93466 2.32708 2.032
      vertex -13.0229 8.28466 2.032
      vertex -8.36665 2.37821 2.032
    endloop
  endfacet
  facet normal 0 0 1
    outer loop
      vertex -7.5 2.31 2.032
      vertex -13.0229 8.28466 2.032
      vertex -7.93466 2.32708 2.032
    endloop
  endfacet
  facet normal 0 0 1
    outer loop
      vertex -7.06534 2.32708 2.032
      vertex -13.0229 8.28466 2.032
      vertex -7.5 2.31 2.032
    endloop
  endfacet
  facet normal 0 0 1
    outer loop
      vertex -6.63335 2.37821 2.032
      vertex -13.0229 8.28466 2.032
      vertex -7.06534 2.32708 2.032
    endloop
  endfacet
  facet normal 0 0 1
    outer loop
      vertex -6.20671 2.46307 2.032
      vertex -13.0229 8.28466 2.032
      vertex -6.63335 2.37821 2.032
    endloop
  endfacet
  facet normal 0 0 1
    outer loop
      vertex -5.78805 2.58115 2.032
      vertex -13.0229 8.28466 2.032
      vertex -6.20671 2.46307 2.032
    endloop
  endfacet
  facet normal 0 0 1
    outer loop
      vertex -5.37993 2.73171 2.032
      vertex -13.0229 8.28466 2.032
      vertex -5.78805 2.58115 2.032
    endloop
  endfacet
  facet normal 0 0 1
    outer loop
      vertex -4.98489 2.91382 2.032
      vertex -13.0229 8.28466 2.032
      vertex -5.37993 2.73171 2.032
    endloop
  endfacet
  facet normal 0 0 1
    outer loop
      vertex -8.82715 5.68429 2.032
      vertex -13.0229 8.28466 2.032
      vertex -4.98489 2.91382 2.032
    endloop
  endfacet
  facet normal 0 0 1
    outer loop
      vertex -8.99297 5.7951 2.032
      vertex -9.1496 5.91857 2.032
      vertex -13.0229 8.28466 2.032
    endloop
  endfacet
  facet normal 0 0 1
    outer loop
      vertex -4.60536 12.5736 2.032
      vertex -13.0229 8.28466 2.032
      vertex -4.5 12.5032 2.032
    endloop
  endfacet
  facet normal 0 0 1
    outer loop
      vertex -4.98489 12.7862 2.032
      vertex -13.0229 8.28466 2.032
      vertex -4.60536 12.5736 2.032
    endloop
  endfacet
  facet normal 0 0 1
    outer loop
      vertex -5.37993 12.9683 2.032
      vertex -13.0229 8.28466 2.032
      vertex -4.98489 12.7862 2.032
    endloop
  endfacet
  facet normal 0 0 1
    outer loop
      vertex -5.78805 13.1189 2.032
      vertex -13.0229 8.28466 2.032
      vertex -5.37993 12.9683 2.032
    endloop
  endfacet
  facet normal 0 0 1
    outer loop
      vertex -6.20671 13.2369 2.032
      vertex -13.0229 8.28466 2.032
      vertex -5.78805 13.1189 2.032
    endloop
  endfacet
  facet normal 0 0 1
    outer loop
      vertex -6.63335 13.3218 2.032
      vertex -13.0229 8.28466 2.032
      vertex -6.20671 13.2369 2.032
    endloop
  endfacet
  facet normal 0 0 1
    outer loop
      vertex -7.06534 13.3729 2.032
      vertex -13.0229 8.28466 2.032
      vertex -6.63335 13.3218 2.032
    endloop
  endfacet
  facet normal 0 0 1
    outer loop
      vertex -7.5 13.39 2.032
      vertex -13.0229 8.28466 2.032
      vertex -7.06534 13.3729 2.032
    endloop
  endfacet
  facet normal 0 0 1
    outer loop
      vertex -7.93466 13.3729 2.032
      vertex -13.0229 8.28466 2.032
      vertex -7.5 13.39 2.032
    endloop
  endfacet
  facet normal 0 0 1
    outer loop
      vertex -8.36665 13.3218 2.032
      vertex -13.0229 8.28466 2.032
      vertex -7.93466 13.3729 2.032
    endloop
  endfacet
  facet normal 0 0 1
    outer loop
      vertex -8.79329 13.2369 2.032
      vertex -13.0229 8.28466 2.032
      vertex -8.36665 13.3218 2.032
    endloop
  endfacet
  facet normal 0 0 1
    outer loop
      vertex -9.21195 13.1189 2.032
      vertex -13.0229 8.28466 2.032
      vertex -8.79329 13.2369 2.032
    endloop
  endfacet
  facet normal 0 0 1
    outer loop
      vertex -9.62007 12.9683 2.032
      vertex -13.0229 8.28466 2.032
      vertex -9.21195 13.1189 2.032
    endloop
  endfacet
  facet normal 0 0 1
    outer loop
      vertex -10.0151 12.7862 2.032
      vertex -13.0229 8.28466 2.032
      vertex -9.62007 12.9683 2.032
    endloop
  endfacet
  facet normal 0 0 1
    outer loop
      vertex -10.3946 12.5736 2.032
      vertex -13.0229 8.28466 2.032
      vertex -10.0151 12.7862 2.032
    endloop
  endfacet
  facet normal 0 0 1
    outer loop
      vertex -10.7563 12.332 2.032
      vertex -13.0229 8.28466 2.032
      vertex -10.3946 12.5736 2.032
    endloop
  endfacet
  facet normal 0 0 1
    outer loop
      vertex -11.0979 12.0626 2.032
      vertex -13.0229 8.28466 2.032
      vertex -10.7563 12.332 2.032
    endloop
  endfacet
  facet normal 0 0 1
    outer loop
      vertex -11.4174 11.7674 2.032
      vertex -13.0229 8.28466 2.032
      vertex -11.0979 12.0626 2.032
    endloop
  endfacet
  facet normal 0 0 1
    outer loop
      vertex -11.7126 11.4479 2.032
      vertex -13.0229 8.28466 2.032
      vertex -11.4174 11.7674 2.032
    endloop
  endfacet
  facet normal 0 0 1
    outer loop
      vertex -11.982 11.1063 2.032
      vertex -13.0229 8.28466 2.032
      vertex -11.7126 11.4479 2.032
    endloop
  endfacet
  facet normal 0 0 1
    outer loop
      vertex -12.2236 10.7446 2.032
      vertex -13.0229 8.28466 2.032
      vertex -11.982 11.1063 2.032
    endloop
  endfacet
  facet normal 0 0 1
    outer loop
      vertex -12.4362 10.3651 2.032
      vertex -13.0229 8.28466 2.032
      vertex -12.2236 10.7446 2.032
    endloop
  endfacet
  facet normal 0 0 1
    outer loop
      vertex -12.6183 9.97007 2.032
      vertex -13.0229 8.28466 2.032
      vertex -12.4362 10.3651 2.032
    endloop
  endfacet
  facet normal 0 0 1
    outer loop
      vertex -12.7689 9.56195 2.032
      vertex -13.0229 8.28466 2.032
      vertex -12.6183 9.97007 2.032
    endloop
  endfacet
  facet normal 0 0 1
    outer loop
      vertex -12.8869 9.14329 2.032
      vertex -13.0229 8.28466 2.032
      vertex -12.7689 9.56195 2.032
    endloop
  endfacet
  facet normal 0 0 1
    outer loop
      vertex -12.9718 8.71665 2.032
      vertex -13.0229 8.28466 2.032
      vertex -12.8869 9.14329 2.032
    endloop
  endfacet
  facet normal 0 0 1
    outer loop
      vertex -10.04 7.85 2.032
      vertex -13.0229 8.28466 2.032
      vertex -10.0322 7.65071 2.032
    endloop
  endfacet
  facet normal 0 0 1
    outer loop
      vertex -4.96783 8.04929 2.032
      vertex -4.96 7.85 2.032
      vertex -4.5 3.19677 2.032
    endloop
  endfacet
  facet normal 0 0 1
    outer loop
      vertex -10.0322 8.04929 2.032
      vertex -13.0229 8.28466 2.032
      vertex -10.04 7.85 2.032
    endloop
  endfacet
  facet normal 0 0 1
    outer loop
      vertex -10.0087 8.24734 2.032
      vertex -13.0229 8.28466 2.032
      vertex -10.0322 8.04929 2.032
    endloop
  endfacet
  facet normal 0 0 1
    outer loop
      vertex -9.96982 8.44295 2.032
      vertex -13.0229 8.28466 2.032
      vertex -10.0087 8.24734 2.032
    endloop
  endfacet
  facet normal 0 0 1
    outer loop
      vertex -9.91568 8.6349 2.032
      vertex -13.0229 8.28466 2.032
      vertex -9.96982 8.44295 2.032
    endloop
  endfacet
  facet normal 0 0 1
    outer loop
      vertex -9.84665 8.82202 2.032
      vertex -13.0229 8.28466 2.032
      vertex -9.91568 8.6349 2.032
    endloop
  endfacet
  facet normal 0 0 1
    outer loop
      vertex -9.76316 9.00314 2.032
      vertex -13.0229 8.28466 2.032
      vertex -9.84665 8.82202 2.032
    endloop
  endfacet
  facet normal 0 0 1
    outer loop
      vertex -9.66571 9.17715 2.032
      vertex -13.0229 8.28466 2.032
      vertex -9.76316 9.00314 2.032
    endloop
  endfacet
  facet normal 0 0 1
    outer loop
      vertex -9.5549 9.34297 2.032
      vertex -13.0229 8.28466 2.032
      vertex -9.66571 9.17715 2.032
    endloop
  endfacet
  facet normal 0 0 1
    outer loop
      vertex -9.43143 9.4996 2.032
      vertex -13.0229 8.28466 2.032
      vertex -9.5549 9.34297 2.032
    endloop
  endfacet
  facet normal 0 0 1
    outer loop
      vertex -7.89734 10.3587 2.032
      vertex -7.69929 10.3822 2.032
      vertex -4.5 12.5032 2.032
    endloop
  endfacet
  facet normal 0 0 1
    outer loop
      vertex -9.29605 9.64605 2.032
      vertex -13.0229 8.28466 2.032
      vertex -9.43143 9.4996 2.032
    endloop
  endfacet
  facet normal 0 0 1
    outer loop
      vertex -9.1496 9.78143 2.032
      vertex -13.0229 8.28466 2.032
      vertex -9.29605 9.64605 2.032
    endloop
  endfacet
  facet normal 0 0 1
    outer loop
      vertex -8.99297 9.9049 2.032
      vertex -13.0229 8.28466 2.032
      vertex -9.1496 9.78143 2.032
    endloop
  endfacet
  facet normal 0 0 1
    outer loop
      vertex -8.82715 10.0157 2.032
      vertex -13.0229 8.28466 2.032
      vertex -8.99297 9.9049 2.032
    endloop
  endfacet
  facet normal 0 0 1
    outer loop
      vertex -4.5 12.5032 2.032
      vertex -13.0229 8.28466 2.032
      vertex -8.82715 10.0157 2.032
    endloop
  endfacet
  facet normal 0 0 1
    outer loop
      vertex -8.47202 10.1967 2.032
      vertex -8.2849 10.2657 2.032
      vertex -4.5 12.5032 2.032
    endloop
  endfacet
  facet normal 0 0 1
    outer loop
      vertex -4.5 12.5032 2.032
      vertex -8.82715 10.0157 2.032
      vertex -8.65314 10.1132 2.032
    endloop
  endfacet
  facet normal 0 0 1
    outer loop
      vertex -8.2849 10.2657 2.032
      vertex -8.09295 10.3198 2.032
      vertex -4.5 12.5032 2.032
    endloop
  endfacet
  facet normal 0 0 1
    outer loop
      vertex -7.69929 10.3822 2.032
      vertex -7.5 10.39 2.032
      vertex -4.5 12.5032 2.032
    endloop
  endfacet
  facet normal 0 0 1
    outer loop
      vertex -7.5 10.39 2.032
      vertex -7.30071 10.3822 2.032
      vertex -4.5 12.5032 2.032
    endloop
  endfacet
  facet normal 0 0 1
    outer loop
      vertex -7.30071 10.3822 2.032
      vertex -7.10266 10.3587 2.032
      vertex -4.5 12.5032 2.032
    endloop
  endfacet
  facet normal 0 0 1
    outer loop
      vertex -7.10266 10.3587 2.032
      vertex -6.90705 10.3198 2.032
      vertex -4.5 12.5032 2.032
    endloop
  endfacet
  facet normal 0 0 1
    outer loop
      vertex -4.99127 7.45266 2.032
      vertex -5.03018 7.25705 2.032
      vertex -4.5 3.19677 2.032
    endloop
  endfacet
  facet normal 0 0 1
    outer loop
      vertex -7.10266 5.34127 2.032
      vertex -7.30071 5.31783 2.032
      vertex -4.5 3.19677 2.032
    endloop
  endfacet
  facet normal 0 0 1
    outer loop
      vertex -8.09295 5.38018 2.032
      vertex -8.2849 5.43432 2.032
      vertex -4.5 3.19677 2.032
    endloop
  endfacet
  facet normal 0 0 1
    outer loop
      vertex -4.5 12.5032 2.032
      vertex -6.90705 10.3198 2.032
      vertex -6.7151 10.2657 2.032
    endloop
  endfacet
  facet normal 0 0 1
    outer loop
      vertex -4.5 12.5032 2.032
      vertex -6.7151 10.2657 2.032
      vertex -6.52798 10.1967 2.032
    endloop
  endfacet
  facet normal 0 0 1
    outer loop
      vertex -5.4451 6.35702 2.032
      vertex -5.56857 6.2004 2.032
      vertex -4.5 3.19677 2.032
    endloop
  endfacet
  facet normal 0 0 1
    outer loop
      vertex -4.5 12.5032 2.032
      vertex -6.52798 10.1967 2.032
      vertex -6.34686 10.1132 2.032
    endloop
  endfacet
  facet normal 0 0 1
    outer loop
      vertex -4.5 12.5032 2.032
      vertex -6.34686 10.1132 2.032
      vertex -6.17285 10.0157 2.032
    endloop
  endfacet
  facet normal 0 0 1
    outer loop
      vertex -5.33429 6.52285 2.032
      vertex -5.4451 6.35702 2.032
      vertex -4.5 3.19677 2.032
    endloop
  endfacet
  facet normal 0 0 1
    outer loop
      vertex -4.5 12.5032 2.032
      vertex -6.17285 10.0157 2.032
      vertex -6.00702 9.9049 2.032
    endloop
  endfacet
  facet normal 0 0 1
    outer loop
      vertex -4.5 12.5032 2.032
      vertex -6.00702 9.9049 2.032
      vertex -5.8504 9.78143 2.032
    endloop
  endfacet
  facet normal 0 0 1
    outer loop
      vertex -5.23684 6.69686 2.032
      vertex -5.33429 6.52285 2.032
      vertex -4.5 3.19677 2.032
    endloop
  endfacet
  facet normal 0 0 1
    outer loop
      vertex -4.5 12.5032 2.032
      vertex -5.8504 9.78143 2.032
      vertex -5.70395 9.64605 2.032
    endloop
  endfacet
  facet normal 0 0 1
    outer loop
      vertex -4.5 12.5032 2.032
      vertex -5.70395 9.64605 2.032
      vertex -5.56857 9.4996 2.032
    endloop
  endfacet
  facet normal 0 0 1
    outer loop
      vertex -5.15335 6.87798 2.032
      vertex -5.23684 6.69686 2.032
      vertex -4.5 3.19677 2.032
    endloop
  endfacet
  facet normal 0 0 1
    outer loop
      vertex -4.5 12.5032 2.032
      vertex -5.56857 9.4996 2.032
      vertex -5.4451 9.34297 2.032
    endloop
  endfacet
  facet normal 0 0 1
    outer loop
      vertex -4.5 12.5032 2.032
      vertex -5.4451 9.34297 2.032
      vertex -5.33429 9.17715 2.032
    endloop
  endfacet
  facet normal 0 0 1
    outer loop
      vertex -5.03018 7.25705 2.032
      vertex -5.08432 7.0651 2.032
      vertex -4.5 3.19677 2.032
    endloop
  endfacet
  facet normal 0 0 1
    outer loop
      vertex -4.5 12.5032 2.032
      vertex -5.33429 9.17715 2.032
      vertex -5.23684 9.00314 2.032
    endloop
  endfacet
  facet normal 0 0 1
    outer loop
      vertex -5.08432 7.0651 2.032
      vertex -5.15335 6.87798 2.032
      vertex -4.5 3.19677 2.032
    endloop
  endfacet
  facet normal 0 0 1
    outer loop
      vertex -4.5 12.5032 2.032
      vertex -5.23684 9.00314 2.032
      vertex -5.15335 8.82202 2.032
    endloop
  endfacet
  facet normal 0 0 1
    outer loop
      vertex -4.5 12.5032 2.032
      vertex -5.15335 8.82202 2.032
      vertex -5.08432 8.6349 2.032
    endloop
  endfacet
  facet normal 0 0 1
    outer loop
      vertex -4.96783 7.65071 2.032
      vertex -4.99127 7.45266 2.032
      vertex -4.5 3.19677 2.032
    endloop
  endfacet
  facet normal 0 0 1
    outer loop
      vertex -4.5 12.5032 2.032
      vertex -5.08432 8.6349 2.032
      vertex -5.03018 8.44295 2.032
    endloop
  endfacet
  facet normal 0 0 1
    outer loop
      vertex -4.96 7.85 2.032
      vertex -4.96783 7.65071 2.032
      vertex -4.5 3.19677 2.032
    endloop
  endfacet
  facet normal 0 0 1
    outer loop
      vertex -4.5 12.5032 2.032
      vertex -5.03018 8.44295 2.032
      vertex -4.99127 8.24734 2.032
    endloop
  endfacet
  facet normal 0 0 1
    outer loop
      vertex -4.5 12.5032 2.032
      vertex -4.96783 8.04929 2.032
      vertex -4.5 3.19677 2.032
    endloop
  endfacet
  facet normal 0 0 1
    outer loop
      vertex -4.5 12.5032 2.032
      vertex -4.99127 8.24734 2.032
      vertex -4.96783 8.04929 2.032
    endloop
  endfacet
  facet normal 0 0 1
    outer loop
      vertex -5.56857 6.2004 2.032
      vertex -5.70395 6.05395 2.032
      vertex -4.5 3.19677 2.032
    endloop
  endfacet
  facet normal 0 0 1
    outer loop
      vertex -5.70395 6.05395 2.032
      vertex -5.8504 5.91857 2.032
      vertex -4.5 3.19677 2.032
    endloop
  endfacet
  facet normal 0 0 1
    outer loop
      vertex -5.8504 5.91857 2.032
      vertex -6.00702 5.7951 2.032
      vertex -4.5 3.19677 2.032
    endloop
  endfacet
  facet normal 0 0 1
    outer loop
      vertex -6.00702 5.7951 2.032
      vertex -6.17285 5.68429 2.032
      vertex -4.5 3.19677 2.032
    endloop
  endfacet
  facet normal 0 0 1
    outer loop
      vertex -6.17285 5.68429 2.032
      vertex -6.34686 5.58684 2.032
      vertex -4.5 3.19677 2.032
    endloop
  endfacet
  facet normal 0 0 1
    outer loop
      vertex -6.34686 5.58684 2.032
      vertex -6.52798 5.50335 2.032
      vertex -4.5 3.19677 2.032
    endloop
  endfacet
  facet normal 0 0 1
    outer loop
      vertex -6.52798 5.50335 2.032
      vertex -6.7151 5.43432 2.032
      vertex -4.5 3.19677 2.032
    endloop
  endfacet
  facet normal 0 0 1
    outer loop
      vertex -6.7151 5.43432 2.032
      vertex -6.90705 5.38018 2.032
      vertex -4.5 3.19677 2.032
    endloop
  endfacet
  facet normal 0 0 1
    outer loop
      vertex -6.90705 5.38018 2.032
      vertex -7.10266 5.34127 2.032
      vertex -4.5 3.19677 2.032
    endloop
  endfacet
  facet normal 0 0 1
    outer loop
      vertex -7.30071 5.31783 2.032
      vertex -7.5 5.31 2.032
      vertex -4.5 3.19677 2.032
    endloop
  endfacet
  facet normal 0 0 1
    outer loop
      vertex -7.5 5.31 2.032
      vertex -7.69929 5.31783 2.032
      vertex -4.5 3.19677 2.032
    endloop
  endfacet
  facet normal 0 0 1
    outer loop
      vertex -7.69929 5.31783 2.032
      vertex -7.89734 5.34127 2.032
      vertex -4.5 3.19677 2.032
    endloop
  endfacet
  facet normal 0 0 1
    outer loop
      vertex -9.5549 6.35702 2.032
      vertex -9.66571 6.52285 2.032
      vertex -13.0229 8.28466 2.032
    endloop
  endfacet
  facet normal 0 0 1
    outer loop
      vertex -7.89734 5.34127 2.032
      vertex -8.09295 5.38018 2.032
      vertex -4.5 3.19677 2.032
    endloop
  endfacet
  facet normal 0 0 1
    outer loop
      vertex -4.5 3.19677 2.032
      vertex -8.2849 5.43432 2.032
      vertex -4.60536 3.12637 2.032
    endloop
  endfacet
  facet normal 0 0 1
    outer loop
      vertex -8.2849 5.43432 2.032
      vertex -8.47202 5.50335 2.032
      vertex -4.60536 3.12637 2.032
    endloop
  endfacet
  facet normal 0 0 1
    outer loop
      vertex -4.60536 3.12637 2.032
      vertex -8.65314 5.58684 2.032
      vertex -4.98489 2.91382 2.032
    endloop
  endfacet
  facet normal 0 0 1
    outer loop
      vertex -8.65314 5.58684 2.032
      vertex -8.82715 5.68429 2.032
      vertex -4.98489 2.91382 2.032
    endloop
  endfacet
  facet normal 0 0 1
    outer loop
      vertex -8.99297 5.7951 2.032
      vertex -13.0229 8.28466 2.032
      vertex -8.82715 5.68429 2.032
    endloop
  endfacet
  facet normal 0 0 1
    outer loop
      vertex -9.43143 6.2004 2.032
      vertex -9.5549 6.35702 2.032
      vertex -13.0229 8.28466 2.032
    endloop
  endfacet
  facet normal 0 0 1
    outer loop
      vertex -9.29605 6.05395 2.032
      vertex -9.43143 6.2004 2.032
      vertex -13.0229 8.28466 2.032
    endloop
  endfacet
  facet normal 0 0 1
    outer loop
      vertex -9.1496 5.91857 2.032
      vertex -9.29605 6.05395 2.032
      vertex -13.0229 8.28466 2.032
    endloop
  endfacet
  facet normal 0 0 1
    outer loop
      vertex -8.47202 5.50335 2.032
      vertex -8.65314 5.58684 2.032
      vertex -4.60536 3.12637 2.032
    endloop
  endfacet
  facet normal 0 0 1
    outer loop
      vertex -9.66571 6.52285 2.032
      vertex -9.76316 6.69686 2.032
      vertex -13.0229 8.28466 2.032
    endloop
  endfacet
  facet normal 0 0 1
    outer loop
      vertex -9.84665 6.87798 2.032
      vertex -13.0229 8.28466 2.032
      vertex -9.76316 6.69686 2.032
    endloop
  endfacet
  facet normal 0 0 1
    outer loop
      vertex -9.91568 7.0651 2.032
      vertex -13.0229 8.28466 2.032
      vertex -9.84665 6.87798 2.032
    endloop
  endfacet
  facet normal 0 0 1
    outer loop
      vertex -9.96982 7.25705 2.032
      vertex -13.0229 8.28466 2.032
      vertex -9.91568 7.0651 2.032
    endloop
  endfacet
  facet normal 0 0 1
    outer loop
      vertex -10.0087 7.45266 2.032
      vertex -13.0229 8.28466 2.032
      vertex -9.96982 7.25705 2.032
    endloop
  endfacet
  facet normal 0 0 1
    outer loop
      vertex -10.0322 7.65071 2.032
      vertex -13.0229 8.28466 2.032
      vertex -10.0087 7.45266 2.032
    endloop
  endfacet
  facet normal 0 0 1
    outer loop
      vertex -8.65314 10.1132 2.032
      vertex -8.47202 10.1967 2.032
      vertex -4.5 12.5032 2.032
    endloop
  endfacet
  facet normal 0 0 1
    outer loop
      vertex -8.09295 10.3198 2.032
      vertex -7.89734 10.3587 2.032
      vertex -4.5 12.5032 2.032
    endloop
  endfacet
  facet normal 0 0 1
    outer loop
      vertex -4.5 14.179 3.048
      vertex -4.5 1.479 3.048
      vertex -3 1.479 3.048
    endloop
  endfacet
  facet normal 0 0 1
    outer loop
      vertex -3 14.179 3.048
      vertex -4.5 14.179 3.048
      vertex -3 1.479 3.048
    endloop
  endfacet
  facet normal -1 0 0
    outer loop
      vertex -3 0.1 0.01
      vertex -3 0.1 7.074
      vertex -3 1.479 0.01
    endloop
  endfacet
  facet normal -1 0 0
    outer loop
      vertex -3 1.479 3.048
      vertex -3 0.1 7.074
      vertex -3 15.8 7.074
    endloop
  endfacet
  facet normal -1 0 0
    outer loop
      vertex -3 14.179 0.01
      vertex -3 15.8 7.074
      vertex -3 15.8 0.01
    endloop
  endfacet
  facet normal -1 0 0
    outer loop
      vertex -3 14.179 3.048
      vertex -3 15.8 7.074
      vertex -3 14.179 0.01
    endloop
  endfacet
  facet normal -1 0 0
    outer loop
      vertex -3 1.479 0.01
      vertex -3 0.1 7.074
      vertex -3 1.479 3.048
    endloop
  endfacet
  facet normal -1 0 0
    outer loop
      vertex -3 1.479 3.048
      vertex -3 15.8 7.074
      vertex -3 14.179 3.048
    endloop
  endfacet
  facet normal 0 0 -1
    outer loop
      vertex -3 0.1 0.01
      vertex -3 1.479 0.01
      vertex 0 0.1 0.01
    endloop
  endfacet
  facet normal 0 0 -1
    outer loop
      vertex 0 0.1 0.01
      vertex -3 1.479 0.01
      vertex -1.5 1.479 0.01
    endloop
  endfacet
  facet normal 0 0 -1
    outer loop
      vertex 0 0.1 0.01
      vertex -1.5 1.479 0.01
      vertex -1.5 14.179 0.01
    endloop
  endfacet
  facet normal 0 0 -1
    outer loop
      vertex -1.5 14.179 0.01
      vertex -3 14.179 0.01
      vertex -3 15.8 0.01
    endloop
  endfacet
  facet normal 0 0 -1
    outer loop
      vertex -1.5 14.179 0.01
      vertex -3 15.8 0.01
      vertex 0 15.8 0.01
    endloop
  endfacet
  facet normal 0 0 -1
    outer loop
      vertex -1.5 14.179 0.01
      vertex 0 15.8 0.01
      vertex 0 0.1 0.01
    endloop
  endfacet
  facet normal 0 1 0
    outer loop
      vertex -3 15.8 0.01
      vertex -3 15.8 7.074
      vertex 0 15.8 0.01
    endloop
  endfacet
  facet normal 0 1 0
    outer loop
      vertex 0 15.8 4.064
      vertex -3 15.8 7.074
      vertex 19.51 15.8 7.074
    endloop
  endfacet
  facet normal 0 1 0
    outer loop
      vertex 16.51 15.8 0.01
      vertex 19.51 15.8 7.074
      vertex 19.51 15.8 0.01
    endloop
  endfacet
  facet normal 0 1 0
    outer loop
      vertex 16.51 15.8 4.064
      vertex 19.51 15.8 7.074
      vertex 16.51 15.8 0.01
    endloop
  endfacet
  facet normal 0 1 0
    outer loop
      vertex 0 15.8 0.01
      vertex -3 15.8 7.074
      vertex 0 15.8 4.064
    endloop
  endfacet
  facet normal 0 1 0
    outer loop
      vertex 0 15.8 4.064
      vertex 19.51 15.8 7.074
      vertex 16.51 15.8 4.064
    endloop
  endfacet
  facet normal 0 0 1
    outer loop
      vertex -3 15.8 7.074
      vertex -3 0.1 7.074
      vertex 19.51 0.1 7.074
    endloop
  endfacet
  facet normal 0 0 1
    outer loop
      vertex 19.51 15.8 7.074
      vertex -3 15.8 7.074
      vertex 19.51 0.1 7.074
    endloop
  endfacet
  facet normal 0 -1 0
    outer loop
      vertex -3 0.1 7.074
      vertex -3 0.1 0.01
      vertex 0 0.1 0.01
    endloop
  endfacet
  facet normal 0 -1 0
    outer loop
      vertex 16.51 0.1 4.064
      vertex -3 0.1 7.074
      vertex 0 0.1 4.064
    endloop
  endfacet
  facet normal 0 -1 0
    outer loop
      vertex 0 0.1 4.064
      vertex -3 0.1 7.074
      vertex 0 0.1 0.01
    endloop
  endfacet
  facet normal 0 -1 0
    outer loop
      vertex 19.51 0.1 7.074
      vertex -3 0.1 7.074
      vertex 16.51 0.1 4.064
    endloop
  endfacet
  facet normal 0 -1 0
    outer loop
      vertex 19.51 0.1 0.01
      vertex 16.51 0.1 4.064
      vertex 16.51 0.1 0.01
    endloop
  endfacet
  facet normal 0 -1 0
    outer loop
      vertex 19.51 0.1 7.074
      vertex 16.51 0.1 4.064
      vertex 19.51 0.1 0.01
    endloop
  endfacet
  facet normal 1 0 0
    outer loop
      vertex 0 15.8 0.01
      vertex 0 15.8 4.064
      vertex 0 0.1 4.064
    endloop
  endfacet
  facet normal 1 0 0
    outer loop
      vertex 0 0.1 0.01
      vertex 0 15.8 0.01
      vertex 0 0.1 4.064
    endloop
  endfacet
  facet normal 0 0 -1
    outer loop
      vertex 16.51 15.8 4.064
      vertex 16.51 0.1 4.064
      vertex 0 15.8 4.064
    endloop
  endfacet
  facet normal 0 0 -1
    outer loop
      vertex 0 15.8 4.064
      vertex 16.51 0.1 4.064
      vertex 0 0.1 4.064
    endloop
  endfacet
  facet normal -1 0 0
    outer loop
      vertex 16.51 15.8 4.064
      vertex 16.51 15.8 0.01
      vertex 16.51 0.1 4.064
    endloop
  endfacet
  facet normal -1 0 0
    outer loop
      vertex 16.51 0.1 4.064
      vertex 16.51 15.8 0.01
      vertex 16.51 0.1 0.01
    endloop
  endfacet
  facet normal 0 0 -1
    outer loop
      vertex 16.51 0.1 0.01
      vertex 16.51 15.8 0.01
      vertex 19.51 0.1 0.01
    endloop
  endfacet
  facet normal 0 0 -1
    outer loop
      vertex 19.51 0.1 0.01
      vertex 16.51 15.8 0.01
      vertex 19.51 15.8 0.01
    endloop
  endfacet
  facet normal 1 0 0
    outer loop
      vertex 19.51 0.1 7.074
      vertex 19.51 0.1 0.01
      vertex 19.51 15.8 0.01
    endloop
  endfacet
  facet normal 1 0 0
    outer loop
      vertex 19.51 15.8 7.074
      vertex 19.51 0.1 7.074
      vertex 19.51 15.8 0.01
    endloop
  endfacet
endsolid OpenSCAD_Model
