solid OpenSCAD_Model
  facet normal 0 0 -1
    outer loop
      vertex -13.04 8 0
      vertex -13.0229 8.43466 0
      vertex -13.0229 7.56534 0
    endloop
  endfacet
  facet normal 0 0 -1
    outer loop
      vertex -13.0229 7.56534 0
      vertex -13.0229 8.43466 0
      vertex -12.9718 8.86665 0
    endloop
  endfacet
  facet normal 0 0 -1
    outer loop
      vertex -13.0229 7.56534 0
      vertex -12.9718 8.86665 0
      vertex -12.8869 9.29329 0
    endloop
  endfacet
  facet normal 0 0 -1
    outer loop
      vertex -13.0229 7.56534 0
      vertex -12.8869 9.29329 0
      vertex -12.7689 9.71195 0
    endloop
  endfacet
  facet normal 0 0 -1
    outer loop
      vertex -13.0229 7.56534 0
      vertex -12.7689 9.71195 0
      vertex -12.6183 10.1201 0
    endloop
  endfacet
  facet normal 0 0 -1
    outer loop
      vertex -13.0229 7.56534 0
      vertex -12.6183 10.1201 0
      vertex -12.4362 10.5151 0
    endloop
  endfacet
  facet normal 0 0 -1
    outer loop
      vertex -13.0229 7.56534 0
      vertex -12.4362 10.5151 0
      vertex -12.2236 10.8946 0
    endloop
  endfacet
  facet normal 0 0 -1
    outer loop
      vertex -13.0229 7.56534 0
      vertex -12.2236 10.8946 0
      vertex -11.982 11.2563 0
    endloop
  endfacet
  facet normal 0 0 -1
    outer loop
      vertex -13.0229 7.56534 0
      vertex -11.982 11.2563 0
      vertex -11.7126 11.5979 0
    endloop
  endfacet
  facet normal 0 0 -1
    outer loop
      vertex -13.0229 7.56534 0
      vertex -11.7126 11.5979 0
      vertex -11.4174 11.9174 0
    endloop
  endfacet
  facet normal 0 0 -1
    outer loop
      vertex -13.0229 7.56534 0
      vertex -11.4174 11.9174 0
      vertex -11.0979 12.2126 0
    endloop
  endfacet
  facet normal 0 0 -1
    outer loop
      vertex -13.0229 7.56534 0
      vertex -11.0979 12.2126 0
      vertex -10.7563 12.482 0
    endloop
  endfacet
  facet normal 0 0 -1
    outer loop
      vertex -13.0229 7.56534 0
      vertex -10.7563 12.482 0
      vertex -10.3946 12.7236 0
    endloop
  endfacet
  facet normal 0 0 -1
    outer loop
      vertex -13.0229 7.56534 0
      vertex -10.3946 12.7236 0
      vertex -10.0151 12.9362 0
    endloop
  endfacet
  facet normal 0 0 -1
    outer loop
      vertex -13.0229 7.56534 0
      vertex -10.0151 12.9362 0
      vertex -9.62007 13.1183 0
    endloop
  endfacet
  facet normal 0 0 -1
    outer loop
      vertex -13.0229 7.56534 0
      vertex -9.62007 13.1183 0
      vertex -9.21195 13.2689 0
    endloop
  endfacet
  facet normal 0 0 -1
    outer loop
      vertex -13.0229 7.56534 0
      vertex -9.21195 13.2689 0
      vertex -8.79329 13.3869 0
    endloop
  endfacet
  facet normal 0 0 -1
    outer loop
      vertex -13.0229 7.56534 0
      vertex -8.79329 13.3869 0
      vertex -8.36665 13.4718 0
    endloop
  endfacet
  facet normal 0 0 -1
    outer loop
      vertex -13.0229 7.56534 0
      vertex -8.36665 13.4718 0
      vertex -7.93466 13.5229 0
    endloop
  endfacet
  facet normal 0 0 -1
    outer loop
      vertex -13.0229 7.56534 0
      vertex -7.93466 13.5229 0
      vertex -7.5 13.54 0
    endloop
  endfacet
  facet normal 0 0 -1
    outer loop
      vertex -13.0229 7.56534 0
      vertex -7.5 13.54 0
      vertex -7.06534 13.5229 0
    endloop
  endfacet
  facet normal 0 0 -1
    outer loop
      vertex -13.0229 7.56534 0
      vertex -7.06534 13.5229 0
      vertex -6.63335 13.4718 0
    endloop
  endfacet
  facet normal 0 0 -1
    outer loop
      vertex -13.0229 7.56534 0
      vertex -6.63335 13.4718 0
      vertex -6.20671 13.3869 0
    endloop
  endfacet
  facet normal 0 0 -1
    outer loop
      vertex -13.0229 7.56534 0
      vertex -6.20671 13.3869 0
      vertex -5.78805 13.2689 0
    endloop
  endfacet
  facet normal 0 0 -1
    outer loop
      vertex -13.0229 7.56534 0
      vertex -5.78805 13.2689 0
      vertex -5.37993 13.1183 0
    endloop
  endfacet
  facet normal 0 0 -1
    outer loop
      vertex -13.0229 7.56534 0
      vertex -5.37993 13.1183 0
      vertex -4.98489 12.9362 0
    endloop
  endfacet
  facet normal 0 0 -1
    outer loop
      vertex -8.65314 10.2632 0
      vertex -4.98489 12.9362 0
      vertex -4.60536 12.7236 0
    endloop
  endfacet
  facet normal 0 0 -1
    outer loop
      vertex -8.2849 10.4157 0
      vertex -4.60536 12.7236 0
      vertex -4.5 12.6532 0
    endloop
  endfacet
  facet normal 0 0 -1
    outer loop
      vertex -4.5 12.6532 0
      vertex -4.5 14.629 0
      vertex -1.5 14.629 0
    endloop
  endfacet
  facet normal 0 0 -1
    outer loop
      vertex -4.5 12.6532 0
      vertex -1.5 14.629 0
      vertex -1.5 1.629 0
    endloop
  endfacet
  facet normal 0 0 -1
    outer loop
      vertex -4.5 12.6532 0
      vertex -1.5 1.629 0
      vertex -4.5 3.34677 0
    endloop
  endfacet
  facet normal 0 0 -1
    outer loop
      vertex -8.82715 5.83429 0
      vertex -4.5 3.34677 0
      vertex -13.0229 7.56534 0
    endloop
  endfacet
  facet normal 0 0 -1
    outer loop
      vertex -6.20671 2.61307 0
      vertex -13.0229 7.56534 0
      vertex -5.78805 2.73115 0
    endloop
  endfacet
  facet normal 0 0 -1
    outer loop
      vertex -4.5 3.34677 0
      vertex -4.60536 3.27637 0
      vertex -13.0229 7.56534 0
    endloop
  endfacet
  facet normal 0 0 -1
    outer loop
      vertex -13.0229 7.56534 0
      vertex -4.98489 3.06382 0
      vertex -5.37993 2.88171 0
    endloop
  endfacet
  facet normal 0 0 -1
    outer loop
      vertex -13.0229 7.56534 0
      vertex -5.37993 2.88171 0
      vertex -5.78805 2.73115 0
    endloop
  endfacet
  facet normal 0 0 -1
    outer loop
      vertex -8.47202 5.65335 0
      vertex -4.5 3.34677 0
      vertex -8.65314 5.73684 0
    endloop
  endfacet
  facet normal 0 0 -1
    outer loop
      vertex -13.0229 7.56534 0
      vertex -6.20671 2.61307 0
      vertex -6.63335 2.52821 0
    endloop
  endfacet
  facet normal 0 0 -1
    outer loop
      vertex -13.0229 7.56534 0
      vertex -6.63335 2.52821 0
      vertex -7.06534 2.47708 0
    endloop
  endfacet
  facet normal 0 0 -1
    outer loop
      vertex -13.0229 7.56534 0
      vertex -7.06534 2.47708 0
      vertex -7.5 2.46 0
    endloop
  endfacet
  facet normal 0 0 -1
    outer loop
      vertex -13.0229 7.56534 0
      vertex -7.5 2.46 0
      vertex -7.93466 2.47708 0
    endloop
  endfacet
  facet normal 0 0 -1
    outer loop
      vertex -13.0229 7.56534 0
      vertex -7.93466 2.47708 0
      vertex -8.36665 2.52821 0
    endloop
  endfacet
  facet normal 0 0 -1
    outer loop
      vertex -13.0229 7.56534 0
      vertex -8.36665 2.52821 0
      vertex -8.79329 2.61307 0
    endloop
  endfacet
  facet normal 0 0 -1
    outer loop
      vertex -13.0229 7.56534 0
      vertex -8.79329 2.61307 0
      vertex -9.21195 2.73115 0
    endloop
  endfacet
  facet normal 0 0 -1
    outer loop
      vertex -13.0229 7.56534 0
      vertex -9.21195 2.73115 0
      vertex -9.62007 2.88171 0
    endloop
  endfacet
  facet normal 0 0 -1
    outer loop
      vertex -13.0229 7.56534 0
      vertex -9.62007 2.88171 0
      vertex -10.0151 3.06382 0
    endloop
  endfacet
  facet normal 0 0 -1
    outer loop
      vertex -13.0229 7.56534 0
      vertex -10.0151 3.06382 0
      vertex -10.3946 3.27637 0
    endloop
  endfacet
  facet normal 0 0 -1
    outer loop
      vertex -13.0229 7.56534 0
      vertex -10.3946 3.27637 0
      vertex -10.7563 3.51805 0
    endloop
  endfacet
  facet normal 0 0 -1
    outer loop
      vertex -13.0229 7.56534 0
      vertex -10.7563 3.51805 0
      vertex -11.0979 3.78735 0
    endloop
  endfacet
  facet normal 0 0 -1
    outer loop
      vertex -13.0229 7.56534 0
      vertex -11.0979 3.78735 0
      vertex -11.4174 4.08263 0
    endloop
  endfacet
  facet normal 0 0 -1
    outer loop
      vertex -13.0229 7.56534 0
      vertex -11.4174 4.08263 0
      vertex -11.7126 4.40206 0
    endloop
  endfacet
  facet normal 0 0 -1
    outer loop
      vertex -13.0229 7.56534 0
      vertex -11.7126 4.40206 0
      vertex -11.982 4.74367 0
    endloop
  endfacet
  facet normal 0 0 -1
    outer loop
      vertex -13.0229 7.56534 0
      vertex -11.982 4.74367 0
      vertex -12.2236 5.10536 0
    endloop
  endfacet
  facet normal 0 0 -1
    outer loop
      vertex -13.0229 7.56534 0
      vertex -12.2236 5.10536 0
      vertex -12.4362 5.48489 0
    endloop
  endfacet
  facet normal 0 0 -1
    outer loop
      vertex -13.0229 7.56534 0
      vertex -12.4362 5.48489 0
      vertex -12.6183 5.87993 0
    endloop
  endfacet
  facet normal 0 0 -1
    outer loop
      vertex -13.0229 7.56534 0
      vertex -12.6183 5.87993 0
      vertex -12.7689 6.28805 0
    endloop
  endfacet
  facet normal 0 0 -1
    outer loop
      vertex -13.0229 7.56534 0
      vertex -12.7689 6.28805 0
      vertex -12.8869 6.70671 0
    endloop
  endfacet
  facet normal 0 0 -1
    outer loop
      vertex -13.0229 7.56534 0
      vertex -12.8869 6.70671 0
      vertex -12.9718 7.13335 0
    endloop
  endfacet
  facet normal 0 0 -1
    outer loop
      vertex -4.96 8 0
      vertex -4.5 12.6532 0
      vertex -4.96783 7.80071 0
    endloop
  endfacet
  facet normal 0 0 -1
    outer loop
      vertex -10.0322 8.19929 0
      vertex -10.04 8 0
      vertex -13.0229 7.56534 0
    endloop
  endfacet
  facet normal 0 0 -1
    outer loop
      vertex -6.90705 5.53018 0
      vertex -4.5 3.34677 0
      vertex -7.10266 5.49127 0
    endloop
  endfacet
  facet normal 0 0 -1
    outer loop
      vertex -10.04 8 0
      vertex -10.0322 7.80071 0
      vertex -13.0229 7.56534 0
    endloop
  endfacet
  facet normal 0 0 -1
    outer loop
      vertex -10.0322 7.80071 0
      vertex -10.0087 7.60266 0
      vertex -13.0229 7.56534 0
    endloop
  endfacet
  facet normal 0 0 -1
    outer loop
      vertex -7.10266 5.49127 0
      vertex -4.5 3.34677 0
      vertex -7.30071 5.46783 0
    endloop
  endfacet
  facet normal 0 0 -1
    outer loop
      vertex -10.0087 7.60266 0
      vertex -9.96982 7.40705 0
      vertex -13.0229 7.56534 0
    endloop
  endfacet
  facet normal 0 0 -1
    outer loop
      vertex -9.96982 7.40705 0
      vertex -9.91568 7.2151 0
      vertex -13.0229 7.56534 0
    endloop
  endfacet
  facet normal 0 0 -1
    outer loop
      vertex -7.30071 5.46783 0
      vertex -4.5 3.34677 0
      vertex -7.5 5.46 0
    endloop
  endfacet
  facet normal 0 0 -1
    outer loop
      vertex -9.91568 7.2151 0
      vertex -9.84665 7.02798 0
      vertex -13.0229 7.56534 0
    endloop
  endfacet
  facet normal 0 0 -1
    outer loop
      vertex -9.84665 7.02798 0
      vertex -9.76316 6.84686 0
      vertex -13.0229 7.56534 0
    endloop
  endfacet
  facet normal 0 0 -1
    outer loop
      vertex -7.5 5.46 0
      vertex -4.5 3.34677 0
      vertex -7.69929 5.46783 0
    endloop
  endfacet
  facet normal 0 0 -1
    outer loop
      vertex -9.76316 6.84686 0
      vertex -9.66571 6.67285 0
      vertex -13.0229 7.56534 0
    endloop
  endfacet
  facet normal 0 0 -1
    outer loop
      vertex -7.69929 5.46783 0
      vertex -4.5 3.34677 0
      vertex -7.89734 5.49127 0
    endloop
  endfacet
  facet normal 0 0 -1
    outer loop
      vertex -9.66571 6.67285 0
      vertex -9.5549 6.50702 0
      vertex -13.0229 7.56534 0
    endloop
  endfacet
  facet normal 0 0 -1
    outer loop
      vertex -9.5549 6.50702 0
      vertex -9.43143 6.3504 0
      vertex -13.0229 7.56534 0
    endloop
  endfacet
  facet normal 0 0 -1
    outer loop
      vertex -7.89734 5.49127 0
      vertex -4.5 3.34677 0
      vertex -8.09295 5.53018 0
    endloop
  endfacet
  facet normal 0 0 -1
    outer loop
      vertex -9.43143 6.3504 0
      vertex -9.29605 6.20395 0
      vertex -13.0229 7.56534 0
    endloop
  endfacet
  facet normal 0 0 -1
    outer loop
      vertex -8.09295 5.53018 0
      vertex -4.5 3.34677 0
      vertex -8.2849 5.58432 0
    endloop
  endfacet
  facet normal 0 0 -1
    outer loop
      vertex -9.29605 6.20395 0
      vertex -9.1496 6.06857 0
      vertex -13.0229 7.56534 0
    endloop
  endfacet
  facet normal 0 0 -1
    outer loop
      vertex -8.2849 5.58432 0
      vertex -4.5 3.34677 0
      vertex -8.47202 5.65335 0
    endloop
  endfacet
  facet normal 0 0 -1
    outer loop
      vertex -9.1496 6.06857 0
      vertex -8.99297 5.9451 0
      vertex -13.0229 7.56534 0
    endloop
  endfacet
  facet normal 0 0 -1
    outer loop
      vertex -8.65314 5.73684 0
      vertex -4.5 3.34677 0
      vertex -8.82715 5.83429 0
    endloop
  endfacet
  facet normal 0 0 -1
    outer loop
      vertex -8.99297 5.9451 0
      vertex -8.82715 5.83429 0
      vertex -13.0229 7.56534 0
    endloop
  endfacet
  facet normal 0 0 -1
    outer loop
      vertex -6.7151 5.58432 0
      vertex -4.5 3.34677 0
      vertex -6.90705 5.53018 0
    endloop
  endfacet
  facet normal 0 0 -1
    outer loop
      vertex -6.52798 5.65335 0
      vertex -4.5 3.34677 0
      vertex -6.7151 5.58432 0
    endloop
  endfacet
  facet normal 0 0 -1
    outer loop
      vertex -6.34686 5.73684 0
      vertex -4.5 3.34677 0
      vertex -6.52798 5.65335 0
    endloop
  endfacet
  facet normal 0 0 -1
    outer loop
      vertex -6.17285 5.83429 0
      vertex -4.5 3.34677 0
      vertex -6.34686 5.73684 0
    endloop
  endfacet
  facet normal 0 0 -1
    outer loop
      vertex -6.00702 5.9451 0
      vertex -4.5 3.34677 0
      vertex -6.17285 5.83429 0
    endloop
  endfacet
  facet normal 0 0 -1
    outer loop
      vertex -5.8504 6.06857 0
      vertex -4.5 3.34677 0
      vertex -6.00702 5.9451 0
    endloop
  endfacet
  facet normal 0 0 -1
    outer loop
      vertex -5.70395 6.20395 0
      vertex -4.5 3.34677 0
      vertex -5.8504 6.06857 0
    endloop
  endfacet
  facet normal 0 0 -1
    outer loop
      vertex -5.56857 6.3504 0
      vertex -4.5 3.34677 0
      vertex -5.70395 6.20395 0
    endloop
  endfacet
  facet normal 0 0 -1
    outer loop
      vertex -5.4451 6.50702 0
      vertex -4.5 3.34677 0
      vertex -5.56857 6.3504 0
    endloop
  endfacet
  facet normal 0 0 -1
    outer loop
      vertex -5.33429 6.67285 0
      vertex -4.5 3.34677 0
      vertex -5.4451 6.50702 0
    endloop
  endfacet
  facet normal 0 0 -1
    outer loop
      vertex -5.23684 6.84686 0
      vertex -4.5 3.34677 0
      vertex -5.33429 6.67285 0
    endloop
  endfacet
  facet normal 0 0 -1
    outer loop
      vertex -5.15335 7.02798 0
      vertex -4.5 3.34677 0
      vertex -5.23684 6.84686 0
    endloop
  endfacet
  facet normal 0 0 -1
    outer loop
      vertex -5.08432 7.2151 0
      vertex -4.5 3.34677 0
      vertex -5.15335 7.02798 0
    endloop
  endfacet
  facet normal 0 0 -1
    outer loop
      vertex -5.03018 7.40705 0
      vertex -4.5 3.34677 0
      vertex -5.08432 7.2151 0
    endloop
  endfacet
  facet normal 0 0 -1
    outer loop
      vertex -4.99127 7.60266 0
      vertex -4.5 3.34677 0
      vertex -5.03018 7.40705 0
    endloop
  endfacet
  facet normal 0 0 -1
    outer loop
      vertex -4.96783 7.80071 0
      vertex -4.5 3.34677 0
      vertex -4.99127 7.60266 0
    endloop
  endfacet
  facet normal 0 0 -1
    outer loop
      vertex -4.5 12.6532 0
      vertex -4.5 3.34677 0
      vertex -4.96783 7.80071 0
    endloop
  endfacet
  facet normal 0 0 -1
    outer loop
      vertex -4.96783 8.19929 0
      vertex -4.5 12.6532 0
      vertex -4.96 8 0
    endloop
  endfacet
  facet normal 0 0 -1
    outer loop
      vertex -4.99127 8.39734 0
      vertex -4.5 12.6532 0
      vertex -4.96783 8.19929 0
    endloop
  endfacet
  facet normal 0 0 -1
    outer loop
      vertex -5.03018 8.59295 0
      vertex -4.5 12.6532 0
      vertex -4.99127 8.39734 0
    endloop
  endfacet
  facet normal 0 0 -1
    outer loop
      vertex -5.08432 8.7849 0
      vertex -4.5 12.6532 0
      vertex -5.03018 8.59295 0
    endloop
  endfacet
  facet normal 0 0 -1
    outer loop
      vertex -5.15335 8.97202 0
      vertex -4.5 12.6532 0
      vertex -5.08432 8.7849 0
    endloop
  endfacet
  facet normal 0 0 -1
    outer loop
      vertex -5.23684 9.15314 0
      vertex -4.5 12.6532 0
      vertex -5.15335 8.97202 0
    endloop
  endfacet
  facet normal 0 0 -1
    outer loop
      vertex -5.33429 9.32715 0
      vertex -4.5 12.6532 0
      vertex -5.23684 9.15314 0
    endloop
  endfacet
  facet normal 0 0 -1
    outer loop
      vertex -5.4451 9.49297 0
      vertex -4.5 12.6532 0
      vertex -5.33429 9.32715 0
    endloop
  endfacet
  facet normal 0 0 -1
    outer loop
      vertex -5.56857 9.6496 0
      vertex -4.5 12.6532 0
      vertex -5.4451 9.49297 0
    endloop
  endfacet
  facet normal 0 0 -1
    outer loop
      vertex -7.10266 10.5087 0
      vertex -4.5 12.6532 0
      vertex -6.90705 10.4698 0
    endloop
  endfacet
  facet normal 0 0 -1
    outer loop
      vertex -4.5 12.6532 0
      vertex -5.56857 9.6496 0
      vertex -5.70395 9.79605 0
    endloop
  endfacet
  facet normal 0 0 -1
    outer loop
      vertex -4.5 12.6532 0
      vertex -5.70395 9.79605 0
      vertex -5.8504 9.93143 0
    endloop
  endfacet
  facet normal 0 0 -1
    outer loop
      vertex -4.5 12.6532 0
      vertex -5.8504 9.93143 0
      vertex -6.00702 10.0549 0
    endloop
  endfacet
  facet normal 0 0 -1
    outer loop
      vertex -4.5 12.6532 0
      vertex -6.00702 10.0549 0
      vertex -6.17285 10.1657 0
    endloop
  endfacet
  facet normal 0 0 -1
    outer loop
      vertex -4.5 12.6532 0
      vertex -6.17285 10.1657 0
      vertex -6.34686 10.2632 0
    endloop
  endfacet
  facet normal 0 0 -1
    outer loop
      vertex -4.5 12.6532 0
      vertex -6.34686 10.2632 0
      vertex -6.52798 10.3467 0
    endloop
  endfacet
  facet normal 0 0 -1
    outer loop
      vertex -4.5 12.6532 0
      vertex -6.52798 10.3467 0
      vertex -6.7151 10.4157 0
    endloop
  endfacet
  facet normal 0 0 -1
    outer loop
      vertex -4.5 12.6532 0
      vertex -6.7151 10.4157 0
      vertex -6.90705 10.4698 0
    endloop
  endfacet
  facet normal 0 0 -1
    outer loop
      vertex -8.2849 10.4157 0
      vertex -4.5 12.6532 0
      vertex -8.09295 10.4698 0
    endloop
  endfacet
  facet normal 0 0 -1
    outer loop
      vertex -4.5 12.6532 0
      vertex -7.10266 10.5087 0
      vertex -7.30071 10.5322 0
    endloop
  endfacet
  facet normal 0 0 -1
    outer loop
      vertex -4.5 12.6532 0
      vertex -7.30071 10.5322 0
      vertex -7.5 10.54 0
    endloop
  endfacet
  facet normal 0 0 -1
    outer loop
      vertex -4.5 12.6532 0
      vertex -7.5 10.54 0
      vertex -7.69929 10.5322 0
    endloop
  endfacet
  facet normal 0 0 -1
    outer loop
      vertex -4.5 12.6532 0
      vertex -7.69929 10.5322 0
      vertex -7.89734 10.5087 0
    endloop
  endfacet
  facet normal 0 0 -1
    outer loop
      vertex -4.5 12.6532 0
      vertex -7.89734 10.5087 0
      vertex -8.09295 10.4698 0
    endloop
  endfacet
  facet normal 0 0 -1
    outer loop
      vertex -8.47202 10.3467 0
      vertex -4.60536 12.7236 0
      vertex -8.2849 10.4157 0
    endloop
  endfacet
  facet normal 0 0 -1
    outer loop
      vertex -8.65314 10.2632 0
      vertex -4.60536 12.7236 0
      vertex -8.47202 10.3467 0
    endloop
  endfacet
  facet normal 0 0 -1
    outer loop
      vertex -8.82715 10.1657 0
      vertex -4.98489 12.9362 0
      vertex -8.65314 10.2632 0
    endloop
  endfacet
  facet normal 0 0 -1
    outer loop
      vertex -9.1496 9.93143 0
      vertex -13.0229 7.56534 0
      vertex -8.99297 10.0549 0
    endloop
  endfacet
  facet normal 0 0 -1
    outer loop
      vertex -13.0229 7.56534 0
      vertex -4.98489 12.9362 0
      vertex -8.82715 10.1657 0
    endloop
  endfacet
  facet normal 0 0 -1
    outer loop
      vertex -13.0229 7.56534 0
      vertex -8.82715 10.1657 0
      vertex -8.99297 10.0549 0
    endloop
  endfacet
  facet normal 0 0 -1
    outer loop
      vertex -9.29605 9.79605 0
      vertex -13.0229 7.56534 0
      vertex -9.1496 9.93143 0
    endloop
  endfacet
  facet normal 0 0 -1
    outer loop
      vertex -9.43143 9.6496 0
      vertex -13.0229 7.56534 0
      vertex -9.29605 9.79605 0
    endloop
  endfacet
  facet normal 0 0 -1
    outer loop
      vertex -9.5549 9.49297 0
      vertex -13.0229 7.56534 0
      vertex -9.43143 9.6496 0
    endloop
  endfacet
  facet normal 0 0 -1
    outer loop
      vertex -9.66571 9.32715 0
      vertex -13.0229 7.56534 0
      vertex -9.5549 9.49297 0
    endloop
  endfacet
  facet normal 0 0 -1
    outer loop
      vertex -9.76316 9.15314 0
      vertex -13.0229 7.56534 0
      vertex -9.66571 9.32715 0
    endloop
  endfacet
  facet normal 0 0 -1
    outer loop
      vertex -9.76316 9.15314 0
      vertex -9.84665 8.97202 0
      vertex -13.0229 7.56534 0
    endloop
  endfacet
  facet normal 0 0 -1
    outer loop
      vertex -9.84665 8.97202 0
      vertex -9.91568 8.7849 0
      vertex -13.0229 7.56534 0
    endloop
  endfacet
  facet normal 0 0 -1
    outer loop
      vertex -9.91568 8.7849 0
      vertex -9.96982 8.59295 0
      vertex -13.0229 7.56534 0
    endloop
  endfacet
  facet normal 0 0 -1
    outer loop
      vertex -9.96982 8.59295 0
      vertex -10.0087 8.39734 0
      vertex -13.0229 7.56534 0
    endloop
  endfacet
  facet normal 0 0 -1
    outer loop
      vertex -10.0087 8.39734 0
      vertex -10.0322 8.19929 0
      vertex -13.0229 7.56534 0
    endloop
  endfacet
  facet normal 0 0 -1
    outer loop
      vertex -4.5 3.34677 0
      vertex -1.5 1.629 0
      vertex -4.5 1.629 0
    endloop
  endfacet
  facet normal 0 0 -1
    outer loop
      vertex -4.98489 3.06382 0
      vertex -13.0229 7.56534 0
      vertex -4.60536 3.27637 0
    endloop
  endfacet
  facet normal -0.999229 0.0392599 0
    outer loop
      vertex -13.04 8 0
      vertex -13.04 8 2
      vertex -13.0229 8.43466 0
    endloop
  endfacet
  facet normal -0.999229 0.0392599 0
    outer loop
      vertex -13.0229 8.43466 0
      vertex -13.04 8 2
      vertex -13.0229 8.43466 2
    endloop
  endfacet
  facet normal -0.999229 -0.0392599 0
    outer loop
      vertex -13.04 8 0
      vertex -13.0229 7.56534 0
      vertex -13.04 8 2
    endloop
  endfacet
  facet normal -0.999229 -0.0392599 0
    outer loop
      vertex -13.04 8 2
      vertex -13.0229 7.56534 0
      vertex -13.0229 7.56534 2
    endloop
  endfacet
  facet normal -0.993068 -0.117538 0
    outer loop
      vertex -13.0229 7.56534 0
      vertex -12.9718 7.13335 0
      vertex -13.0229 7.56534 2
    endloop
  endfacet
  facet normal -0.993068 -0.117538 0
    outer loop
      vertex -13.0229 7.56534 2
      vertex -12.9718 7.13335 0
      vertex -12.9718 7.13335 2
    endloop
  endfacet
  facet normal -0.980785 -0.19509 0
    outer loop
      vertex -12.9718 7.13335 0
      vertex -12.8869 6.70671 0
      vertex -12.9718 7.13335 2
    endloop
  endfacet
  facet normal -0.980785 -0.19509 0
    outer loop
      vertex -12.9718 7.13335 2
      vertex -12.8869 6.70671 0
      vertex -12.8869 6.70671 2
    endloop
  endfacet
  facet normal -0.962455 -0.27144 0
    outer loop
      vertex -12.8869 6.70671 0
      vertex -12.7689 6.28805 0
      vertex -12.8869 6.70671 2
    endloop
  endfacet
  facet normal -0.962455 -0.27144 0
    outer loop
      vertex -12.8869 6.70671 2
      vertex -12.7689 6.28805 0
      vertex -12.7689 6.28805 2
    endloop
  endfacet
  facet normal -0.938192 -0.346116 0
    outer loop
      vertex -12.7689 6.28805 0
      vertex -12.6183 5.87993 0
      vertex -12.7689 6.28805 2
    endloop
  endfacet
  facet normal -0.938192 -0.346116 0
    outer loop
      vertex -12.7689 6.28805 2
      vertex -12.6183 5.87993 0
      vertex -12.6183 5.87993 2
    endloop
  endfacet
  facet normal -0.908143 -0.418661 0
    outer loop
      vertex -12.6183 5.87993 0
      vertex -12.4362 5.48489 0
      vertex -12.6183 5.87993 2
    endloop
  endfacet
  facet normal -0.908143 -0.418661 0
    outer loop
      vertex -12.6183 5.87993 2
      vertex -12.4362 5.48489 0
      vertex -12.4362 5.48489 2
    endloop
  endfacet
  facet normal -0.872497 -0.48862 0
    outer loop
      vertex -12.4362 5.48489 0
      vertex -12.2236 5.10536 0
      vertex -12.4362 5.48489 2
    endloop
  endfacet
  facet normal -0.872497 -0.48862 0
    outer loop
      vertex -12.4362 5.48489 2
      vertex -12.2236 5.10536 0
      vertex -12.2236 5.10536 2
    endloop
  endfacet
  facet normal -0.831469 -0.555572 0
    outer loop
      vertex -12.2236 5.10536 0
      vertex -11.982 4.74367 0
      vertex -12.2236 5.10536 2
    endloop
  endfacet
  facet normal -0.831469 -0.555572 0
    outer loop
      vertex -12.2236 5.10536 2
      vertex -11.982 4.74367 0
      vertex -11.982 4.74367 2
    endloop
  endfacet
  facet normal -0.785317 -0.619094 0
    outer loop
      vertex -11.982 4.74367 0
      vertex -11.7126 4.40206 0
      vertex -11.982 4.74367 2
    endloop
  endfacet
  facet normal -0.785317 -0.619094 0
    outer loop
      vertex -11.982 4.74367 2
      vertex -11.7126 4.40206 0
      vertex -11.7126 4.40206 2
    endloop
  endfacet
  facet normal -0.734324 -0.678799 0
    outer loop
      vertex -11.7126 4.40206 0
      vertex -11.4174 4.08263 0
      vertex -11.7126 4.40206 2
    endloop
  endfacet
  facet normal -0.734324 -0.678799 0
    outer loop
      vertex -11.7126 4.40206 2
      vertex -11.4174 4.08263 0
      vertex -11.4174 4.08263 2
    endloop
  endfacet
  facet normal -0.678799 -0.734324 0
    outer loop
      vertex -11.4174 4.08263 2
      vertex -11.4174 4.08263 0
      vertex -11.0979 3.78735 0
    endloop
  endfacet
  facet normal -0.678799 -0.734324 0
    outer loop
      vertex -11.0979 3.78735 2
      vertex -11.4174 4.08263 2
      vertex -11.0979 3.78735 0
    endloop
  endfacet
  facet normal -0.619094 -0.785317 0
    outer loop
      vertex -11.0979 3.78735 2
      vertex -11.0979 3.78735 0
      vertex -10.7563 3.51805 0
    endloop
  endfacet
  facet normal -0.619094 -0.785317 0
    outer loop
      vertex -10.7563 3.51805 2
      vertex -11.0979 3.78735 2
      vertex -10.7563 3.51805 0
    endloop
  endfacet
  facet normal -0.555572 -0.831469 0
    outer loop
      vertex -10.7563 3.51805 2
      vertex -10.7563 3.51805 0
      vertex -10.3946 3.27637 0
    endloop
  endfacet
  facet normal -0.555572 -0.831469 0
    outer loop
      vertex -10.3946 3.27637 2
      vertex -10.7563 3.51805 2
      vertex -10.3946 3.27637 0
    endloop
  endfacet
  facet normal -0.48862 -0.872497 0
    outer loop
      vertex -10.3946 3.27637 2
      vertex -10.3946 3.27637 0
      vertex -10.0151 3.06382 0
    endloop
  endfacet
  facet normal -0.48862 -0.872497 0
    outer loop
      vertex -10.0151 3.06382 2
      vertex -10.3946 3.27637 2
      vertex -10.0151 3.06382 0
    endloop
  endfacet
  facet normal -0.418661 -0.908143 0
    outer loop
      vertex -10.0151 3.06382 2
      vertex -10.0151 3.06382 0
      vertex -9.62007 2.88171 0
    endloop
  endfacet
  facet normal -0.418661 -0.908143 0
    outer loop
      vertex -9.62007 2.88171 2
      vertex -10.0151 3.06382 2
      vertex -9.62007 2.88171 0
    endloop
  endfacet
  facet normal -0.346116 -0.938192 0
    outer loop
      vertex -9.62007 2.88171 2
      vertex -9.62007 2.88171 0
      vertex -9.21195 2.73115 0
    endloop
  endfacet
  facet normal -0.346116 -0.938192 0
    outer loop
      vertex -9.21195 2.73115 2
      vertex -9.62007 2.88171 2
      vertex -9.21195 2.73115 0
    endloop
  endfacet
  facet normal -0.27144 -0.962455 0
    outer loop
      vertex -9.21195 2.73115 2
      vertex -9.21195 2.73115 0
      vertex -8.79329 2.61307 0
    endloop
  endfacet
  facet normal -0.27144 -0.962455 0
    outer loop
      vertex -8.79329 2.61307 2
      vertex -9.21195 2.73115 2
      vertex -8.79329 2.61307 0
    endloop
  endfacet
  facet normal -0.19509 -0.980785 0
    outer loop
      vertex -8.79329 2.61307 2
      vertex -8.79329 2.61307 0
      vertex -8.36665 2.52821 0
    endloop
  endfacet
  facet normal -0.19509 -0.980785 0
    outer loop
      vertex -8.36665 2.52821 2
      vertex -8.79329 2.61307 2
      vertex -8.36665 2.52821 0
    endloop
  endfacet
  facet normal -0.117538 -0.993068 0
    outer loop
      vertex -8.36665 2.52821 2
      vertex -8.36665 2.52821 0
      vertex -7.93466 2.47708 0
    endloop
  endfacet
  facet normal -0.117538 -0.993068 0
    outer loop
      vertex -7.93466 2.47708 2
      vertex -8.36665 2.52821 2
      vertex -7.93466 2.47708 0
    endloop
  endfacet
  facet normal -0.0392599 -0.999229 0
    outer loop
      vertex -7.93466 2.47708 2
      vertex -7.93466 2.47708 0
      vertex -7.5 2.46 0
    endloop
  endfacet
  facet normal -0.0392599 -0.999229 0
    outer loop
      vertex -7.5 2.46 2
      vertex -7.93466 2.47708 2
      vertex -7.5 2.46 0
    endloop
  endfacet
  facet normal 0.0392599 -0.999229 0
    outer loop
      vertex -7.5 2.46 2
      vertex -7.5 2.46 0
      vertex -7.06534 2.47708 0
    endloop
  endfacet
  facet normal 0.0392599 -0.999229 0
    outer loop
      vertex -7.06534 2.47708 2
      vertex -7.5 2.46 2
      vertex -7.06534 2.47708 0
    endloop
  endfacet
  facet normal 0.117538 -0.993068 0
    outer loop
      vertex -7.06534 2.47708 2
      vertex -7.06534 2.47708 0
      vertex -6.63335 2.52821 0
    endloop
  endfacet
  facet normal 0.117538 -0.993068 0
    outer loop
      vertex -6.63335 2.52821 2
      vertex -7.06534 2.47708 2
      vertex -6.63335 2.52821 0
    endloop
  endfacet
  facet normal 0.19509 -0.980785 0
    outer loop
      vertex -6.63335 2.52821 2
      vertex -6.63335 2.52821 0
      vertex -6.20671 2.61307 0
    endloop
  endfacet
  facet normal 0.19509 -0.980785 0
    outer loop
      vertex -6.20671 2.61307 2
      vertex -6.63335 2.52821 2
      vertex -6.20671 2.61307 0
    endloop
  endfacet
  facet normal 0.27144 -0.962455 0
    outer loop
      vertex -6.20671 2.61307 2
      vertex -6.20671 2.61307 0
      vertex -5.78805 2.73115 0
    endloop
  endfacet
  facet normal 0.27144 -0.962455 0
    outer loop
      vertex -5.78805 2.73115 2
      vertex -6.20671 2.61307 2
      vertex -5.78805 2.73115 0
    endloop
  endfacet
  facet normal 0.346116 -0.938192 0
    outer loop
      vertex -5.78805 2.73115 2
      vertex -5.78805 2.73115 0
      vertex -5.37993 2.88171 0
    endloop
  endfacet
  facet normal 0.346116 -0.938192 0
    outer loop
      vertex -5.37993 2.88171 2
      vertex -5.78805 2.73115 2
      vertex -5.37993 2.88171 0
    endloop
  endfacet
  facet normal 0.418661 -0.908143 0
    outer loop
      vertex -5.37993 2.88171 2
      vertex -5.37993 2.88171 0
      vertex -4.98489 3.06382 0
    endloop
  endfacet
  facet normal 0.418661 -0.908143 0
    outer loop
      vertex -4.98489 3.06382 2
      vertex -5.37993 2.88171 2
      vertex -4.98489 3.06382 0
    endloop
  endfacet
  facet normal 0.48862 -0.872497 0
    outer loop
      vertex -4.98489 3.06382 2
      vertex -4.98489 3.06382 0
      vertex -4.60536 3.27637 0
    endloop
  endfacet
  facet normal 0.48862 -0.872497 0
    outer loop
      vertex -4.60536 3.27637 2
      vertex -4.98489 3.06382 2
      vertex -4.60536 3.27637 0
    endloop
  endfacet
  facet normal 0.555572 -0.831469 0
    outer loop
      vertex -4.60536 3.27637 2
      vertex -4.60536 3.27637 0
      vertex -4.5 3.34677 0
    endloop
  endfacet
  facet normal 0.555572 -0.831469 0
    outer loop
      vertex -4.5 3.34677 2
      vertex -4.60536 3.27637 2
      vertex -4.5 3.34677 0
    endloop
  endfacet
  facet normal -1 0 0
    outer loop
      vertex -4.5 1.629 0
      vertex -4.5 1.629 3
      vertex -4.5 3.34677 0
    endloop
  endfacet
  facet normal -1 0 0
    outer loop
      vertex -4.5 3.34677 2
      vertex -4.5 1.629 3
      vertex -4.5 14.629 3
    endloop
  endfacet
  facet normal -1 0 0
    outer loop
      vertex -4.5 12.6532 0
      vertex -4.5 14.629 3
      vertex -4.5 14.629 0
    endloop
  endfacet
  facet normal -1 0 0
    outer loop
      vertex -4.5 12.6532 2
      vertex -4.5 14.629 3
      vertex -4.5 12.6532 0
    endloop
  endfacet
  facet normal -1 0 0
    outer loop
      vertex -4.5 3.34677 0
      vertex -4.5 1.629 3
      vertex -4.5 3.34677 2
    endloop
  endfacet
  facet normal -1 0 0
    outer loop
      vertex -4.5 3.34677 2
      vertex -4.5 14.629 3
      vertex -4.5 12.6532 2
    endloop
  endfacet
  facet normal 0 -1 0
    outer loop
      vertex -3 1.629 0.01
      vertex -4.5 1.629 0
      vertex -1.5 1.629 0
    endloop
  endfacet
  facet normal 0 -1 0
    outer loop
      vertex -3 1.629 0.01
      vertex -3 1.629 3
      vertex -4.5 1.629 3
    endloop
  endfacet
  facet normal 0 -1 0
    outer loop
      vertex -4.5 1.629 3
      vertex -4.5 1.629 0
      vertex -3 1.629 0.01
    endloop
  endfacet
  facet normal 0 -1 0
    outer loop
      vertex -1.5 1.629 0.01
      vertex -3 1.629 0.01
      vertex -1.5 1.629 0
    endloop
  endfacet
  facet normal 1 0 0
    outer loop
      vertex -1.5 1.629 0.01
      vertex -1.5 1.629 0
      vertex -1.5 14.629 0
    endloop
  endfacet
  facet normal 1 0 0
    outer loop
      vertex -1.5 14.629 0.01
      vertex -1.5 1.629 0.01
      vertex -1.5 14.629 0
    endloop
  endfacet
  facet normal 0 1 0
    outer loop
      vertex -1.5 14.629 0.01
      vertex -1.5 14.629 0
      vertex -3 14.629 0.01
    endloop
  endfacet
  facet normal 0 1 0
    outer loop
      vertex -4.5 14.629 0
      vertex -4.5 14.629 3
      vertex -3 14.629 0.01
    endloop
  endfacet
  facet normal 0 1 0
    outer loop
      vertex -4.5 14.629 0
      vertex -3 14.629 0.01
      vertex -1.5 14.629 0
    endloop
  endfacet
  facet normal 0 1 0
    outer loop
      vertex -3 14.629 0.01
      vertex -4.5 14.629 3
      vertex -3 14.629 3
    endloop
  endfacet
  facet normal 0.555572 0.831469 0
    outer loop
      vertex -4.60536 12.7236 0
      vertex -4.60536 12.7236 2
      vertex -4.5 12.6532 0
    endloop
  endfacet
  facet normal 0.555572 0.831469 0
    outer loop
      vertex -4.5 12.6532 0
      vertex -4.60536 12.7236 2
      vertex -4.5 12.6532 2
    endloop
  endfacet
  facet normal 0.48862 0.872497 0
    outer loop
      vertex -4.98489 12.9362 0
      vertex -4.98489 12.9362 2
      vertex -4.60536 12.7236 0
    endloop
  endfacet
  facet normal 0.48862 0.872497 0
    outer loop
      vertex -4.60536 12.7236 0
      vertex -4.98489 12.9362 2
      vertex -4.60536 12.7236 2
    endloop
  endfacet
  facet normal 0.418661 0.908143 0
    outer loop
      vertex -5.37993 13.1183 0
      vertex -5.37993 13.1183 2
      vertex -4.98489 12.9362 0
    endloop
  endfacet
  facet normal 0.418661 0.908143 0
    outer loop
      vertex -4.98489 12.9362 0
      vertex -5.37993 13.1183 2
      vertex -4.98489 12.9362 2
    endloop
  endfacet
  facet normal 0.346116 0.938192 0
    outer loop
      vertex -5.78805 13.2689 0
      vertex -5.78805 13.2689 2
      vertex -5.37993 13.1183 0
    endloop
  endfacet
  facet normal 0.346116 0.938192 0
    outer loop
      vertex -5.37993 13.1183 0
      vertex -5.78805 13.2689 2
      vertex -5.37993 13.1183 2
    endloop
  endfacet
  facet normal 0.27144 0.962455 0
    outer loop
      vertex -6.20671 13.3869 0
      vertex -6.20671 13.3869 2
      vertex -5.78805 13.2689 0
    endloop
  endfacet
  facet normal 0.27144 0.962455 0
    outer loop
      vertex -5.78805 13.2689 0
      vertex -6.20671 13.3869 2
      vertex -5.78805 13.2689 2
    endloop
  endfacet
  facet normal 0.19509 0.980785 0
    outer loop
      vertex -6.63335 13.4718 0
      vertex -6.63335 13.4718 2
      vertex -6.20671 13.3869 0
    endloop
  endfacet
  facet normal 0.19509 0.980785 0
    outer loop
      vertex -6.20671 13.3869 0
      vertex -6.63335 13.4718 2
      vertex -6.20671 13.3869 2
    endloop
  endfacet
  facet normal 0.117538 0.993068 0
    outer loop
      vertex -7.06534 13.5229 0
      vertex -7.06534 13.5229 2
      vertex -6.63335 13.4718 0
    endloop
  endfacet
  facet normal 0.117538 0.993068 0
    outer loop
      vertex -6.63335 13.4718 0
      vertex -7.06534 13.5229 2
      vertex -6.63335 13.4718 2
    endloop
  endfacet
  facet normal 0.0392599 0.999229 0
    outer loop
      vertex -7.5 13.54 0
      vertex -7.5 13.54 2
      vertex -7.06534 13.5229 0
    endloop
  endfacet
  facet normal 0.0392599 0.999229 0
    outer loop
      vertex -7.06534 13.5229 0
      vertex -7.5 13.54 2
      vertex -7.06534 13.5229 2
    endloop
  endfacet
  facet normal -0.0392599 0.999229 0
    outer loop
      vertex -7.93466 13.5229 0
      vertex -7.93466 13.5229 2
      vertex -7.5 13.54 0
    endloop
  endfacet
  facet normal -0.0392599 0.999229 0
    outer loop
      vertex -7.5 13.54 0
      vertex -7.93466 13.5229 2
      vertex -7.5 13.54 2
    endloop
  endfacet
  facet normal -0.117538 0.993068 0
    outer loop
      vertex -8.36665 13.4718 0
      vertex -8.36665 13.4718 2
      vertex -7.93466 13.5229 0
    endloop
  endfacet
  facet normal -0.117538 0.993068 0
    outer loop
      vertex -7.93466 13.5229 0
      vertex -8.36665 13.4718 2
      vertex -7.93466 13.5229 2
    endloop
  endfacet
  facet normal -0.19509 0.980785 0
    outer loop
      vertex -8.79329 13.3869 0
      vertex -8.79329 13.3869 2
      vertex -8.36665 13.4718 0
    endloop
  endfacet
  facet normal -0.19509 0.980785 0
    outer loop
      vertex -8.36665 13.4718 0
      vertex -8.79329 13.3869 2
      vertex -8.36665 13.4718 2
    endloop
  endfacet
  facet normal -0.27144 0.962455 0
    outer loop
      vertex -9.21195 13.2689 0
      vertex -9.21195 13.2689 2
      vertex -8.79329 13.3869 0
    endloop
  endfacet
  facet normal -0.27144 0.962455 0
    outer loop
      vertex -8.79329 13.3869 0
      vertex -9.21195 13.2689 2
      vertex -8.79329 13.3869 2
    endloop
  endfacet
  facet normal -0.346116 0.938192 0
    outer loop
      vertex -9.62007 13.1183 0
      vertex -9.62007 13.1183 2
      vertex -9.21195 13.2689 0
    endloop
  endfacet
  facet normal -0.346116 0.938192 0
    outer loop
      vertex -9.21195 13.2689 0
      vertex -9.62007 13.1183 2
      vertex -9.21195 13.2689 2
    endloop
  endfacet
  facet normal -0.418661 0.908143 0
    outer loop
      vertex -10.0151 12.9362 0
      vertex -10.0151 12.9362 2
      vertex -9.62007 13.1183 0
    endloop
  endfacet
  facet normal -0.418661 0.908143 0
    outer loop
      vertex -9.62007 13.1183 0
      vertex -10.0151 12.9362 2
      vertex -9.62007 13.1183 2
    endloop
  endfacet
  facet normal -0.48862 0.872497 0
    outer loop
      vertex -10.3946 12.7236 0
      vertex -10.3946 12.7236 2
      vertex -10.0151 12.9362 0
    endloop
  endfacet
  facet normal -0.48862 0.872497 0
    outer loop
      vertex -10.0151 12.9362 0
      vertex -10.3946 12.7236 2
      vertex -10.0151 12.9362 2
    endloop
  endfacet
  facet normal -0.555572 0.831469 0
    outer loop
      vertex -10.7563 12.482 0
      vertex -10.7563 12.482 2
      vertex -10.3946 12.7236 0
    endloop
  endfacet
  facet normal -0.555572 0.831469 0
    outer loop
      vertex -10.3946 12.7236 0
      vertex -10.7563 12.482 2
      vertex -10.3946 12.7236 2
    endloop
  endfacet
  facet normal -0.619094 0.785317 0
    outer loop
      vertex -11.0979 12.2126 0
      vertex -11.0979 12.2126 2
      vertex -10.7563 12.482 0
    endloop
  endfacet
  facet normal -0.619094 0.785317 0
    outer loop
      vertex -10.7563 12.482 0
      vertex -11.0979 12.2126 2
      vertex -10.7563 12.482 2
    endloop
  endfacet
  facet normal -0.678799 0.734324 0
    outer loop
      vertex -11.4174 11.9174 0
      vertex -11.4174 11.9174 2
      vertex -11.0979 12.2126 0
    endloop
  endfacet
  facet normal -0.678799 0.734324 0
    outer loop
      vertex -11.0979 12.2126 0
      vertex -11.4174 11.9174 2
      vertex -11.0979 12.2126 2
    endloop
  endfacet
  facet normal -0.734324 0.678799 0
    outer loop
      vertex -11.7126 11.5979 0
      vertex -11.7126 11.5979 2
      vertex -11.4174 11.9174 0
    endloop
  endfacet
  facet normal -0.734324 0.678799 0
    outer loop
      vertex -11.4174 11.9174 0
      vertex -11.7126 11.5979 2
      vertex -11.4174 11.9174 2
    endloop
  endfacet
  facet normal -0.785317 0.619094 0
    outer loop
      vertex -11.982 11.2563 0
      vertex -11.982 11.2563 2
      vertex -11.7126 11.5979 0
    endloop
  endfacet
  facet normal -0.785317 0.619094 0
    outer loop
      vertex -11.7126 11.5979 0
      vertex -11.982 11.2563 2
      vertex -11.7126 11.5979 2
    endloop
  endfacet
  facet normal -0.831469 0.555572 0
    outer loop
      vertex -12.2236 10.8946 0
      vertex -12.2236 10.8946 2
      vertex -11.982 11.2563 0
    endloop
  endfacet
  facet normal -0.831469 0.555572 0
    outer loop
      vertex -11.982 11.2563 0
      vertex -12.2236 10.8946 2
      vertex -11.982 11.2563 2
    endloop
  endfacet
  facet normal -0.872497 0.48862 0
    outer loop
      vertex -12.4362 10.5151 0
      vertex -12.4362 10.5151 2
      vertex -12.2236 10.8946 0
    endloop
  endfacet
  facet normal -0.872497 0.48862 0
    outer loop
      vertex -12.2236 10.8946 0
      vertex -12.4362 10.5151 2
      vertex -12.2236 10.8946 2
    endloop
  endfacet
  facet normal -0.908143 0.418661 0
    outer loop
      vertex -12.6183 10.1201 0
      vertex -12.6183 10.1201 2
      vertex -12.4362 10.5151 0
    endloop
  endfacet
  facet normal -0.908143 0.418661 0
    outer loop
      vertex -12.4362 10.5151 0
      vertex -12.6183 10.1201 2
      vertex -12.4362 10.5151 2
    endloop
  endfacet
  facet normal -0.938192 0.346116 0
    outer loop
      vertex -12.7689 9.71195 0
      vertex -12.7689 9.71195 2
      vertex -12.6183 10.1201 0
    endloop
  endfacet
  facet normal -0.938192 0.346116 0
    outer loop
      vertex -12.6183 10.1201 0
      vertex -12.7689 9.71195 2
      vertex -12.6183 10.1201 2
    endloop
  endfacet
  facet normal -0.962455 0.27144 0
    outer loop
      vertex -12.8869 9.29329 0
      vertex -12.8869 9.29329 2
      vertex -12.7689 9.71195 0
    endloop
  endfacet
  facet normal -0.962455 0.27144 0
    outer loop
      vertex -12.7689 9.71195 0
      vertex -12.8869 9.29329 2
      vertex -12.7689 9.71195 2
    endloop
  endfacet
  facet normal -0.980785 0.19509 0
    outer loop
      vertex -12.9718 8.86665 0
      vertex -12.9718 8.86665 2
      vertex -12.8869 9.29329 0
    endloop
  endfacet
  facet normal -0.980785 0.19509 0
    outer loop
      vertex -12.8869 9.29329 0
      vertex -12.9718 8.86665 2
      vertex -12.8869 9.29329 2
    endloop
  endfacet
  facet normal -0.993068 0.117538 0
    outer loop
      vertex -13.0229 8.43466 0
      vertex -13.0229 8.43466 2
      vertex -12.9718 8.86665 0
    endloop
  endfacet
  facet normal -0.993068 0.117538 0
    outer loop
      vertex -12.9718 8.86665 0
      vertex -13.0229 8.43466 2
      vertex -12.9718 8.86665 2
    endloop
  endfacet
  facet normal 0.999229 -0.03926 0
    outer loop
      vertex -10.0322 8.19929 0
      vertex -10.0322 8.19929 2
      vertex -10.04 8 2
    endloop
  endfacet
  facet normal 0.999229 -0.03926 0
    outer loop
      vertex -10.04 8 0
      vertex -10.0322 8.19929 0
      vertex -10.04 8 2
    endloop
  endfacet
  facet normal 0.999229 0.03926 0
    outer loop
      vertex -10.04 8 2
      vertex -10.0322 7.80071 2
      vertex -10.0322 7.80071 0
    endloop
  endfacet
  facet normal 0.999229 0.03926 0
    outer loop
      vertex -10.04 8 0
      vertex -10.04 8 2
      vertex -10.0322 7.80071 0
    endloop
  endfacet
  facet normal 0.993068 -0.117539 0
    outer loop
      vertex -10.0087 8.39734 0
      vertex -10.0087 8.39734 2
      vertex -10.0322 8.19929 2
    endloop
  endfacet
  facet normal 0.993068 -0.117539 0
    outer loop
      vertex -10.0322 8.19929 0
      vertex -10.0087 8.39734 0
      vertex -10.0322 8.19929 2
    endloop
  endfacet
  facet normal 0.980786 -0.195087 0
    outer loop
      vertex -9.96982 8.59295 0
      vertex -9.96982 8.59295 2
      vertex -10.0087 8.39734 2
    endloop
  endfacet
  facet normal 0.980786 -0.195087 0
    outer loop
      vertex -10.0087 8.39734 0
      vertex -9.96982 8.59295 0
      vertex -10.0087 8.39734 2
    endloop
  endfacet
  facet normal 0.962455 -0.27144 0
    outer loop
      vertex -9.91568 8.7849 0
      vertex -9.91568 8.7849 2
      vertex -9.96982 8.59295 2
    endloop
  endfacet
  facet normal 0.962455 -0.27144 0
    outer loop
      vertex -9.96982 8.59295 0
      vertex -9.91568 8.7849 0
      vertex -9.96982 8.59295 2
    endloop
  endfacet
  facet normal 0.938191 -0.346119 0
    outer loop
      vertex -9.84665 8.97202 0
      vertex -9.84665 8.97202 2
      vertex -9.91568 8.7849 2
    endloop
  endfacet
  facet normal 0.938191 -0.346119 0
    outer loop
      vertex -9.91568 8.7849 0
      vertex -9.84665 8.97202 0
      vertex -9.91568 8.7849 2
    endloop
  endfacet
  facet normal 0.908144 -0.418658 0
    outer loop
      vertex -9.76316 9.15314 0
      vertex -9.76316 9.15314 2
      vertex -9.84665 8.97202 2
    endloop
  endfacet
  facet normal 0.908144 -0.418658 0
    outer loop
      vertex -9.84665 8.97202 0
      vertex -9.76316 9.15314 0
      vertex -9.84665 8.97202 2
    endloop
  endfacet
  facet normal 0.872494 -0.488624 0
    outer loop
      vertex -9.66571 9.32715 0
      vertex -9.66571 9.32715 2
      vertex -9.76316 9.15314 2
    endloop
  endfacet
  facet normal 0.872494 -0.488624 0
    outer loop
      vertex -9.76316 9.15314 0
      vertex -9.66571 9.32715 0
      vertex -9.76316 9.15314 2
    endloop
  endfacet
  facet normal 0.831471 -0.555569 0
    outer loop
      vertex -9.5549 9.49297 0
      vertex -9.5549 9.49297 2
      vertex -9.66571 9.32715 2
    endloop
  endfacet
  facet normal 0.831471 -0.555569 0
    outer loop
      vertex -9.66571 9.32715 0
      vertex -9.5549 9.49297 0
      vertex -9.66571 9.32715 2
    endloop
  endfacet
  facet normal 0.785316 -0.619095 0
    outer loop
      vertex -9.43143 9.6496 0
      vertex -9.43143 9.6496 2
      vertex -9.5549 9.49297 2
    endloop
  endfacet
  facet normal 0.785316 -0.619095 0
    outer loop
      vertex -9.5549 9.49297 0
      vertex -9.43143 9.6496 0
      vertex -9.5549 9.49297 2
    endloop
  endfacet
  facet normal 0.734322 -0.678801 0
    outer loop
      vertex -9.29605 9.79605 0
      vertex -9.29605 9.79605 2
      vertex -9.43143 9.6496 2
    endloop
  endfacet
  facet normal 0.734322 -0.678801 0
    outer loop
      vertex -9.43143 9.6496 0
      vertex -9.29605 9.79605 0
      vertex -9.43143 9.6496 2
    endloop
  endfacet
  facet normal 0.678801 -0.734322 0
    outer loop
      vertex -9.1496 9.93143 0
      vertex -9.1496 9.93143 2
      vertex -9.29605 9.79605 2
    endloop
  endfacet
  facet normal 0.678801 -0.734322 0
    outer loop
      vertex -9.29605 9.79605 0
      vertex -9.1496 9.93143 0
      vertex -9.29605 9.79605 2
    endloop
  endfacet
  facet normal 0.619095 -0.785316 0
    outer loop
      vertex -8.99297 10.0549 0
      vertex -8.99297 10.0549 2
      vertex -9.1496 9.93143 2
    endloop
  endfacet
  facet normal 0.619095 -0.785316 0
    outer loop
      vertex -9.1496 9.93143 0
      vertex -8.99297 10.0549 0
      vertex -9.1496 9.93143 2
    endloop
  endfacet
  facet normal 0.555569 -0.831471 0
    outer loop
      vertex -8.82715 10.1657 0
      vertex -8.82715 10.1657 2
      vertex -8.99297 10.0549 2
    endloop
  endfacet
  facet normal 0.555569 -0.831471 0
    outer loop
      vertex -8.99297 10.0549 0
      vertex -8.82715 10.1657 0
      vertex -8.99297 10.0549 2
    endloop
  endfacet
  facet normal 0.488624 -0.872494 0
    outer loop
      vertex -8.65314 10.2632 0
      vertex -8.65314 10.2632 2
      vertex -8.82715 10.1657 2
    endloop
  endfacet
  facet normal 0.488624 -0.872494 0
    outer loop
      vertex -8.82715 10.1657 0
      vertex -8.65314 10.2632 0
      vertex -8.82715 10.1657 2
    endloop
  endfacet
  facet normal 0.418658 -0.908144 0
    outer loop
      vertex -8.47202 10.3467 0
      vertex -8.47202 10.3467 2
      vertex -8.65314 10.2632 2
    endloop
  endfacet
  facet normal 0.418658 -0.908144 0
    outer loop
      vertex -8.65314 10.2632 0
      vertex -8.47202 10.3467 0
      vertex -8.65314 10.2632 2
    endloop
  endfacet
  facet normal 0.346119 -0.938191 0
    outer loop
      vertex -8.2849 10.4157 0
      vertex -8.2849 10.4157 2
      vertex -8.47202 10.3467 2
    endloop
  endfacet
  facet normal 0.346119 -0.938191 0
    outer loop
      vertex -8.47202 10.3467 0
      vertex -8.2849 10.4157 0
      vertex -8.47202 10.3467 2
    endloop
  endfacet
  facet normal 0.27144 -0.962455 0
    outer loop
      vertex -8.09295 10.4698 0
      vertex -8.09295 10.4698 2
      vertex -8.2849 10.4157 2
    endloop
  endfacet
  facet normal 0.27144 -0.962455 0
    outer loop
      vertex -8.2849 10.4157 0
      vertex -8.09295 10.4698 0
      vertex -8.2849 10.4157 2
    endloop
  endfacet
  facet normal 0.195087 -0.980786 0
    outer loop
      vertex -7.89734 10.5087 0
      vertex -7.89734 10.5087 2
      vertex -8.09295 10.4698 2
    endloop
  endfacet
  facet normal 0.195087 -0.980786 0
    outer loop
      vertex -8.09295 10.4698 0
      vertex -7.89734 10.5087 0
      vertex -8.09295 10.4698 2
    endloop
  endfacet
  facet normal 0.117539 -0.993068 0
    outer loop
      vertex -7.69929 10.5322 0
      vertex -7.69929 10.5322 2
      vertex -7.89734 10.5087 2
    endloop
  endfacet
  facet normal 0.117539 -0.993068 0
    outer loop
      vertex -7.89734 10.5087 0
      vertex -7.69929 10.5322 0
      vertex -7.89734 10.5087 2
    endloop
  endfacet
  facet normal 0.03926 -0.999229 0
    outer loop
      vertex -7.5 10.54 0
      vertex -7.5 10.54 2
      vertex -7.69929 10.5322 2
    endloop
  endfacet
  facet normal 0.03926 -0.999229 0
    outer loop
      vertex -7.69929 10.5322 0
      vertex -7.5 10.54 0
      vertex -7.69929 10.5322 2
    endloop
  endfacet
  facet normal -0.03926 -0.999229 0
    outer loop
      vertex -7.30071 10.5322 0
      vertex -7.30071 10.5322 2
      vertex -7.5 10.54 2
    endloop
  endfacet
  facet normal -0.03926 -0.999229 0
    outer loop
      vertex -7.5 10.54 0
      vertex -7.30071 10.5322 0
      vertex -7.5 10.54 2
    endloop
  endfacet
  facet normal -0.117539 -0.993068 0
    outer loop
      vertex -7.10266 10.5087 0
      vertex -7.10266 10.5087 2
      vertex -7.30071 10.5322 2
    endloop
  endfacet
  facet normal -0.117539 -0.993068 0
    outer loop
      vertex -7.30071 10.5322 0
      vertex -7.10266 10.5087 0
      vertex -7.30071 10.5322 2
    endloop
  endfacet
  facet normal -0.195087 -0.980786 0
    outer loop
      vertex -6.90705 10.4698 0
      vertex -6.90705 10.4698 2
      vertex -7.10266 10.5087 2
    endloop
  endfacet
  facet normal -0.195087 -0.980786 0
    outer loop
      vertex -7.10266 10.5087 0
      vertex -6.90705 10.4698 0
      vertex -7.10266 10.5087 2
    endloop
  endfacet
  facet normal -0.27144 -0.962455 0
    outer loop
      vertex -6.7151 10.4157 0
      vertex -6.7151 10.4157 2
      vertex -6.90705 10.4698 2
    endloop
  endfacet
  facet normal -0.27144 -0.962455 0
    outer loop
      vertex -6.90705 10.4698 0
      vertex -6.7151 10.4157 0
      vertex -6.90705 10.4698 2
    endloop
  endfacet
  facet normal -0.346119 -0.938191 0
    outer loop
      vertex -6.52798 10.3467 0
      vertex -6.52798 10.3467 2
      vertex -6.7151 10.4157 2
    endloop
  endfacet
  facet normal -0.346119 -0.938191 0
    outer loop
      vertex -6.7151 10.4157 0
      vertex -6.52798 10.3467 0
      vertex -6.7151 10.4157 2
    endloop
  endfacet
  facet normal -0.418658 -0.908144 0
    outer loop
      vertex -6.34686 10.2632 0
      vertex -6.34686 10.2632 2
      vertex -6.52798 10.3467 2
    endloop
  endfacet
  facet normal -0.418658 -0.908144 0
    outer loop
      vertex -6.52798 10.3467 0
      vertex -6.34686 10.2632 0
      vertex -6.52798 10.3467 2
    endloop
  endfacet
  facet normal -0.488624 -0.872494 0
    outer loop
      vertex -6.17285 10.1657 0
      vertex -6.17285 10.1657 2
      vertex -6.34686 10.2632 2
    endloop
  endfacet
  facet normal -0.488624 -0.872494 0
    outer loop
      vertex -6.34686 10.2632 0
      vertex -6.17285 10.1657 0
      vertex -6.34686 10.2632 2
    endloop
  endfacet
  facet normal -0.555569 -0.831471 0
    outer loop
      vertex -6.00702 10.0549 0
      vertex -6.00702 10.0549 2
      vertex -6.17285 10.1657 2
    endloop
  endfacet
  facet normal -0.555569 -0.831471 0
    outer loop
      vertex -6.17285 10.1657 0
      vertex -6.00702 10.0549 0
      vertex -6.17285 10.1657 2
    endloop
  endfacet
  facet normal -0.619095 -0.785316 0
    outer loop
      vertex -5.8504 9.93143 0
      vertex -5.8504 9.93143 2
      vertex -6.00702 10.0549 2
    endloop
  endfacet
  facet normal -0.619095 -0.785316 0
    outer loop
      vertex -6.00702 10.0549 0
      vertex -5.8504 9.93143 0
      vertex -6.00702 10.0549 2
    endloop
  endfacet
  facet normal -0.678801 -0.734322 0
    outer loop
      vertex -5.70395 9.79605 0
      vertex -5.70395 9.79605 2
      vertex -5.8504 9.93143 2
    endloop
  endfacet
  facet normal -0.678801 -0.734322 0
    outer loop
      vertex -5.8504 9.93143 0
      vertex -5.70395 9.79605 0
      vertex -5.8504 9.93143 2
    endloop
  endfacet
  facet normal -0.734322 -0.678801 0
    outer loop
      vertex -5.56857 9.6496 2
      vertex -5.70395 9.79605 2
      vertex -5.56857 9.6496 0
    endloop
  endfacet
  facet normal -0.734322 -0.678801 0
    outer loop
      vertex -5.56857 9.6496 0
      vertex -5.70395 9.79605 2
      vertex -5.70395 9.79605 0
    endloop
  endfacet
  facet normal -0.785316 -0.619095 0
    outer loop
      vertex -5.4451 9.49297 2
      vertex -5.56857 9.6496 2
      vertex -5.4451 9.49297 0
    endloop
  endfacet
  facet normal -0.785316 -0.619095 0
    outer loop
      vertex -5.4451 9.49297 0
      vertex -5.56857 9.6496 2
      vertex -5.56857 9.6496 0
    endloop
  endfacet
  facet normal -0.831471 -0.555569 0
    outer loop
      vertex -5.33429 9.32715 2
      vertex -5.4451 9.49297 2
      vertex -5.33429 9.32715 0
    endloop
  endfacet
  facet normal -0.831471 -0.555569 0
    outer loop
      vertex -5.33429 9.32715 0
      vertex -5.4451 9.49297 2
      vertex -5.4451 9.49297 0
    endloop
  endfacet
  facet normal -0.872494 -0.488624 0
    outer loop
      vertex -5.23684 9.15314 2
      vertex -5.33429 9.32715 2
      vertex -5.23684 9.15314 0
    endloop
  endfacet
  facet normal -0.872494 -0.488624 0
    outer loop
      vertex -5.23684 9.15314 0
      vertex -5.33429 9.32715 2
      vertex -5.33429 9.32715 0
    endloop
  endfacet
  facet normal -0.908144 -0.418658 0
    outer loop
      vertex -5.15335 8.97202 2
      vertex -5.23684 9.15314 2
      vertex -5.15335 8.97202 0
    endloop
  endfacet
  facet normal -0.908144 -0.418658 0
    outer loop
      vertex -5.15335 8.97202 0
      vertex -5.23684 9.15314 2
      vertex -5.23684 9.15314 0
    endloop
  endfacet
  facet normal -0.938191 -0.346119 0
    outer loop
      vertex -5.08432 8.7849 2
      vertex -5.15335 8.97202 2
      vertex -5.08432 8.7849 0
    endloop
  endfacet
  facet normal -0.938191 -0.346119 0
    outer loop
      vertex -5.08432 8.7849 0
      vertex -5.15335 8.97202 2
      vertex -5.15335 8.97202 0
    endloop
  endfacet
  facet normal -0.962455 -0.27144 0
    outer loop
      vertex -5.03018 8.59295 2
      vertex -5.08432 8.7849 2
      vertex -5.03018 8.59295 0
    endloop
  endfacet
  facet normal -0.962455 -0.27144 0
    outer loop
      vertex -5.03018 8.59295 0
      vertex -5.08432 8.7849 2
      vertex -5.08432 8.7849 0
    endloop
  endfacet
  facet normal -0.980786 -0.195087 0
    outer loop
      vertex -4.99127 8.39734 2
      vertex -5.03018 8.59295 2
      vertex -4.99127 8.39734 0
    endloop
  endfacet
  facet normal -0.980786 -0.195087 0
    outer loop
      vertex -4.99127 8.39734 0
      vertex -5.03018 8.59295 2
      vertex -5.03018 8.59295 0
    endloop
  endfacet
  facet normal -0.993068 -0.117539 0
    outer loop
      vertex -4.96783 8.19929 2
      vertex -4.99127 8.39734 2
      vertex -4.96783 8.19929 0
    endloop
  endfacet
  facet normal -0.993068 -0.117539 0
    outer loop
      vertex -4.96783 8.19929 0
      vertex -4.99127 8.39734 2
      vertex -4.99127 8.39734 0
    endloop
  endfacet
  facet normal -0.999229 -0.03926 0
    outer loop
      vertex -4.96 8 2
      vertex -4.96783 8.19929 2
      vertex -4.96 8 0
    endloop
  endfacet
  facet normal -0.999229 -0.03926 0
    outer loop
      vertex -4.96 8 0
      vertex -4.96783 8.19929 2
      vertex -4.96783 8.19929 0
    endloop
  endfacet
  facet normal -0.999229 0.03926 0
    outer loop
      vertex -4.96 8 2
      vertex -4.96 8 0
      vertex -4.96783 7.80071 2
    endloop
  endfacet
  facet normal -0.999229 0.03926 0
    outer loop
      vertex -4.96783 7.80071 2
      vertex -4.96 8 0
      vertex -4.96783 7.80071 0
    endloop
  endfacet
  facet normal -0.993068 0.117539 0
    outer loop
      vertex -4.96783 7.80071 2
      vertex -4.96783 7.80071 0
      vertex -4.99127 7.60266 2
    endloop
  endfacet
  facet normal -0.993068 0.117539 0
    outer loop
      vertex -4.99127 7.60266 2
      vertex -4.96783 7.80071 0
      vertex -4.99127 7.60266 0
    endloop
  endfacet
  facet normal -0.980786 0.195087 0
    outer loop
      vertex -4.99127 7.60266 2
      vertex -4.99127 7.60266 0
      vertex -5.03018 7.40705 2
    endloop
  endfacet
  facet normal -0.980786 0.195087 0
    outer loop
      vertex -5.03018 7.40705 2
      vertex -4.99127 7.60266 0
      vertex -5.03018 7.40705 0
    endloop
  endfacet
  facet normal -0.962455 0.27144 0
    outer loop
      vertex -5.03018 7.40705 2
      vertex -5.03018 7.40705 0
      vertex -5.08432 7.2151 2
    endloop
  endfacet
  facet normal -0.962455 0.27144 0
    outer loop
      vertex -5.08432 7.2151 2
      vertex -5.03018 7.40705 0
      vertex -5.08432 7.2151 0
    endloop
  endfacet
  facet normal -0.938191 0.346119 0
    outer loop
      vertex -5.08432 7.2151 2
      vertex -5.08432 7.2151 0
      vertex -5.15335 7.02798 2
    endloop
  endfacet
  facet normal -0.938191 0.346119 0
    outer loop
      vertex -5.15335 7.02798 2
      vertex -5.08432 7.2151 0
      vertex -5.15335 7.02798 0
    endloop
  endfacet
  facet normal -0.908144 0.418658 0
    outer loop
      vertex -5.15335 7.02798 2
      vertex -5.15335 7.02798 0
      vertex -5.23684 6.84686 2
    endloop
  endfacet
  facet normal -0.908144 0.418658 0
    outer loop
      vertex -5.23684 6.84686 2
      vertex -5.15335 7.02798 0
      vertex -5.23684 6.84686 0
    endloop
  endfacet
  facet normal -0.872494 0.488624 0
    outer loop
      vertex -5.23684 6.84686 2
      vertex -5.23684 6.84686 0
      vertex -5.33429 6.67285 2
    endloop
  endfacet
  facet normal -0.872494 0.488624 0
    outer loop
      vertex -5.33429 6.67285 2
      vertex -5.23684 6.84686 0
      vertex -5.33429 6.67285 0
    endloop
  endfacet
  facet normal -0.831471 0.555569 0
    outer loop
      vertex -5.33429 6.67285 2
      vertex -5.33429 6.67285 0
      vertex -5.4451 6.50702 2
    endloop
  endfacet
  facet normal -0.831471 0.555569 0
    outer loop
      vertex -5.4451 6.50702 2
      vertex -5.33429 6.67285 0
      vertex -5.4451 6.50702 0
    endloop
  endfacet
  facet normal -0.785316 0.619095 0
    outer loop
      vertex -5.4451 6.50702 2
      vertex -5.4451 6.50702 0
      vertex -5.56857 6.3504 2
    endloop
  endfacet
  facet normal -0.785316 0.619095 0
    outer loop
      vertex -5.56857 6.3504 2
      vertex -5.4451 6.50702 0
      vertex -5.56857 6.3504 0
    endloop
  endfacet
  facet normal -0.734322 0.678801 0
    outer loop
      vertex -5.56857 6.3504 2
      vertex -5.56857 6.3504 0
      vertex -5.70395 6.20395 2
    endloop
  endfacet
  facet normal -0.734322 0.678801 0
    outer loop
      vertex -5.70395 6.20395 2
      vertex -5.56857 6.3504 0
      vertex -5.70395 6.20395 0
    endloop
  endfacet
  facet normal -0.678801 0.734322 0
    outer loop
      vertex -5.70395 6.20395 2
      vertex -5.70395 6.20395 0
      vertex -5.8504 6.06857 2
    endloop
  endfacet
  facet normal -0.678801 0.734322 0
    outer loop
      vertex -5.8504 6.06857 2
      vertex -5.70395 6.20395 0
      vertex -5.8504 6.06857 0
    endloop
  endfacet
  facet normal -0.619095 0.785316 0
    outer loop
      vertex -5.8504 6.06857 2
      vertex -5.8504 6.06857 0
      vertex -6.00702 5.9451 2
    endloop
  endfacet
  facet normal -0.619095 0.785316 0
    outer loop
      vertex -6.00702 5.9451 2
      vertex -5.8504 6.06857 0
      vertex -6.00702 5.9451 0
    endloop
  endfacet
  facet normal -0.555569 0.831471 0
    outer loop
      vertex -6.00702 5.9451 2
      vertex -6.00702 5.9451 0
      vertex -6.17285 5.83429 2
    endloop
  endfacet
  facet normal -0.555569 0.831471 0
    outer loop
      vertex -6.17285 5.83429 2
      vertex -6.00702 5.9451 0
      vertex -6.17285 5.83429 0
    endloop
  endfacet
  facet normal -0.488624 0.872494 0
    outer loop
      vertex -6.17285 5.83429 2
      vertex -6.17285 5.83429 0
      vertex -6.34686 5.73684 2
    endloop
  endfacet
  facet normal -0.488624 0.872494 0
    outer loop
      vertex -6.34686 5.73684 2
      vertex -6.17285 5.83429 0
      vertex -6.34686 5.73684 0
    endloop
  endfacet
  facet normal -0.418658 0.908144 0
    outer loop
      vertex -6.34686 5.73684 2
      vertex -6.34686 5.73684 0
      vertex -6.52798 5.65335 2
    endloop
  endfacet
  facet normal -0.418658 0.908144 0
    outer loop
      vertex -6.52798 5.65335 2
      vertex -6.34686 5.73684 0
      vertex -6.52798 5.65335 0
    endloop
  endfacet
  facet normal -0.346119 0.938191 0
    outer loop
      vertex -6.52798 5.65335 2
      vertex -6.52798 5.65335 0
      vertex -6.7151 5.58432 2
    endloop
  endfacet
  facet normal -0.346119 0.938191 0
    outer loop
      vertex -6.7151 5.58432 2
      vertex -6.52798 5.65335 0
      vertex -6.7151 5.58432 0
    endloop
  endfacet
  facet normal -0.27144 0.962455 0
    outer loop
      vertex -6.7151 5.58432 2
      vertex -6.7151 5.58432 0
      vertex -6.90705 5.53018 2
    endloop
  endfacet
  facet normal -0.27144 0.962455 0
    outer loop
      vertex -6.90705 5.53018 2
      vertex -6.7151 5.58432 0
      vertex -6.90705 5.53018 0
    endloop
  endfacet
  facet normal -0.195087 0.980786 0
    outer loop
      vertex -6.90705 5.53018 2
      vertex -6.90705 5.53018 0
      vertex -7.10266 5.49127 2
    endloop
  endfacet
  facet normal -0.195087 0.980786 0
    outer loop
      vertex -7.10266 5.49127 2
      vertex -6.90705 5.53018 0
      vertex -7.10266 5.49127 0
    endloop
  endfacet
  facet normal -0.117539 0.993068 0
    outer loop
      vertex -7.10266 5.49127 2
      vertex -7.10266 5.49127 0
      vertex -7.30071 5.46783 2
    endloop
  endfacet
  facet normal -0.117539 0.993068 0
    outer loop
      vertex -7.30071 5.46783 2
      vertex -7.10266 5.49127 0
      vertex -7.30071 5.46783 0
    endloop
  endfacet
  facet normal -0.03926 0.999229 0
    outer loop
      vertex -7.30071 5.46783 2
      vertex -7.30071 5.46783 0
      vertex -7.5 5.46 2
    endloop
  endfacet
  facet normal -0.03926 0.999229 0
    outer loop
      vertex -7.5 5.46 2
      vertex -7.30071 5.46783 0
      vertex -7.5 5.46 0
    endloop
  endfacet
  facet normal 0.03926 0.999229 0
    outer loop
      vertex -7.5 5.46 2
      vertex -7.5 5.46 0
      vertex -7.69929 5.46783 2
    endloop
  endfacet
  facet normal 0.03926 0.999229 0
    outer loop
      vertex -7.69929 5.46783 2
      vertex -7.5 5.46 0
      vertex -7.69929 5.46783 0
    endloop
  endfacet
  facet normal 0.117539 0.993068 0
    outer loop
      vertex -7.69929 5.46783 2
      vertex -7.69929 5.46783 0
      vertex -7.89734 5.49127 2
    endloop
  endfacet
  facet normal 0.117539 0.993068 0
    outer loop
      vertex -7.89734 5.49127 2
      vertex -7.69929 5.46783 0
      vertex -7.89734 5.49127 0
    endloop
  endfacet
  facet normal 0.195087 0.980786 0
    outer loop
      vertex -7.89734 5.49127 2
      vertex -7.89734 5.49127 0
      vertex -8.09295 5.53018 2
    endloop
  endfacet
  facet normal 0.195087 0.980786 0
    outer loop
      vertex -8.09295 5.53018 2
      vertex -7.89734 5.49127 0
      vertex -8.09295 5.53018 0
    endloop
  endfacet
  facet normal 0.27144 0.962455 0
    outer loop
      vertex -8.09295 5.53018 2
      vertex -8.09295 5.53018 0
      vertex -8.2849 5.58432 2
    endloop
  endfacet
  facet normal 0.27144 0.962455 0
    outer loop
      vertex -8.2849 5.58432 2
      vertex -8.09295 5.53018 0
      vertex -8.2849 5.58432 0
    endloop
  endfacet
  facet normal 0.346119 0.938191 0
    outer loop
      vertex -8.2849 5.58432 2
      vertex -8.2849 5.58432 0
      vertex -8.47202 5.65335 2
    endloop
  endfacet
  facet normal 0.346119 0.938191 0
    outer loop
      vertex -8.47202 5.65335 2
      vertex -8.2849 5.58432 0
      vertex -8.47202 5.65335 0
    endloop
  endfacet
  facet normal 0.418658 0.908144 0
    outer loop
      vertex -8.47202 5.65335 2
      vertex -8.47202 5.65335 0
      vertex -8.65314 5.73684 2
    endloop
  endfacet
  facet normal 0.418658 0.908144 0
    outer loop
      vertex -8.65314 5.73684 2
      vertex -8.47202 5.65335 0
      vertex -8.65314 5.73684 0
    endloop
  endfacet
  facet normal 0.488624 0.872494 0
    outer loop
      vertex -8.65314 5.73684 2
      vertex -8.65314 5.73684 0
      vertex -8.82715 5.83429 2
    endloop
  endfacet
  facet normal 0.488624 0.872494 0
    outer loop
      vertex -8.82715 5.83429 2
      vertex -8.65314 5.73684 0
      vertex -8.82715 5.83429 0
    endloop
  endfacet
  facet normal 0.555569 0.831471 0
    outer loop
      vertex -8.82715 5.83429 2
      vertex -8.82715 5.83429 0
      vertex -8.99297 5.9451 2
    endloop
  endfacet
  facet normal 0.555569 0.831471 0
    outer loop
      vertex -8.99297 5.9451 2
      vertex -8.82715 5.83429 0
      vertex -8.99297 5.9451 0
    endloop
  endfacet
  facet normal 0.619095 0.785316 0
    outer loop
      vertex -8.99297 5.9451 2
      vertex -8.99297 5.9451 0
      vertex -9.1496 6.06857 2
    endloop
  endfacet
  facet normal 0.619095 0.785316 0
    outer loop
      vertex -9.1496 6.06857 2
      vertex -8.99297 5.9451 0
      vertex -9.1496 6.06857 0
    endloop
  endfacet
  facet normal 0.678801 0.734322 0
    outer loop
      vertex -9.1496 6.06857 2
      vertex -9.1496 6.06857 0
      vertex -9.29605 6.20395 2
    endloop
  endfacet
  facet normal 0.678801 0.734322 0
    outer loop
      vertex -9.29605 6.20395 2
      vertex -9.1496 6.06857 0
      vertex -9.29605 6.20395 0
    endloop
  endfacet
  facet normal 0.734322 0.678801 0
    outer loop
      vertex -9.43143 6.3504 2
      vertex -9.29605 6.20395 2
      vertex -9.29605 6.20395 0
    endloop
  endfacet
  facet normal 0.734322 0.678801 0
    outer loop
      vertex -9.43143 6.3504 0
      vertex -9.43143 6.3504 2
      vertex -9.29605 6.20395 0
    endloop
  endfacet
  facet normal 0.785316 0.619095 0
    outer loop
      vertex -9.5549 6.50702 2
      vertex -9.43143 6.3504 2
      vertex -9.43143 6.3504 0
    endloop
  endfacet
  facet normal 0.785316 0.619095 0
    outer loop
      vertex -9.5549 6.50702 0
      vertex -9.5549 6.50702 2
      vertex -9.43143 6.3504 0
    endloop
  endfacet
  facet normal 0.831471 0.555569 0
    outer loop
      vertex -9.66571 6.67285 2
      vertex -9.5549 6.50702 2
      vertex -9.5549 6.50702 0
    endloop
  endfacet
  facet normal 0.831471 0.555569 0
    outer loop
      vertex -9.66571 6.67285 0
      vertex -9.66571 6.67285 2
      vertex -9.5549 6.50702 0
    endloop
  endfacet
  facet normal 0.872494 0.488624 0
    outer loop
      vertex -9.76316 6.84686 2
      vertex -9.66571 6.67285 2
      vertex -9.66571 6.67285 0
    endloop
  endfacet
  facet normal 0.872494 0.488624 0
    outer loop
      vertex -9.76316 6.84686 0
      vertex -9.76316 6.84686 2
      vertex -9.66571 6.67285 0
    endloop
  endfacet
  facet normal 0.908144 0.418658 0
    outer loop
      vertex -9.84665 7.02798 2
      vertex -9.76316 6.84686 2
      vertex -9.76316 6.84686 0
    endloop
  endfacet
  facet normal 0.908144 0.418658 0
    outer loop
      vertex -9.84665 7.02798 0
      vertex -9.84665 7.02798 2
      vertex -9.76316 6.84686 0
    endloop
  endfacet
  facet normal 0.938191 0.346119 0
    outer loop
      vertex -9.91568 7.2151 2
      vertex -9.84665 7.02798 2
      vertex -9.84665 7.02798 0
    endloop
  endfacet
  facet normal 0.938191 0.346119 0
    outer loop
      vertex -9.91568 7.2151 0
      vertex -9.91568 7.2151 2
      vertex -9.84665 7.02798 0
    endloop
  endfacet
  facet normal 0.962455 0.27144 0
    outer loop
      vertex -9.96982 7.40705 2
      vertex -9.91568 7.2151 2
      vertex -9.91568 7.2151 0
    endloop
  endfacet
  facet normal 0.962455 0.27144 0
    outer loop
      vertex -9.96982 7.40705 0
      vertex -9.96982 7.40705 2
      vertex -9.91568 7.2151 0
    endloop
  endfacet
  facet normal 0.980786 0.195087 0
    outer loop
      vertex -10.0087 7.60266 2
      vertex -9.96982 7.40705 2
      vertex -9.96982 7.40705 0
    endloop
  endfacet
  facet normal 0.980786 0.195087 0
    outer loop
      vertex -10.0087 7.60266 0
      vertex -10.0087 7.60266 2
      vertex -9.96982 7.40705 0
    endloop
  endfacet
  facet normal 0.993068 0.117539 0
    outer loop
      vertex -10.0322 7.80071 2
      vertex -10.0087 7.60266 2
      vertex -10.0087 7.60266 0
    endloop
  endfacet
  facet normal 0.993068 0.117539 0
    outer loop
      vertex -10.0322 7.80071 0
      vertex -10.0322 7.80071 2
      vertex -10.0087 7.60266 0
    endloop
  endfacet
  facet normal 0 0 1
    outer loop
      vertex -13.0229 8.43466 2
      vertex -13.04 8 2
      vertex -13.0229 7.56534 2
    endloop
  endfacet
  facet normal 0 0 1
    outer loop
      vertex -12.8869 6.70671 2
      vertex -13.0229 8.43466 2
      vertex -12.9718 7.13335 2
    endloop
  endfacet
  facet normal 0 0 1
    outer loop
      vertex -12.9718 7.13335 2
      vertex -13.0229 8.43466 2
      vertex -13.0229 7.56534 2
    endloop
  endfacet
  facet normal 0 0 1
    outer loop
      vertex -12.7689 6.28805 2
      vertex -13.0229 8.43466 2
      vertex -12.8869 6.70671 2
    endloop
  endfacet
  facet normal 0 0 1
    outer loop
      vertex -12.6183 5.87993 2
      vertex -13.0229 8.43466 2
      vertex -12.7689 6.28805 2
    endloop
  endfacet
  facet normal 0 0 1
    outer loop
      vertex -12.4362 5.48489 2
      vertex -13.0229 8.43466 2
      vertex -12.6183 5.87993 2
    endloop
  endfacet
  facet normal 0 0 1
    outer loop
      vertex -12.2236 5.10536 2
      vertex -13.0229 8.43466 2
      vertex -12.4362 5.48489 2
    endloop
  endfacet
  facet normal 0 0 1
    outer loop
      vertex -11.982 4.74367 2
      vertex -13.0229 8.43466 2
      vertex -12.2236 5.10536 2
    endloop
  endfacet
  facet normal 0 0 1
    outer loop
      vertex -11.7126 4.40206 2
      vertex -13.0229 8.43466 2
      vertex -11.982 4.74367 2
    endloop
  endfacet
  facet normal 0 0 1
    outer loop
      vertex -11.4174 4.08263 2
      vertex -13.0229 8.43466 2
      vertex -11.7126 4.40206 2
    endloop
  endfacet
  facet normal 0 0 1
    outer loop
      vertex -11.0979 3.78735 2
      vertex -13.0229 8.43466 2
      vertex -11.4174 4.08263 2
    endloop
  endfacet
  facet normal 0 0 1
    outer loop
      vertex -10.7563 3.51805 2
      vertex -13.0229 8.43466 2
      vertex -11.0979 3.78735 2
    endloop
  endfacet
  facet normal 0 0 1
    outer loop
      vertex -10.3946 3.27637 2
      vertex -13.0229 8.43466 2
      vertex -10.7563 3.51805 2
    endloop
  endfacet
  facet normal 0 0 1
    outer loop
      vertex -10.0151 3.06382 2
      vertex -13.0229 8.43466 2
      vertex -10.3946 3.27637 2
    endloop
  endfacet
  facet normal 0 0 1
    outer loop
      vertex -9.62007 2.88171 2
      vertex -13.0229 8.43466 2
      vertex -10.0151 3.06382 2
    endloop
  endfacet
  facet normal 0 0 1
    outer loop
      vertex -9.21195 2.73115 2
      vertex -13.0229 8.43466 2
      vertex -9.62007 2.88171 2
    endloop
  endfacet
  facet normal 0 0 1
    outer loop
      vertex -8.79329 2.61307 2
      vertex -13.0229 8.43466 2
      vertex -9.21195 2.73115 2
    endloop
  endfacet
  facet normal 0 0 1
    outer loop
      vertex -8.36665 2.52821 2
      vertex -13.0229 8.43466 2
      vertex -8.79329 2.61307 2
    endloop
  endfacet
  facet normal 0 0 1
    outer loop
      vertex -7.93466 2.47708 2
      vertex -13.0229 8.43466 2
      vertex -8.36665 2.52821 2
    endloop
  endfacet
  facet normal 0 0 1
    outer loop
      vertex -7.5 2.46 2
      vertex -13.0229 8.43466 2
      vertex -7.93466 2.47708 2
    endloop
  endfacet
  facet normal 0 0 1
    outer loop
      vertex -7.06534 2.47708 2
      vertex -13.0229 8.43466 2
      vertex -7.5 2.46 2
    endloop
  endfacet
  facet normal 0 0 1
    outer loop
      vertex -6.63335 2.52821 2
      vertex -13.0229 8.43466 2
      vertex -7.06534 2.47708 2
    endloop
  endfacet
  facet normal 0 0 1
    outer loop
      vertex -6.20671 2.61307 2
      vertex -13.0229 8.43466 2
      vertex -6.63335 2.52821 2
    endloop
  endfacet
  facet normal 0 0 1
    outer loop
      vertex -5.78805 2.73115 2
      vertex -13.0229 8.43466 2
      vertex -6.20671 2.61307 2
    endloop
  endfacet
  facet normal 0 0 1
    outer loop
      vertex -5.37993 2.88171 2
      vertex -13.0229 8.43466 2
      vertex -5.78805 2.73115 2
    endloop
  endfacet
  facet normal 0 0 1
    outer loop
      vertex -4.98489 3.06382 2
      vertex -13.0229 8.43466 2
      vertex -5.37993 2.88171 2
    endloop
  endfacet
  facet normal 0 0 1
    outer loop
      vertex -8.82715 5.83429 2
      vertex -13.0229 8.43466 2
      vertex -4.98489 3.06382 2
    endloop
  endfacet
  facet normal 0 0 1
    outer loop
      vertex -8.99297 5.9451 2
      vertex -9.1496 6.06857 2
      vertex -13.0229 8.43466 2
    endloop
  endfacet
  facet normal 0 0 1
    outer loop
      vertex -4.60536 12.7236 2
      vertex -13.0229 8.43466 2
      vertex -4.5 12.6532 2
    endloop
  endfacet
  facet normal 0 0 1
    outer loop
      vertex -4.98489 12.9362 2
      vertex -13.0229 8.43466 2
      vertex -4.60536 12.7236 2
    endloop
  endfacet
  facet normal 0 0 1
    outer loop
      vertex -5.37993 13.1183 2
      vertex -13.0229 8.43466 2
      vertex -4.98489 12.9362 2
    endloop
  endfacet
  facet normal 0 0 1
    outer loop
      vertex -5.78805 13.2689 2
      vertex -13.0229 8.43466 2
      vertex -5.37993 13.1183 2
    endloop
  endfacet
  facet normal 0 0 1
    outer loop
      vertex -6.20671 13.3869 2
      vertex -13.0229 8.43466 2
      vertex -5.78805 13.2689 2
    endloop
  endfacet
  facet normal 0 0 1
    outer loop
      vertex -6.63335 13.4718 2
      vertex -13.0229 8.43466 2
      vertex -6.20671 13.3869 2
    endloop
  endfacet
  facet normal 0 0 1
    outer loop
      vertex -7.06534 13.5229 2
      vertex -13.0229 8.43466 2
      vertex -6.63335 13.4718 2
    endloop
  endfacet
  facet normal 0 0 1
    outer loop
      vertex -7.5 13.54 2
      vertex -13.0229 8.43466 2
      vertex -7.06534 13.5229 2
    endloop
  endfacet
  facet normal 0 0 1
    outer loop
      vertex -7.93466 13.5229 2
      vertex -13.0229 8.43466 2
      vertex -7.5 13.54 2
    endloop
  endfacet
  facet normal 0 0 1
    outer loop
      vertex -8.36665 13.4718 2
      vertex -13.0229 8.43466 2
      vertex -7.93466 13.5229 2
    endloop
  endfacet
  facet normal 0 0 1
    outer loop
      vertex -8.79329 13.3869 2
      vertex -13.0229 8.43466 2
      vertex -8.36665 13.4718 2
    endloop
  endfacet
  facet normal 0 0 1
    outer loop
      vertex -9.21195 13.2689 2
      vertex -13.0229 8.43466 2
      vertex -8.79329 13.3869 2
    endloop
  endfacet
  facet normal 0 0 1
    outer loop
      vertex -9.62007 13.1183 2
      vertex -13.0229 8.43466 2
      vertex -9.21195 13.2689 2
    endloop
  endfacet
  facet normal 0 0 1
    outer loop
      vertex -10.0151 12.9362 2
      vertex -13.0229 8.43466 2
      vertex -9.62007 13.1183 2
    endloop
  endfacet
  facet normal 0 0 1
    outer loop
      vertex -10.3946 12.7236 2
      vertex -13.0229 8.43466 2
      vertex -10.0151 12.9362 2
    endloop
  endfacet
  facet normal 0 0 1
    outer loop
      vertex -10.7563 12.482 2
      vertex -13.0229 8.43466 2
      vertex -10.3946 12.7236 2
    endloop
  endfacet
  facet normal 0 0 1
    outer loop
      vertex -11.0979 12.2126 2
      vertex -13.0229 8.43466 2
      vertex -10.7563 12.482 2
    endloop
  endfacet
  facet normal 0 0 1
    outer loop
      vertex -11.4174 11.9174 2
      vertex -13.0229 8.43466 2
      vertex -11.0979 12.2126 2
    endloop
  endfacet
  facet normal 0 0 1
    outer loop
      vertex -11.7126 11.5979 2
      vertex -13.0229 8.43466 2
      vertex -11.4174 11.9174 2
    endloop
  endfacet
  facet normal 0 0 1
    outer loop
      vertex -11.982 11.2563 2
      vertex -13.0229 8.43466 2
      vertex -11.7126 11.5979 2
    endloop
  endfacet
  facet normal 0 0 1
    outer loop
      vertex -12.2236 10.8946 2
      vertex -13.0229 8.43466 2
      vertex -11.982 11.2563 2
    endloop
  endfacet
  facet normal 0 0 1
    outer loop
      vertex -12.4362 10.5151 2
      vertex -13.0229 8.43466 2
      vertex -12.2236 10.8946 2
    endloop
  endfacet
  facet normal 0 0 1
    outer loop
      vertex -12.6183 10.1201 2
      vertex -13.0229 8.43466 2
      vertex -12.4362 10.5151 2
    endloop
  endfacet
  facet normal 0 0 1
    outer loop
      vertex -12.7689 9.71195 2
      vertex -13.0229 8.43466 2
      vertex -12.6183 10.1201 2
    endloop
  endfacet
  facet normal 0 0 1
    outer loop
      vertex -12.8869 9.29329 2
      vertex -13.0229 8.43466 2
      vertex -12.7689 9.71195 2
    endloop
  endfacet
  facet normal 0 0 1
    outer loop
      vertex -12.9718 8.86665 2
      vertex -13.0229 8.43466 2
      vertex -12.8869 9.29329 2
    endloop
  endfacet
  facet normal 0 0 1
    outer loop
      vertex -10.04 8 2
      vertex -13.0229 8.43466 2
      vertex -10.0322 7.80071 2
    endloop
  endfacet
  facet normal 0 0 1
    outer loop
      vertex -4.96783 8.19929 2
      vertex -4.96 8 2
      vertex -4.5 3.34677 2
    endloop
  endfacet
  facet normal 0 0 1
    outer loop
      vertex -10.0322 8.19929 2
      vertex -13.0229 8.43466 2
      vertex -10.04 8 2
    endloop
  endfacet
  facet normal 0 0 1
    outer loop
      vertex -10.0087 8.39734 2
      vertex -13.0229 8.43466 2
      vertex -10.0322 8.19929 2
    endloop
  endfacet
  facet normal 0 0 1
    outer loop
      vertex -9.96982 8.59295 2
      vertex -13.0229 8.43466 2
      vertex -10.0087 8.39734 2
    endloop
  endfacet
  facet normal 0 0 1
    outer loop
      vertex -9.91568 8.7849 2
      vertex -13.0229 8.43466 2
      vertex -9.96982 8.59295 2
    endloop
  endfacet
  facet normal 0 0 1
    outer loop
      vertex -9.84665 8.97202 2
      vertex -13.0229 8.43466 2
      vertex -9.91568 8.7849 2
    endloop
  endfacet
  facet normal 0 0 1
    outer loop
      vertex -9.76316 9.15314 2
      vertex -13.0229 8.43466 2
      vertex -9.84665 8.97202 2
    endloop
  endfacet
  facet normal 0 0 1
    outer loop
      vertex -9.66571 9.32715 2
      vertex -13.0229 8.43466 2
      vertex -9.76316 9.15314 2
    endloop
  endfacet
  facet normal 0 0 1
    outer loop
      vertex -9.5549 9.49297 2
      vertex -13.0229 8.43466 2
      vertex -9.66571 9.32715 2
    endloop
  endfacet
  facet normal 0 0 1
    outer loop
      vertex -9.43143 9.6496 2
      vertex -13.0229 8.43466 2
      vertex -9.5549 9.49297 2
    endloop
  endfacet
  facet normal 0 0 1
    outer loop
      vertex -7.89734 10.5087 2
      vertex -7.69929 10.5322 2
      vertex -4.5 12.6532 2
    endloop
  endfacet
  facet normal 0 0 1
    outer loop
      vertex -9.29605 9.79605 2
      vertex -13.0229 8.43466 2
      vertex -9.43143 9.6496 2
    endloop
  endfacet
  facet normal 0 0 1
    outer loop
      vertex -9.1496 9.93143 2
      vertex -13.0229 8.43466 2
      vertex -9.29605 9.79605 2
    endloop
  endfacet
  facet normal 0 0 1
    outer loop
      vertex -8.99297 10.0549 2
      vertex -13.0229 8.43466 2
      vertex -9.1496 9.93143 2
    endloop
  endfacet
  facet normal 0 0 1
    outer loop
      vertex -8.82715 10.1657 2
      vertex -13.0229 8.43466 2
      vertex -8.99297 10.0549 2
    endloop
  endfacet
  facet normal 0 0 1
    outer loop
      vertex -4.5 12.6532 2
      vertex -13.0229 8.43466 2
      vertex -8.82715 10.1657 2
    endloop
  endfacet
  facet normal 0 0 1
    outer loop
      vertex -8.47202 10.3467 2
      vertex -8.2849 10.4157 2
      vertex -4.5 12.6532 2
    endloop
  endfacet
  facet normal 0 0 1
    outer loop
      vertex -4.5 12.6532 2
      vertex -8.82715 10.1657 2
      vertex -8.65314 10.2632 2
    endloop
  endfacet
  facet normal 0 0 1
    outer loop
      vertex -8.2849 10.4157 2
      vertex -8.09295 10.4698 2
      vertex -4.5 12.6532 2
    endloop
  endfacet
  facet normal 0 0 1
    outer loop
      vertex -7.69929 10.5322 2
      vertex -7.5 10.54 2
      vertex -4.5 12.6532 2
    endloop
  endfacet
  facet normal 0 0 1
    outer loop
      vertex -7.5 10.54 2
      vertex -7.30071 10.5322 2
      vertex -4.5 12.6532 2
    endloop
  endfacet
  facet normal 0 0 1
    outer loop
      vertex -7.30071 10.5322 2
      vertex -7.10266 10.5087 2
      vertex -4.5 12.6532 2
    endloop
  endfacet
  facet normal 0 0 1
    outer loop
      vertex -7.10266 10.5087 2
      vertex -6.90705 10.4698 2
      vertex -4.5 12.6532 2
    endloop
  endfacet
  facet normal 0 0 1
    outer loop
      vertex -4.99127 7.60266 2
      vertex -5.03018 7.40705 2
      vertex -4.5 3.34677 2
    endloop
  endfacet
  facet normal 0 0 1
    outer loop
      vertex -7.10266 5.49127 2
      vertex -7.30071 5.46783 2
      vertex -4.5 3.34677 2
    endloop
  endfacet
  facet normal 0 0 1
    outer loop
      vertex -8.09295 5.53018 2
      vertex -8.2849 5.58432 2
      vertex -4.5 3.34677 2
    endloop
  endfacet
  facet normal 0 0 1
    outer loop
      vertex -4.5 12.6532 2
      vertex -6.90705 10.4698 2
      vertex -6.7151 10.4157 2
    endloop
  endfacet
  facet normal 0 0 1
    outer loop
      vertex -4.5 12.6532 2
      vertex -6.7151 10.4157 2
      vertex -6.52798 10.3467 2
    endloop
  endfacet
  facet normal 0 0 1
    outer loop
      vertex -5.4451 6.50702 2
      vertex -5.56857 6.3504 2
      vertex -4.5 3.34677 2
    endloop
  endfacet
  facet normal 0 0 1
    outer loop
      vertex -4.5 12.6532 2
      vertex -6.52798 10.3467 2
      vertex -6.34686 10.2632 2
    endloop
  endfacet
  facet normal 0 0 1
    outer loop
      vertex -4.5 12.6532 2
      vertex -6.34686 10.2632 2
      vertex -6.17285 10.1657 2
    endloop
  endfacet
  facet normal 0 0 1
    outer loop
      vertex -5.33429 6.67285 2
      vertex -5.4451 6.50702 2
      vertex -4.5 3.34677 2
    endloop
  endfacet
  facet normal 0 0 1
    outer loop
      vertex -4.5 12.6532 2
      vertex -6.17285 10.1657 2
      vertex -6.00702 10.0549 2
    endloop
  endfacet
  facet normal 0 0 1
    outer loop
      vertex -4.5 12.6532 2
      vertex -6.00702 10.0549 2
      vertex -5.8504 9.93143 2
    endloop
  endfacet
  facet normal 0 0 1
    outer loop
      vertex -5.23684 6.84686 2
      vertex -5.33429 6.67285 2
      vertex -4.5 3.34677 2
    endloop
  endfacet
  facet normal 0 0 1
    outer loop
      vertex -4.5 12.6532 2
      vertex -5.8504 9.93143 2
      vertex -5.70395 9.79605 2
    endloop
  endfacet
  facet normal 0 0 1
    outer loop
      vertex -4.5 12.6532 2
      vertex -5.70395 9.79605 2
      vertex -5.56857 9.6496 2
    endloop
  endfacet
  facet normal 0 0 1
    outer loop
      vertex -5.15335 7.02798 2
      vertex -5.23684 6.84686 2
      vertex -4.5 3.34677 2
    endloop
  endfacet
  facet normal 0 0 1
    outer loop
      vertex -4.5 12.6532 2
      vertex -5.56857 9.6496 2
      vertex -5.4451 9.49297 2
    endloop
  endfacet
  facet normal 0 0 1
    outer loop
      vertex -4.5 12.6532 2
      vertex -5.4451 9.49297 2
      vertex -5.33429 9.32715 2
    endloop
  endfacet
  facet normal 0 0 1
    outer loop
      vertex -5.03018 7.40705 2
      vertex -5.08432 7.2151 2
      vertex -4.5 3.34677 2
    endloop
  endfacet
  facet normal 0 0 1
    outer loop
      vertex -4.5 12.6532 2
      vertex -5.33429 9.32715 2
      vertex -5.23684 9.15314 2
    endloop
  endfacet
  facet normal 0 0 1
    outer loop
      vertex -5.08432 7.2151 2
      vertex -5.15335 7.02798 2
      vertex -4.5 3.34677 2
    endloop
  endfacet
  facet normal 0 0 1
    outer loop
      vertex -4.5 12.6532 2
      vertex -5.23684 9.15314 2
      vertex -5.15335 8.97202 2
    endloop
  endfacet
  facet normal 0 0 1
    outer loop
      vertex -4.5 12.6532 2
      vertex -5.15335 8.97202 2
      vertex -5.08432 8.7849 2
    endloop
  endfacet
  facet normal 0 0 1
    outer loop
      vertex -4.96783 7.80071 2
      vertex -4.99127 7.60266 2
      vertex -4.5 3.34677 2
    endloop
  endfacet
  facet normal 0 0 1
    outer loop
      vertex -4.5 12.6532 2
      vertex -5.08432 8.7849 2
      vertex -5.03018 8.59295 2
    endloop
  endfacet
  facet normal 0 0 1
    outer loop
      vertex -4.96 8 2
      vertex -4.96783 7.80071 2
      vertex -4.5 3.34677 2
    endloop
  endfacet
  facet normal 0 0 1
    outer loop
      vertex -4.5 12.6532 2
      vertex -5.03018 8.59295 2
      vertex -4.99127 8.39734 2
    endloop
  endfacet
  facet normal 0 0 1
    outer loop
      vertex -4.5 12.6532 2
      vertex -4.96783 8.19929 2
      vertex -4.5 3.34677 2
    endloop
  endfacet
  facet normal 0 0 1
    outer loop
      vertex -4.5 12.6532 2
      vertex -4.99127 8.39734 2
      vertex -4.96783 8.19929 2
    endloop
  endfacet
  facet normal 0 0 1
    outer loop
      vertex -5.56857 6.3504 2
      vertex -5.70395 6.20395 2
      vertex -4.5 3.34677 2
    endloop
  endfacet
  facet normal 0 0 1
    outer loop
      vertex -5.70395 6.20395 2
      vertex -5.8504 6.06857 2
      vertex -4.5 3.34677 2
    endloop
  endfacet
  facet normal 0 0 1
    outer loop
      vertex -5.8504 6.06857 2
      vertex -6.00702 5.9451 2
      vertex -4.5 3.34677 2
    endloop
  endfacet
  facet normal 0 0 1
    outer loop
      vertex -6.00702 5.9451 2
      vertex -6.17285 5.83429 2
      vertex -4.5 3.34677 2
    endloop
  endfacet
  facet normal 0 0 1
    outer loop
      vertex -6.17285 5.83429 2
      vertex -6.34686 5.73684 2
      vertex -4.5 3.34677 2
    endloop
  endfacet
  facet normal 0 0 1
    outer loop
      vertex -6.34686 5.73684 2
      vertex -6.52798 5.65335 2
      vertex -4.5 3.34677 2
    endloop
  endfacet
  facet normal 0 0 1
    outer loop
      vertex -6.52798 5.65335 2
      vertex -6.7151 5.58432 2
      vertex -4.5 3.34677 2
    endloop
  endfacet
  facet normal 0 0 1
    outer loop
      vertex -6.7151 5.58432 2
      vertex -6.90705 5.53018 2
      vertex -4.5 3.34677 2
    endloop
  endfacet
  facet normal 0 0 1
    outer loop
      vertex -6.90705 5.53018 2
      vertex -7.10266 5.49127 2
      vertex -4.5 3.34677 2
    endloop
  endfacet
  facet normal 0 0 1
    outer loop
      vertex -7.30071 5.46783 2
      vertex -7.5 5.46 2
      vertex -4.5 3.34677 2
    endloop
  endfacet
  facet normal 0 0 1
    outer loop
      vertex -7.5 5.46 2
      vertex -7.69929 5.46783 2
      vertex -4.5 3.34677 2
    endloop
  endfacet
  facet normal 0 0 1
    outer loop
      vertex -7.69929 5.46783 2
      vertex -7.89734 5.49127 2
      vertex -4.5 3.34677 2
    endloop
  endfacet
  facet normal 0 0 1
    outer loop
      vertex -9.5549 6.50702 2
      vertex -9.66571 6.67285 2
      vertex -13.0229 8.43466 2
    endloop
  endfacet
  facet normal 0 0 1
    outer loop
      vertex -7.89734 5.49127 2
      vertex -8.09295 5.53018 2
      vertex -4.5 3.34677 2
    endloop
  endfacet
  facet normal 0 0 1
    outer loop
      vertex -4.5 3.34677 2
      vertex -8.2849 5.58432 2
      vertex -4.60536 3.27637 2
    endloop
  endfacet
  facet normal 0 0 1
    outer loop
      vertex -8.2849 5.58432 2
      vertex -8.47202 5.65335 2
      vertex -4.60536 3.27637 2
    endloop
  endfacet
  facet normal 0 0 1
    outer loop
      vertex -4.60536 3.27637 2
      vertex -8.65314 5.73684 2
      vertex -4.98489 3.06382 2
    endloop
  endfacet
  facet normal 0 0 1
    outer loop
      vertex -8.65314 5.73684 2
      vertex -8.82715 5.83429 2
      vertex -4.98489 3.06382 2
    endloop
  endfacet
  facet normal 0 0 1
    outer loop
      vertex -8.99297 5.9451 2
      vertex -13.0229 8.43466 2
      vertex -8.82715 5.83429 2
    endloop
  endfacet
  facet normal 0 0 1
    outer loop
      vertex -9.43143 6.3504 2
      vertex -9.5549 6.50702 2
      vertex -13.0229 8.43466 2
    endloop
  endfacet
  facet normal 0 0 1
    outer loop
      vertex -9.29605 6.20395 2
      vertex -9.43143 6.3504 2
      vertex -13.0229 8.43466 2
    endloop
  endfacet
  facet normal 0 0 1
    outer loop
      vertex -9.1496 6.06857 2
      vertex -9.29605 6.20395 2
      vertex -13.0229 8.43466 2
    endloop
  endfacet
  facet normal 0 0 1
    outer loop
      vertex -8.47202 5.65335 2
      vertex -8.65314 5.73684 2
      vertex -4.60536 3.27637 2
    endloop
  endfacet
  facet normal 0 0 1
    outer loop
      vertex -9.66571 6.67285 2
      vertex -9.76316 6.84686 2
      vertex -13.0229 8.43466 2
    endloop
  endfacet
  facet normal 0 0 1
    outer loop
      vertex -9.84665 7.02798 2
      vertex -13.0229 8.43466 2
      vertex -9.76316 6.84686 2
    endloop
  endfacet
  facet normal 0 0 1
    outer loop
      vertex -9.91568 7.2151 2
      vertex -13.0229 8.43466 2
      vertex -9.84665 7.02798 2
    endloop
  endfacet
  facet normal 0 0 1
    outer loop
      vertex -9.96982 7.40705 2
      vertex -13.0229 8.43466 2
      vertex -9.91568 7.2151 2
    endloop
  endfacet
  facet normal 0 0 1
    outer loop
      vertex -10.0087 7.60266 2
      vertex -13.0229 8.43466 2
      vertex -9.96982 7.40705 2
    endloop
  endfacet
  facet normal 0 0 1
    outer loop
      vertex -10.0322 7.80071 2
      vertex -13.0229 8.43466 2
      vertex -10.0087 7.60266 2
    endloop
  endfacet
  facet normal 0 0 1
    outer loop
      vertex -8.65314 10.2632 2
      vertex -8.47202 10.3467 2
      vertex -4.5 12.6532 2
    endloop
  endfacet
  facet normal 0 0 1
    outer loop
      vertex -8.09295 10.4698 2
      vertex -7.89734 10.5087 2
      vertex -4.5 12.6532 2
    endloop
  endfacet
  facet normal 0 0 1
    outer loop
      vertex -4.5 14.629 3
      vertex -4.5 1.629 3
      vertex -3 1.629 3
    endloop
  endfacet
  facet normal 0 0 1
    outer loop
      vertex -3 14.629 3
      vertex -4.5 14.629 3
      vertex -3 1.629 3
    endloop
  endfacet
  facet normal -1 0 0
    outer loop
      vertex -3 0.1 0.01
      vertex -3 0.1 7.01
      vertex -3 1.629 0.01
    endloop
  endfacet
  facet normal -1 0 0
    outer loop
      vertex -3 1.629 3
      vertex -3 0.1 7.01
      vertex -3 16.1 7.01
    endloop
  endfacet
  facet normal -1 0 0
    outer loop
      vertex -3 14.629 0.01
      vertex -3 16.1 7.01
      vertex -3 16.1 0.01
    endloop
  endfacet
  facet normal -1 0 0
    outer loop
      vertex -3 14.629 3
      vertex -3 16.1 7.01
      vertex -3 14.629 0.01
    endloop
  endfacet
  facet normal -1 0 0
    outer loop
      vertex -3 1.629 0.01
      vertex -3 0.1 7.01
      vertex -3 1.629 3
    endloop
  endfacet
  facet normal -1 0 0
    outer loop
      vertex -3 1.629 3
      vertex -3 16.1 7.01
      vertex -3 14.629 3
    endloop
  endfacet
  facet normal 0 0 -1
    outer loop
      vertex -3 0.1 0.01
      vertex -3 1.629 0.01
      vertex 0 0.1 0.01
    endloop
  endfacet
  facet normal 0 0 -1
    outer loop
      vertex 0 0.1 0.01
      vertex -3 1.629 0.01
      vertex -1.5 1.629 0.01
    endloop
  endfacet
  facet normal 0 0 -1
    outer loop
      vertex 0 0.1 0.01
      vertex -1.5 1.629 0.01
      vertex -1.5 14.629 0.01
    endloop
  endfacet
  facet normal 0 0 -1
    outer loop
      vertex -1.5 14.629 0.01
      vertex -3 14.629 0.01
      vertex -3 16.1 0.01
    endloop
  endfacet
  facet normal 0 0 -1
    outer loop
      vertex -1.5 14.629 0.01
      vertex -3 16.1 0.01
      vertex 0 16.1 0.01
    endloop
  endfacet
  facet normal 0 0 -1
    outer loop
      vertex -1.5 14.629 0.01
      vertex 0 16.1 0.01
      vertex 0 0.1 0.01
    endloop
  endfacet
  facet normal 0 1 0
    outer loop
      vertex -3 16.1 0.01
      vertex -3 16.1 7.01
      vertex 0 16.1 0.01
    endloop
  endfacet
  facet normal 0 1 0
    outer loop
      vertex 0 16.1 4
      vertex -3 16.1 7.01
      vertex 24 16.1 7.01
    endloop
  endfacet
  facet normal 0 1 0
    outer loop
      vertex 21 16.1 0.01
      vertex 24 16.1 7.01
      vertex 24 16.1 0.01
    endloop
  endfacet
  facet normal 0 1 0
    outer loop
      vertex 21 16.1 4
      vertex 24 16.1 7.01
      vertex 21 16.1 0.01
    endloop
  endfacet
  facet normal 0 1 0
    outer loop
      vertex 0 16.1 0.01
      vertex -3 16.1 7.01
      vertex 0 16.1 4
    endloop
  endfacet
  facet normal 0 1 0
    outer loop
      vertex 0 16.1 4
      vertex 24 16.1 7.01
      vertex 21 16.1 4
    endloop
  endfacet
  facet normal 0 0 1
    outer loop
      vertex 0 3.125 7.01
      vertex -3 0.1 7.01
      vertex 24 0.1 7.01
    endloop
  endfacet
  facet normal 0 0 1
    outer loop
      vertex -3 16.1 7.01
      vertex -3 0.1 7.01
      vertex 0 3.125 7.01
    endloop
  endfacet
  facet normal 0 0 1
    outer loop
      vertex 0 12.875 7.01
      vertex 21 12.875 7.01
      vertex -3 16.1 7.01
    endloop
  endfacet
  facet normal 0 0 1
    outer loop
      vertex -3 16.1 7.01
      vertex 0 3.125 7.01
      vertex 0 12.875 7.01
    endloop
  endfacet
  facet normal 0 0 1
    outer loop
      vertex 24 16.1 7.01
      vertex 21 12.875 7.01
      vertex 24 0.1 7.01
    endloop
  endfacet
  facet normal 0 0 1
    outer loop
      vertex 24 16.1 7.01
      vertex -3 16.1 7.01
      vertex 21 12.875 7.01
    endloop
  endfacet
  facet normal 0 0 1
    outer loop
      vertex 21 12.875 7.01
      vertex 21 3.125 7.01
      vertex 24 0.1 7.01
    endloop
  endfacet
  facet normal 0 0 1
    outer loop
      vertex 21 3.125 7.01
      vertex 0 3.125 7.01
      vertex 24 0.1 7.01
    endloop
  endfacet
  facet normal 0 -1 0
    outer loop
      vertex -3 0.1 7.01
      vertex -3 0.1 0.01
      vertex 0 0.1 0.01
    endloop
  endfacet
  facet normal 0 -1 0
    outer loop
      vertex 21 0.1 4
      vertex -3 0.1 7.01
      vertex 0 0.1 4
    endloop
  endfacet
  facet normal 0 -1 0
    outer loop
      vertex 0 0.1 4
      vertex -3 0.1 7.01
      vertex 0 0.1 0.01
    endloop
  endfacet
  facet normal 0 -1 0
    outer loop
      vertex 24 0.1 7.01
      vertex -3 0.1 7.01
      vertex 21 0.1 4
    endloop
  endfacet
  facet normal 0 -1 0
    outer loop
      vertex 24 0.1 0.01
      vertex 21 0.1 4
      vertex 21 0.1 0.01
    endloop
  endfacet
  facet normal 0 -1 0
    outer loop
      vertex 24 0.1 7.01
      vertex 21 0.1 4
      vertex 24 0.1 0.01
    endloop
  endfacet
  facet normal 1 0 0
    outer loop
      vertex 0 3.125 4
      vertex 0 0.1 4
      vertex 0 16.1 0.01
    endloop
  endfacet
  facet normal 1 0 0
    outer loop
      vertex 0 16.1 0.01
      vertex 0 16.1 4
      vertex 0 12.875 4
    endloop
  endfacet
  facet normal 1 0 0
    outer loop
      vertex 0 3.125 7.01
      vertex 0 16.1 0.01
      vertex 0 12.875 4
    endloop
  endfacet
  facet normal 1 0 0
    outer loop
      vertex 0 12.875 7.01
      vertex 0 3.125 7.01
      vertex 0 12.875 4
    endloop
  endfacet
  facet normal 1 0 0
    outer loop
      vertex 0 3.125 7.01
      vertex 0 3.125 4
      vertex 0 16.1 0.01
    endloop
  endfacet
  facet normal 1 0 0
    outer loop
      vertex 0 0.1 4
      vertex 0 0.1 0.01
      vertex 0 16.1 0.01
    endloop
  endfacet
  facet normal 0 0 -1
    outer loop
      vertex 21 16.1 4
      vertex 21 12.875 4
      vertex 0 16.1 4
    endloop
  endfacet
  facet normal 0 0 -1
    outer loop
      vertex 0 16.1 4
      vertex 21 12.875 4
      vertex 0 12.875 4
    endloop
  endfacet
  facet normal -1 0 0
    outer loop
      vertex 21 3.125 4
      vertex 21 3.125 7.01
      vertex 21 12.875 7.01
    endloop
  endfacet
  facet normal -1 0 0
    outer loop
      vertex 21 3.125 4
      vertex 21 12.875 7.01
      vertex 21 12.875 4
    endloop
  endfacet
  facet normal -1 0 0
    outer loop
      vertex 21 3.125 4
      vertex 21 16.1 0.01
      vertex 21 0.1 4
    endloop
  endfacet
  facet normal -1 0 0
    outer loop
      vertex 21 12.875 4
      vertex 21 16.1 4
      vertex 21 16.1 0.01
    endloop
  endfacet
  facet normal -1 0 0
    outer loop
      vertex 21 12.875 4
      vertex 21 16.1 0.01
      vertex 21 3.125 4
    endloop
  endfacet
  facet normal -1 0 0
    outer loop
      vertex 21 16.1 0.01
      vertex 21 0.1 0.01
      vertex 21 0.1 4
    endloop
  endfacet
  facet normal 0 0 -1
    outer loop
      vertex 21 0.1 0.01
      vertex 21 16.1 0.01
      vertex 24 0.1 0.01
    endloop
  endfacet
  facet normal 0 0 -1
    outer loop
      vertex 24 0.1 0.01
      vertex 21 16.1 0.01
      vertex 24 16.1 0.01
    endloop
  endfacet
  facet normal 1 0 0
    outer loop
      vertex 24 0.1 7.01
      vertex 24 0.1 0.01
      vertex 24 16.1 0.01
    endloop
  endfacet
  facet normal 1 0 0
    outer loop
      vertex 24 16.1 7.01
      vertex 24 0.1 7.01
      vertex 24 16.1 0.01
    endloop
  endfacet
  facet normal 0 1 0
    outer loop
      vertex 21 3.125 7.01
      vertex 21 3.125 4
      vertex 0 3.125 7.01
    endloop
  endfacet
  facet normal 0 1 0
    outer loop
      vertex 0 3.125 7.01
      vertex 21 3.125 4
      vertex 0 3.125 4
    endloop
  endfacet
  facet normal 0 -1 0
    outer loop
      vertex 21 12.875 4
      vertex 21 12.875 7.01
      vertex 0 12.875 7.01
    endloop
  endfacet
  facet normal 0 -1 0
    outer loop
      vertex 0 12.875 4
      vertex 21 12.875 4
      vertex 0 12.875 7.01
    endloop
  endfacet
  facet normal 0 0 -1
    outer loop
      vertex 21 3.125 4
      vertex 21 0.1 4
      vertex 0 3.125 4
    endloop
  endfacet
  facet normal 0 0 -1
    outer loop
      vertex 0 3.125 4
      vertex 21 0.1 4
      vertex 0 0.1 4
    endloop
  endfacet
endsolid OpenSCAD_Model
